<svg xmlns="http://www.w3.org/2000/svg" xmlns:xlink="http://www.w3.org/1999/xlink" width="600" zoomAndPan="magnify" viewBox="0 0 450 449.999984" height="600" preserveAspectRatio="xMidYMid meet" version="1.0"><path fill="#000000" d="M 224.84375 19.632812 L 225.296875 19.632812 C 242.128906 19.632812 257.738281 25.269531 270.253906 34.71875 L 270.324219 34.71875 C 278.972656 41.230469 286.144531 49.585938 291.261719 59.089844 L 374.976562 204.777344 L 375.484375 205.945312 L 439.566406 317.136719 C 446.386719 328.625 449.972656 341.816406 449.972656 355.289062 C 449.972656 365.851562 447.777344 375.945312 443.828125 385.101562 L 443.898438 385.398438 C 440.902344 392.203125 436.9375 398.433594 432.027344 404.070312 C 426.460938 410.527344 419.878906 416.066406 412.398438 420.328125 C 401.328125 426.78125 388.730469 430.214844 375.933594 430.355469 L 374.679688 430.355469 C 358.425781 430.355469 342.675781 425.082031 329.722656 415.265625 L 329.652344 415.265625 C 321.003906 408.753906 313.832031 400.402344 308.714844 390.894531 L 225 245.207031 L 224.492188 244.039062 L 160.101562 132.34375 C 153.449219 120.910156 149.992188 107.945312 149.992188 94.695312 C 149.992188 86.78125 151.226562 79.101562 153.519531 71.914062 L 153.648438 71.464844 L 153.871094 70.890625 C 154.828125 67.964844 156.066406 64.589844 156.066406 64.589844 C 158.992188 57.851562 163.027344 51.636719 167.78125 46.140625 L 168.960938 44.746094 L 169.242188 44.453125 L 169.242188 44.382812 L 169.3125 44.382812 L 169.46875 44.15625 L 169.621094 44.101562 C 174.671875 38.53125 180.6875 33.625 187.566406 29.65625 C 198.632812 23.203125 211.234375 19.773438 224.03125 19.632812 Z M 75.148438 430.367188 L 74.039062 430.367188 C 61.226562 430.214844 48.628906 426.78125 37.574219 420.34375 C 30.09375 416.082031 23.511719 410.539062 17.945312 404.085938 C 13.035156 398.445312 9.070312 392.21875 6.074219 385.410156 L 6.144531 385.117188 C 2.039062 375.734375 0 365.554688 0 355.304688 C 0 341.3125 3.8125 328.289062 10.40625 317.152344 L 74.488281 205.960938 L 74.996094 204.792969 L 131.976562 105.695312 C 133.367188 117.773438 137.09375 129.640625 143.113281 140.46875 L 144.195312 142.3125 L 207.476562 252.097656 L 207.476562 251.886719 L 208.730469 254.585938 L 214.144531 264.109375 L 141.257812 390.894531 C 136.140625 400.402344 128.953125 408.769531 120.320312 415.265625 L 120.25 415.265625 C 107.296875 425.09375 91.546875 430.355469 75.289062 430.355469 Z M 75.148438 430.367188 " fill-opacity="1" fill-rule="nonzero"/></svg>