<svg xmlns="http://www.w3.org/2000/svg" xmlns:xlink="http://www.w3.org/1999/xlink" width="600" zoomAndPan="magnify" viewBox="0 0 450 449.999984" height="600" preserveAspectRatio="xMidYMid meet" version="1.0"><path stroke-linecap="round" transform="matrix(11.09375, 0, 0, 11.09375, -41.249989, -41.249997)" fill="none" stroke-linejoin="round" d="M 14.249999 19.557042 L 23.999999 19.557042 L 23.999999 7.094014 L 15.858098 7.094014 Z M 14.249999 19.557042 " stroke="#0a0a0a" stroke-width="1" stroke-opacity="1" stroke-miterlimit="4"/><path stroke-linecap="round" transform="matrix(11.09375, 0, 0, 11.09375, -41.249989, -41.249997)" fill="none" stroke-linejoin="round" d="M 15.858098 7.093662 L 9.142253 7.093662 C 9.031337 7.093662 8.921126 7.102817 8.811619 7.121479 C 8.702112 7.139789 8.59507 7.166901 8.49014 7.203169 C 8.38521 7.239436 8.284154 7.283803 8.186619 7.336972 C 8.089084 7.390141 7.996478 7.450704 7.909154 7.519366 C 7.82183 7.587676 7.740844 7.662676 7.665844 7.744718 C 7.590844 7.82676 7.523239 7.914084 7.463027 8.007394 C 7.402816 8.100704 7.350703 8.198239 7.306689 8.3 C 7.262675 8.40176 7.227112 8.50669 7.200703 8.614437 L 4.499999 19.557394 L 14.249999 19.557394 " stroke="#0a0a0a" stroke-width="1" stroke-opacity="1" stroke-miterlimit="4"/><path stroke-linecap="round" transform="matrix(11.09375, 0, 0, 11.09375, -41.249989, -41.249997)" fill="none" stroke-linejoin="round" d="M 23.999999 19.557394 C 23.999999 19.716902 23.992253 19.876409 23.976408 20.035211 C 23.960915 20.194014 23.937323 20.351761 23.906337 20.508451 C 23.875352 20.664789 23.836267 20.819718 23.79014 20.972535 C 23.743661 21.125352 23.69014 21.275352 23.628873 21.422887 C 23.567957 21.570423 23.499647 21.714437 23.424295 21.855282 C 23.348943 21.996127 23.267253 22.133099 23.178521 22.265845 C 23.089788 22.398592 22.994718 22.526409 22.893309 22.65 C 22.792253 22.77324 22.685211 22.891549 22.572183 23.004578 C 22.459154 23.117254 22.341197 23.224296 22.217605 23.325704 C 22.094366 23.427113 21.966197 23.522183 21.83345 23.610564 C 21.700704 23.699296 21.563732 23.781338 21.422887 23.85669 C 21.282394 23.932042 21.138028 24 20.990492 24.061268 C 20.842957 24.122183 20.692957 24.176057 20.54014 24.222535 C 20.387323 24.268662 20.232746 24.307395 20.076056 24.338733 C 19.919366 24.369719 19.761619 24.39331 19.602816 24.408803 C 19.444013 24.424648 19.284506 24.432395 19.124999 24.432395 C 18.965492 24.432395 18.805985 24.424648 18.647182 24.408803 C 18.48838 24.39331 18.330633 24.369719 18.173943 24.338733 C 18.017253 24.307395 17.862675 24.268662 17.709858 24.222535 C 17.557042 24.176057 17.407042 24.122183 17.259506 24.061268 C 17.111971 24 16.967605 23.932042 16.827112 23.85669 C 16.686267 23.781338 16.549295 23.699296 16.416549 23.610564 C 16.283802 23.522183 16.155633 23.427113 16.032394 23.325704 C 15.908802 23.224296 15.790844 23.117254 15.677816 23.004578 C 15.564788 22.891549 15.457746 22.77324 15.356689 22.65 C 15.255281 22.526409 15.160211 22.398592 15.071478 22.265845 C 14.982746 22.133099 14.901056 21.996127 14.825704 21.855282 C 14.750351 21.714437 14.682042 21.570423 14.621126 21.422887 C 14.559858 21.275352 14.506337 21.125352 14.459858 20.972535 C 14.413732 20.819718 14.374647 20.664789 14.343661 20.508451 C 14.312675 20.351761 14.289084 20.194014 14.273591 20.035211 C 14.257746 19.876409 14.249999 19.716902 14.249999 19.557394 " stroke="#0a0a0a" stroke-width="1" stroke-opacity="1" stroke-miterlimit="4"/><path stroke-linecap="round" transform="matrix(11.09375, 0, 0, 11.09375, -41.249989, -41.249997)" fill="none" stroke-linejoin="round" d="M 14.249999 19.557394 C 14.249999 19.716902 14.242253 19.876409 14.226408 20.035211 C 14.210915 20.194014 14.187323 20.351761 14.156337 20.508451 C 14.125351 20.664789 14.086267 20.819718 14.04014 20.972535 C 13.993661 21.125352 13.94014 21.275352 13.878872 21.422887 C 13.817957 21.570423 13.749647 21.714437 13.674295 21.855282 C 13.598943 21.996127 13.517253 22.133099 13.42852 22.265845 C 13.339788 22.398592 13.244718 22.526409 13.143309 22.65 C 13.042253 22.77324 12.935211 22.891549 12.822182 23.004578 C 12.709154 23.117254 12.591196 23.224296 12.467605 23.325704 C 12.344365 23.427113 12.216196 23.522183 12.08345 23.610564 C 11.950703 23.699296 11.813732 23.781338 11.672887 23.85669 C 11.532394 23.932042 11.388027 24 11.240492 24.061268 C 11.092957 24.122183 10.942957 24.176057 10.79014 24.222535 C 10.637323 24.268662 10.482746 24.307395 10.326056 24.338733 C 10.169365 24.369719 10.011619 24.39331 9.852816 24.408803 C 9.694013 24.424648 9.534506 24.432395 9.374999 24.432395 C 9.215492 24.432395 9.055985 24.424648 8.897182 24.408803 C 8.738379 24.39331 8.580633 24.369719 8.423943 24.338733 C 8.267253 24.307395 8.112675 24.268662 7.959858 24.222535 C 7.807041 24.176057 7.657041 24.122183 7.509506 24.061268 C 7.361971 24 7.217605 23.932042 7.077112 23.85669 C 6.936267 23.781338 6.799295 23.699296 6.666548 23.610564 C 6.533802 23.522183 6.405633 23.427113 6.282393 23.325704 C 6.158802 23.224296 6.040844 23.117254 5.927816 23.004578 C 5.814788 22.891549 5.707746 22.77324 5.606689 22.65 C 5.505281 22.526409 5.41021 22.398592 5.321478 22.265845 C 5.232746 22.133099 5.151055 21.996127 5.075703 21.855282 C 5.000351 21.714437 4.932041 21.570423 4.871126 21.422887 C 4.809858 21.275352 4.756337 21.125352 4.709858 20.972535 C 4.663731 20.819718 4.624647 20.664789 4.593661 20.508451 C 4.562675 20.351761 4.539084 20.194014 4.523591 20.035211 C 4.507746 19.876409 4.499999 19.716902 4.499999 19.557394 " stroke="#0a0a0a" stroke-width="1" stroke-opacity="1" stroke-miterlimit="4"/><path stroke-linecap="round" transform="matrix(11.09375, 0, 0, 11.09375, -41.249989, -41.249997)" fill="none" stroke-linejoin="round" d="M 33.75 19.557042 L 23.999999 19.557042 L 23.999999 7.094014 L 32.141901 7.094014 Z M 33.75 19.557042 " stroke="#0a0a0a" stroke-width="1" stroke-opacity="1" stroke-miterlimit="4"/><path stroke-linecap="round" transform="matrix(11.09375, 0, 0, 11.09375, -41.249989, -41.249997)" fill="none" stroke-linejoin="round" d="M 32.141901 7.093662 L 38.857746 7.093662 C 38.968662 7.093662 39.078873 7.102817 39.18838 7.121479 C 39.297887 7.139789 39.404929 7.166901 39.509859 7.203169 C 39.614789 7.239436 39.715845 7.283803 39.81338 7.336972 C 39.910915 7.390141 40.003521 7.450704 40.090845 7.519366 C 40.178169 7.587676 40.259155 7.662676 40.334155 7.744718 C 40.409155 7.82676 40.47676 7.914084 40.536972 8.007394 C 40.597183 8.100704 40.649296 8.198239 40.69331 8.3 C 40.737324 8.40176 40.772887 8.50669 40.799296 8.614437 L 43.5 19.557394 L 33.75 19.557394 " stroke="#0a0a0a" stroke-width="1" stroke-opacity="1" stroke-miterlimit="4"/><path stroke-linecap="round" transform="matrix(11.09375, 0, 0, 11.09375, -41.249989, -41.249997)" fill="none" stroke-linejoin="round" d="M 23.999999 19.557394 C 23.999999 19.716902 24.007746 19.876409 24.023591 20.035211 C 24.039084 20.194014 24.062676 20.351761 24.093661 20.508451 C 24.124647 20.664789 24.163732 20.819718 24.209859 20.972535 C 24.256337 21.125352 24.309859 21.275352 24.371126 21.422887 C 24.432042 21.570423 24.500352 21.714437 24.575704 21.855282 C 24.651056 21.996127 24.732746 22.133099 24.821478 22.265845 C 24.910211 22.398592 25.005281 22.526409 25.10669 22.65 C 25.207746 22.77324 25.314788 22.891549 25.427816 23.004578 C 25.540845 23.117254 25.658802 23.224296 25.782394 23.325704 C 25.905633 23.427113 26.033802 23.522183 26.166549 23.610564 C 26.299295 23.699296 26.436267 23.781338 26.577112 23.85669 C 26.717605 23.932042 26.861971 24 27.009507 24.061268 C 27.157042 24.122183 27.307042 24.176057 27.459859 24.222535 C 27.612676 24.268662 27.767253 24.307395 27.923943 24.338733 C 28.080633 24.369719 28.23838 24.39331 28.397183 24.408803 C 28.555985 24.424648 28.715493 24.432395 28.875 24.432395 C 29.034507 24.432395 29.194014 24.424648 29.352816 24.408803 C 29.511619 24.39331 29.669366 24.369719 29.826056 24.338733 C 29.982746 24.307395 30.137324 24.268662 30.29014 24.222535 C 30.442957 24.176057 30.592957 24.122183 30.740493 24.061268 C 30.888028 24 31.032394 23.932042 31.172887 23.85669 C 31.313732 23.781338 31.450704 23.699296 31.58345 23.610564 C 31.716197 23.522183 31.844366 23.427113 31.967605 23.325704 C 32.091197 23.224296 32.209155 23.117254 32.322183 23.004578 C 32.435211 22.891549 32.542253 22.77324 32.643309 22.65 C 32.744718 22.526409 32.839788 22.398592 32.928521 22.265845 C 33.017253 22.133099 33.098943 21.996127 33.174295 21.855282 C 33.249648 21.714437 33.317957 21.570423 33.378873 21.422887 C 33.44014 21.275352 33.493662 21.125352 33.54014 20.972535 C 33.586267 20.819718 33.625352 20.664789 33.656338 20.508451 C 33.687324 20.351761 33.710915 20.194014 33.726408 20.035211 C 33.742253 19.876409 33.75 19.716902 33.75 19.557394 " stroke="#0a0a0a" stroke-width="1" stroke-opacity="1" stroke-miterlimit="4"/><path stroke-linecap="round" transform="matrix(11.09375, 0, 0, 11.09375, -41.249989, -41.249997)" fill="none" stroke-linejoin="round" d="M 33.75 19.557394 C 33.75 19.716902 33.758098 19.876056 33.773943 20.034859 C 33.789436 20.193662 33.813028 20.351409 33.844366 20.507747 C 33.875352 20.664437 33.914436 20.819014 33.960563 20.971831 C 34.007042 21.124296 34.060915 21.274296 34.122183 21.421831 C 34.183098 21.569366 34.251408 21.71338 34.32676 21.853873 C 34.402112 21.994718 34.484155 22.131338 34.572887 22.264085 C 34.661619 22.396831 34.756338 22.524648 34.857746 22.64824 C 34.959155 22.771479 35.066197 22.889437 35.178873 23.002113 C 35.291901 23.115141 35.410211 23.222183 35.53345 23.32324 C 35.65669 23.424648 35.784859 23.519366 35.917605 23.608099 C 36.050352 23.696831 36.186972 23.778521 36.327817 23.853873 C 36.468662 23.928873 36.612676 23.997183 36.760211 24.058099 C 36.907746 24.119366 37.057746 24.172888 37.210563 24.219366 C 37.363028 24.265493 37.517957 24.304226 37.674296 24.335211 C 37.830986 24.366549 37.98838 24.389789 38.147535 24.405634 C 38.306338 24.421127 38.465493 24.428873 38.625 24.428873 C 38.784507 24.428873 38.943662 24.421127 39.102465 24.405634 C 39.261619 24.389789 39.419014 24.366549 39.575704 24.335211 C 39.732042 24.304226 39.886972 24.265493 40.039436 24.219366 C 40.192253 24.172888 40.342253 24.119366 40.489789 24.058099 C 40.637324 23.997183 40.781338 23.928873 40.922183 23.853873 C 41.063028 23.778521 41.199648 23.696831 41.332394 23.608099 C 41.465141 23.519366 41.59331 23.424648 41.716549 23.32324 C 41.839789 23.222183 41.958098 23.115141 42.071127 23.002113 C 42.183803 22.889437 42.290845 22.771479 42.392253 22.64824 C 42.493662 22.524648 42.58838 22.396831 42.677113 22.264085 C 42.765845 22.131338 42.847887 21.994718 42.923239 21.853873 C 42.998591 21.71338 43.066901 21.569366 43.127817 21.421831 C 43.189084 21.274296 43.242958 21.124296 43.289436 20.971831 C 43.335563 20.819014 43.374648 20.664437 43.405634 20.507747 C 43.436972 20.351409 43.460563 20.193662 43.476056 20.034859 C 43.491901 19.876056 43.5 19.716902 43.5 19.557394 " stroke="#0a0a0a" stroke-width="1" stroke-opacity="1" stroke-miterlimit="4"/><path stroke-linecap="round" transform="matrix(11.09375, 0, 0, 11.09375, -41.249989, -41.249997)" fill="none" stroke-linejoin="round" d="M 7.325351 23.976761 L 7.325351 38.906339 C 7.325351 38.971831 7.32852 39.036972 7.334858 39.102113 C 7.341196 39.167254 7.350703 39.232043 7.363732 39.296479 C 7.376408 39.360564 7.392253 39.423944 7.411267 39.48662 C 7.430281 39.549296 7.452464 39.610916 7.477464 39.671479 C 7.502464 39.732043 7.530633 39.791198 7.561267 39.848944 C 7.592253 39.906691 7.625703 39.963029 7.662323 40.017254 C 7.698591 40.071832 7.737675 40.124296 7.779224 40.175001 C 7.820774 40.225705 7.864788 40.273944 7.910915 40.320423 C 7.957394 40.366902 8.005633 40.410564 8.056337 40.452113 C 8.107041 40.493663 8.159506 40.532747 8.214084 40.569015 C 8.268661 40.605634 8.324647 40.639085 8.382394 40.670071 C 8.44014 40.701057 8.499295 40.728874 8.559858 40.753874 C 8.620422 40.778874 8.682041 40.801057 8.744717 40.820071 C 8.807394 40.839085 8.870774 40.85493 8.934858 40.867606 C 8.999295 40.880634 9.064084 40.890141 9.129225 40.896479 C 9.194365 40.902817 9.259858 40.906339 9.325351 40.906339 L 38.675352 40.906339 C 38.740845 40.906339 38.805986 40.902817 38.871127 40.896479 C 38.936267 40.890141 39.001056 40.880634 39.065493 40.867606 C 39.129577 40.85493 39.192958 40.839085 39.255634 40.820071 C 39.31831 40.801057 39.379929 40.778874 39.440493 40.753874 C 39.501056 40.728874 39.560211 40.701057 39.617958 40.670071 C 39.675704 40.639085 39.732042 40.605634 39.786267 40.569015 C 39.840845 40.532747 39.89331 40.493663 39.944014 40.452113 C 39.994718 40.410564 40.042958 40.366902 40.089436 40.320423 C 40.135563 40.273944 40.179577 40.225705 40.221127 40.175001 C 40.262676 40.124296 40.30176 40.071832 40.338028 40.017254 C 40.374648 39.963029 40.408098 39.906691 40.439084 39.848944 C 40.47007 39.791198 40.497887 39.732043 40.522887 39.671479 C 40.547887 39.610916 40.57007 39.549296 40.589084 39.48662 C 40.608098 39.423944 40.623943 39.360564 40.63662 39.296479 C 40.649648 39.232043 40.659155 39.167254 40.665493 39.102113 C 40.671831 39.036972 40.675352 38.971831 40.675352 38.906339 L 40.675352 23.978169 " stroke="#0a0a0a" stroke-width="1" stroke-opacity="1" stroke-miterlimit="4"/><path stroke-linecap="round" transform="matrix(11.09375, 0, 0, 11.09375, -41.249989, -41.249997)" fill="none" stroke-linejoin="round" d="M 33.498943 33.568662 L 37.455634 33.568662 C 37.458803 33.698944 37.455634 33.828874 37.446126 33.958803 C 37.436267 34.088733 37.420422 34.217958 37.397887 34.346127 C 37.375704 34.474648 37.347183 34.601409 37.312324 34.727113 C 37.277465 34.852465 37.236619 34.976057 37.189788 35.097536 C 37.142957 35.219015 37.090141 35.338029 37.03169 35.454226 C 36.972887 35.570775 36.908803 35.683803 36.839084 35.794015 C 36.769366 35.903874 36.694366 36.010212 36.614084 36.113029 C 36.533803 36.215493 36.448943 36.314085 36.359155 36.408451 C 36.269366 36.502817 36.175 36.592254 36.076408 36.677465 C 35.977464 36.762324 35.875 36.842254 35.768662 36.917254 C 35.661972 36.992254 35.552112 37.061972 35.438732 37.126057 C 35.325352 37.190141 35.209155 37.248592 35.090141 37.301409 C 34.970774 37.354226 34.849295 37.401057 34.725704 37.441902 C 34.602112 37.482395 34.47676 37.517254 34.349648 37.545775 C 34.222535 37.574296 34.094366 37.596479 33.964788 37.612324 C 33.835563 37.628169 33.705986 37.637677 33.575704 37.640846 L 33.498943 37.641902 C 33.365493 37.641902 33.232394 37.635564 33.099648 37.622536 C 32.966901 37.609155 32.835211 37.589789 32.704225 37.563733 C 32.573239 37.537677 32.444014 37.505282 32.316549 37.46655 C 32.188732 37.427817 32.06338 37.383099 31.94014 37.332043 C 31.816901 37.280986 31.696478 37.223944 31.578873 37.160916 C 31.461267 37.09824 31.346831 37.029578 31.235915 36.955634 C 31.125 36.881338 31.017957 36.802113 30.914788 36.717254 C 30.811619 36.632747 30.713028 36.54331 30.618662 36.448944 C 30.524295 36.354578 30.434859 36.255986 30.350352 36.152817 C 30.265493 36.049648 30.186267 35.942606 30.111971 35.831691 C 30.038028 35.720775 29.969366 35.606338 29.90669 35.488733 C 29.843662 35.371127 29.786619 35.250705 29.735563 35.127465 C 29.684507 35.004226 29.639788 34.878874 29.601056 34.751057 C 29.562324 34.623592 29.529929 34.494367 29.503873 34.363381 C 29.477816 34.232395 29.45845 34.100705 29.44507 33.967958 C 29.432042 33.835212 29.425704 33.702113 29.425704 33.568662 C 29.425704 33.435212 29.432042 33.302113 29.44507 33.169367 C 29.45845 33.03662 29.477816 32.90493 29.503873 32.773944 C 29.529929 32.64331 29.562324 32.514085 29.601056 32.386268 C 29.639788 32.258451 29.684507 32.133099 29.735563 32.00986 C 29.786619 31.88662 29.843662 31.766198 29.90669 31.648592 C 29.969366 31.530986 30.038028 31.41655 30.111971 31.305634 C 30.186267 31.194719 30.265493 31.087676 30.350352 30.984507 C 30.434859 30.881338 30.524295 30.782747 30.618662 30.688381 C 30.713028 30.594014 30.811619 30.504578 30.914788 30.420071 C 31.017957 30.335212 31.125 30.255986 31.235915 30.182043 C 31.346831 30.107747 31.461267 30.039085 31.578873 29.976409 C 31.696478 29.913381 31.816901 29.856338 31.94014 29.805282 C 32.06338 29.754578 32.188732 29.709507 32.316549 29.670775 C 32.444014 29.632043 32.573239 29.599648 32.704225 29.573592 C 32.835211 29.547536 32.966901 29.528169 33.099648 29.515141 C 33.232394 29.502113 33.365493 29.495423 33.498943 29.495423 C 33.853169 29.494014 34.20176 29.538381 34.544366 29.629226 C 34.886972 29.720071 35.211972 29.854226 35.519014 30.030986 " stroke="#0a0a0a" stroke-width="1" stroke-opacity="1" stroke-miterlimit="4"/></svg>