<svg xmlns="http://www.w3.org/2000/svg" xmlns:xlink="http://www.w3.org/1999/xlink" width="600" zoomAndPan="magnify" viewBox="0 0 450 449.999984" height="600" preserveAspectRatio="xMidYMid meet" version="1.0"><path fill="#000000" d="M 89.082031 11.4375 L 335.15625 152.925781 L 282.414062 205.667969 Z M 38.101562 0 L 263.980469 225 L 38.117188 450 C 26.625 444.917969 18.75 433.613281 18.75 420.46875 C 18.75 420.039062 18.75 419.605469 18.769531 419.195312 L 18.769531 419.25 L 18.769531 30.769531 C 18.75 30.414062 18.75 29.980469 18.75 29.550781 C 18.75 16.40625 26.625 5.101562 37.914062 0.09375 L 38.117188 0.0195312 Z M 411.636719 198.636719 C 419.398438 204.394531 424.367188 213.542969 424.367188 223.835938 C 424.367188 224.25 424.367188 224.644531 424.351562 225.054688 L 424.351562 225 C 424.425781 225.804688 424.480469 226.761719 424.480469 227.71875 C 424.480469 237.394531 419.792969 245.980469 412.554688 251.304688 L 412.480469 251.363281 L 359.738281 281.230469 L 302.625 225 L 359.757812 167.867188 Z M 89.082031 438.5625 L 282.429688 244.332031 L 335.175781 297.074219 Z M 89.082031 438.5625 " fill-opacity="1" fill-rule="nonzero"/></svg>