<svg xmlns="http://www.w3.org/2000/svg" xmlns:xlink="http://www.w3.org/1999/xlink" width="600" zoomAndPan="magnify" viewBox="0 0 450 449.999984" height="600" preserveAspectRatio="xMidYMid meet" version="1.0"><path fill="#000000" d="M 443.335938 101.8125 C 443.476562 102.402344 443.558594 103.0625 443.558594 103.640625 L 443.558594 200.25 C 443.558594 202.738281 442.238281 205.085938 440.042969 206.324219 L 358.960938 253.054688 L 358.960938 345.558594 C 358.960938 348.046875 357.636719 350.394531 355.445312 351.632812 L 186.1875 449.042969 C 185.820312 449.269531 185.386719 449.410156 184.9375 449.550781 C 184.796875 449.621094 184.640625 449.691406 184.5 449.773438 C 183.332031 450.070312 182.082031 450.070312 180.914062 449.773438 C 180.6875 449.703125 180.546875 449.632812 180.40625 449.550781 C 179.972656 449.410156 179.605469 449.253906 179.242188 449.042969 L 10.054688 351.632812 C 7.859375 350.382812 6.46875 348.046875 6.46875 345.558594 L 6.46875 55.742188 C 6.46875 55.152344 6.609375 54.492188 6.765625 53.914062 C 6.835938 53.691406 6.90625 53.550781 6.988281 53.324219 C 7.128906 52.960938 7.285156 52.59375 7.425781 52.226562 C 7.496094 52.003906 7.71875 51.863281 7.859375 51.636719 C 8.085938 51.34375 8.296875 51.046875 8.523438 50.75 C 8.746094 50.609375 8.957031 50.457031 9.183594 50.246094 C 9.476562 50.019531 9.6875 49.808594 9.984375 49.65625 L 94.585938 0.941406 C 96.777344 -0.308594 99.492188 -0.308594 101.617188 0.941406 L 186.285156 49.65625 C 186.582031 49.796875 186.792969 50.019531 187.015625 50.246094 C 187.242188 50.386719 187.523438 50.609375 187.75 50.75 C 187.972656 51.046875 188.113281 51.257812 188.339844 51.636719 C 188.480469 51.777344 188.703125 52.003906 188.84375 52.226562 C 188.984375 52.59375 189.140625 52.960938 189.28125 53.324219 C 189.351562 53.550781 189.507812 53.691406 189.507812 53.914062 C 189.730469 54.507812 189.800781 55.082031 189.800781 55.742188 L 189.800781 236.726562 L 260.253906 196.15625 L 260.253906 103.65625 C 260.253906 102.992188 260.394531 102.402344 260.550781 101.828125 C 260.621094 101.601562 260.691406 101.390625 260.773438 101.234375 C 260.914062 100.871094 261.070312 100.503906 261.210938 100.140625 C 261.351562 99.84375 261.578125 99.703125 261.71875 99.476562 C 261.941406 99.183594 262.082031 98.886719 262.308594 98.675781 C 262.53125 98.464844 262.8125 98.3125 263.039062 98.171875 C 263.265625 97.945312 263.476562 97.734375 263.769531 97.578125 L 348.441406 48.867188 C 350.5625 47.546875 353.277344 47.546875 355.472656 48.867188 L 440.070312 97.578125 C 440.367188 97.71875 440.578125 97.945312 440.875 98.171875 C 441.097656 98.3125 441.308594 98.464844 441.535156 98.675781 C 441.757812 98.886719 441.96875 99.183594 442.195312 99.476562 C 442.335938 99.703125 442.5625 99.84375 442.632812 100.140625 C 442.855469 100.503906 442.925781 100.871094 443.066406 101.234375 C 443.207031 101.375 443.292969 101.601562 443.363281 101.828125 Z M 429.414062 196.144531 L 429.414062 115.875 L 399.824219 132.863281 L 358.960938 156.445312 L 358.960938 236.714844 Z M 344.898438 341.453125 L 344.898438 261.097656 L 304.609375 284.019531 L 189.757812 349.648438 L 189.757812 430.734375 Z M 20.503906 67.964844 L 20.503906 341.453125 L 175.625 430.734375 L 175.625 349.648438 L 94.542969 303.722656 C 94.246094 303.582031 94.035156 303.355469 93.8125 303.132812 C 93.585938 302.992188 93.304688 302.835938 93.148438 302.625 L 93.078125 302.625 C 92.855469 302.398438 92.714844 302.117188 92.488281 301.894531 C 92.347656 301.667969 92.125 301.457031 91.984375 301.164062 C 91.84375 300.9375 91.6875 300.570312 91.617188 300.277344 C 91.476562 299.980469 91.320312 299.769531 91.25 299.476562 C 91.179688 299.179688 91.109375 298.8125 91.109375 298.449219 C 91.039062 298.152344 90.96875 297.941406 90.96875 297.648438 L 90.96875 108.535156 L 50.105469 84.953125 Z M 98.070312 15.160156 L 27.617188 55.730469 L 98.070312 96.300781 L 168.523438 55.730469 Z M 134.761719 268.4375 L 175.625 244.855469 L 175.625 67.976562 L 146.039062 84.964844 L 105.101562 108.546875 L 105.101562 285.425781 Z M 351.929688 63.054688 L 281.390625 103.625 L 351.929688 144.195312 L 422.382812 103.625 Z M 344.898438 156.445312 L 274.359375 115.875 L 274.359375 196.144531 L 315.226562 219.726562 L 344.882812 236.714844 Z M 182.671875 337.429688 L 337.726562 248.949219 L 267.34375 208.378906 L 112.359375 297.589844 Z M 182.671875 337.429688 " fill-opacity="1" fill-rule="nonzero"/></svg>