<svg xmlns="http://www.w3.org/2000/svg" width="600" height="600" viewBox="0 0 450 450"><path fill="#0a0a0a" d="m448.41 303.969-21.84-182C420.695 72.957 379.05 36 329.695 36H121.191c-49.355 0-91 36.957-96.875 85.969l-21.816 182c-3.328 27.691 5.379 55.535 23.887 76.379 18.492 20.863 45.101 32.808 72.988 32.808h252.156c27.867 0 54.477-11.945 72.989-32.808 18.488-20.844 27.214-48.688 23.89-76.38m-59.812 44.734c-9.914 11.168-23.586 17.3-38.493 17.3H100.777c-14.925 0-28.597-6.132-38.488-17.3-9.918-11.168-14.367-25.465-12.594-40.285l21.555-179.95c3.09-25.831 25.059-45.316 51.086-45.316h206.191c26.032 0 47.996 19.504 51.086 45.317l21.578 179.949c1.77 14.82-2.722 29.117-12.593 40.285m0 0"/><path fill="#0a0a0a" d="M350.71 248.09c-3.433-5.27-8.702-8.88-14.858-10.172a23.4 23.4 0 0 0-17.692 3.305c-62.789 40.93-123.875 40.93-186.773 0-5.274-3.434-11.559-4.602-17.692-3.305-6.156 1.293-11.425 4.902-14.84 10.172a23.35 23.35 0 0 0-3.304 17.691c1.297 6.156 4.902 11.426 10.176 14.84 39.308 25.594 79.378 38.555 119.101 38.555s79.77-12.98 119.016-38.578c5.27-3.434 8.879-8.703 10.172-14.86 1.296-6.156.109-12.422-3.305-17.691Zm0 0"/></svg>