<svg xmlns="http://www.w3.org/2000/svg" xmlns:xlink="http://www.w3.org/1999/xlink" width="600" zoomAndPan="magnify" viewBox="0 0 450 449.999984" height="600" preserveAspectRatio="xMidYMid meet" version="1.0"><path fill="#0a0a0a" d="M 448.410156 303.96875 L 426.570312 121.96875 C 420.695312 72.957031 379.050781 36 329.695312 36 L 121.191406 36 C 71.835938 36 30.191406 72.957031 24.316406 121.96875 L 2.5 303.96875 C -0.828125 331.660156 7.878906 359.503906 26.386719 380.347656 C 44.878906 401.210938 71.488281 413.15625 99.375 413.15625 L 351.53125 413.15625 C 379.398438 413.15625 406.007812 401.210938 424.519531 380.347656 C 443.007812 359.503906 451.734375 331.660156 448.410156 303.96875 Z M 388.597656 348.703125 C 378.683594 359.871094 365.011719 366.003906 350.105469 366.003906 L 100.777344 366.003906 C 85.851562 366.003906 72.179688 359.871094 62.289062 348.703125 C 52.371094 337.535156 47.921875 323.238281 49.695312 308.417969 L 71.25 128.46875 C 74.339844 102.636719 96.308594 83.152344 122.335938 83.152344 L 328.527344 83.152344 C 354.558594 83.152344 376.523438 102.65625 379.613281 128.46875 L 401.191406 308.417969 C 402.960938 323.238281 398.46875 337.535156 388.597656 348.703125 Z M 388.597656 348.703125 " fill-opacity="1" fill-rule="nonzero"/><path fill="#0a0a0a" d="M 350.710938 248.089844 C 347.277344 242.820312 342.007812 239.210938 335.851562 237.917969 C 329.695312 236.621094 323.410156 237.808594 318.160156 241.222656 C 255.371094 282.152344 194.285156 282.152344 131.386719 241.222656 C 126.113281 237.789062 119.828125 236.621094 113.695312 237.917969 C 107.539062 239.210938 102.269531 242.820312 98.855469 248.089844 C 95.421875 253.359375 94.253906 259.644531 95.550781 265.78125 C 96.847656 271.9375 100.453125 277.207031 105.726562 280.621094 C 145.035156 306.214844 185.105469 319.175781 224.828125 319.175781 C 264.550781 319.175781 304.597656 306.195312 343.84375 280.597656 C 349.113281 277.164062 352.722656 271.894531 354.015625 265.738281 C 355.3125 259.582031 354.125 253.316406 350.710938 248.046875 Z M 350.710938 248.089844 " fill-opacity="1" fill-rule="nonzero"/></svg>