<svg xmlns="http://www.w3.org/2000/svg" xmlns:xlink="http://www.w3.org/1999/xlink" width="600" zoomAndPan="magnify" viewBox="0 0 450 449.999984" height="600" preserveAspectRatio="xMidYMid meet" version="1.0"><path fill="#000000" d="M 288.542969 449.605469 L 423.84375 420.335938 C 423.84375 420.335938 375.019531 90 374.625 87.898438 C 374.363281 85.914062 372.695312 84.375 370.667969 84.300781 C 368.792969 84.300781 334.5 81.75 334.5 81.75 C 334.5 81.75 310.59375 57.863281 307.519531 55.292969 C 306.882812 54.710938 306.132812 54.242188 305.304688 53.925781 L 305.25 53.90625 L 288.113281 449.53125 L 288.542969 449.53125 Z M 220.539062 211.96875 C 210.824219 207.167969 199.425781 204.261719 187.351562 204.019531 L 187.273438 204.019531 C 160.144531 204.019531 159.148438 221.007812 159.148438 225.414062 C 159.148438 248.511719 219.898438 257.570312 219.898438 312.207031 C 219.898438 355.332031 192.898438 382.707031 156.039062 382.707031 C 155.289062 382.726562 154.425781 382.742188 153.542969 382.742188 C 128.398438 382.742188 105.730469 372.1875 89.699219 355.273438 L 89.664062 355.238281 L 101.773438 316.125 C 113.398438 326.324219 127.96875 333.429688 144.039062 336.054688 L 144.523438 336.113281 C 144.695312 336.113281 144.898438 336.132812 145.105469 336.132812 C 154.800781 336.132812 162.675781 328.332031 162.804688 318.65625 L 162.804688 318.636719 C 162.804688 288.28125 113.042969 286.875 113.042969 236.90625 C 112.332031 195 142.425781 154.105469 203.476562 154.105469 C 204.636719 154.050781 205.988281 154.011719 207.335938 154.011719 C 218.679688 154.011719 229.445312 156.542969 239.082031 161.082031 L 238.632812 160.894531 L 220.914062 211.894531 L 220.539062 212.082031 Z M 210.414062 15.5625 C 213.242188 15.582031 215.851562 16.519531 217.949219 18.113281 L 217.914062 18.09375 C 199.554688 26.8125 179.304688 48.75 170.980469 92.945312 C 158.679688 96.9375 146.738281 100.539062 135.5625 103.78125 C 145.351562 70.3125 168.804688 15.75 210.414062 15.75 Z M 233.476562 70.855469 L 233.476562 73.386719 C 219.335938 77.738281 203.792969 82.460938 188.585938 87.1875 C 192.601562 63.054688 207.242188 42.992188 227.457031 31.6875 L 227.851562 31.480469 C 231.5625 42.054688 233.71875 54.261719 233.71875 66.957031 C 233.71875 68.324219 233.699219 69.695312 233.644531 71.042969 L 233.644531 70.855469 Z M 243.582031 28.96875 C 256.59375 30.355469 264.976562 45.226562 270.375 61.875 C 263.832031 64.011719 256.59375 66.207031 248.664062 68.738281 L 248.664062 64.011719 C 248.679688 63.28125 248.699219 62.417969 248.699219 61.539062 C 248.699219 49.894531 246.824219 38.664062 243.375 28.179688 L 243.582031 28.929688 Z M 299.679688 53.136719 C 299.304688 53.136719 298.554688 53.53125 298.21875 53.53125 C 297.882812 53.53125 292.800781 54.9375 284.832031 57.46875 C 276.898438 34.351562 262.78125 13.03125 237.804688 13.03125 L 235.648438 13.03125 C 230.324219 5.550781 221.886719 0.5625 212.269531 0 L 212.195312 0 C 153.957031 0 126.132812 72.695312 117.414062 109.613281 C 95.023438 116.457031 78.730469 121.539062 76.914062 122.25 C 64.257812 126.242188 63.898438 126.601562 62.4375 138.5625 C 61.03125 147.226562 28.125 402.242188 28.125 402.242188 L 282.394531 450 L 299.773438 53.136719 Z M 299.679688 53.136719 " fill-opacity="1" fill-rule="nonzero"/></svg>