<svg xmlns="http://www.w3.org/2000/svg" xmlns:xlink="http://www.w3.org/1999/xlink" width="600" zoomAndPan="magnify" viewBox="0 0 450 449.999984" height="600" preserveAspectRatio="xMidYMid meet" version="1.0"><path fill="#0a0a0a" d="M 408.054688 90.527344 L 41.765625 90.527344 C 18.582031 90.527344 -0.179688 109.476562 0 132.472656 L 0 272.292969 C 0 295.472656 18.769531 314.238281 41.949219 314.238281 L 215.433594 314.238281 L 294.726562 358.390625 L 276.699219 314.238281 L 408.054688 314.238281 C 431.234375 314.238281 450 295.472656 450 272.292969 L 450 132.472656 C 450 109.292969 431.234375 90.527344 408.054688 90.527344 Z M 34.039062 122.90625 C 28.886719 123.273438 25.023438 125.113281 22.449219 128.609375 C 19.871094 131.921875 18.953125 136.152344 19.503906 140.9375 C 30.359375 209.925781 40.476562 256.472656 49.859375 280.570312 C 53.539062 289.402344 57.769531 293.632812 62.738281 293.265625 C 70.464844 292.714844 79.664062 282.042969 90.519531 261.253906 C 96.222656 249.480469 105.050781 231.820312 117.011719 208.269531 C 126.945312 243.039062 140.558594 269.164062 157.667969 286.640625 C 162.453125 291.609375 167.417969 293.816406 172.203125 293.449219 C 176.433594 293.082031 179.746094 290.875 181.953125 286.824219 C 183.792969 283.332031 184.527344 279.28125 184.160156 274.683594 C 183.054688 257.941406 184.710938 234.578125 189.3125 204.589844 C 194.09375 173.683594 199.980469 151.421875 207.15625 138.175781 C 208.628906 135.417969 209.179688 132.65625 208.996094 129.34375 C 208.628906 125.113281 206.789062 121.617188 203.292969 118.859375 C 199.796875 116.097656 195.933594 114.8125 191.703125 115.179688 C 186.367188 115.546875 182.320312 118.125 179.5625 123.273438 C 168.15625 144.0625 160.058594 177.730469 155.277344 224.460938 C 148.285156 206.796875 142.398438 186.007812 137.796875 161.539062 C 135.777344 150.6875 130.808594 145.535156 122.714844 146.085938 C 117.195312 146.453125 112.59375 150.132812 108.914062 157.125 L 68.625 233.84375 C 62.003906 207.167969 55.746094 174.601562 50.042969 136.152344 C 48.757812 126.585938 43.421875 122.171875 34.039062 122.90625 Z M 388.554688 136.152344 C 401.617188 138.914062 411.367188 145.902344 417.988281 157.492188 C 423.878906 167.429688 426.820312 179.386719 426.820312 193.738281 C 426.820312 212.683594 422.039062 229.980469 412.46875 245.800781 C 401.433594 264.199219 387.082031 273.398438 369.238281 273.398438 C 366.109375 273.398438 362.796875 273.027344 359.300781 272.292969 C 346.242188 269.535156 336.488281 262.542969 329.867188 250.953125 C 323.980469 240.832031 321.035156 228.691406 321.035156 214.523438 C 321.035156 195.578125 325.820312 178.28125 335.386719 162.644531 C 346.609375 144.246094 360.957031 135.050781 378.621094 135.050781 C 381.746094 135.050781 385.058594 135.417969 388.554688 136.152344 Z M 380.828125 235.683594 C 387.632812 229.609375 392.234375 220.597656 394.808594 208.453125 C 395.546875 204.222656 396.097656 199.625 396.097656 194.839844 C 396.097656 189.503906 394.992188 183.800781 392.785156 178.097656 C 390.027344 170.925781 386.347656 167.0625 381.929688 166.140625 C 375.308594 164.851562 368.867188 168.53125 362.796875 177.546875 C 357.832031 184.539062 354.703125 191.898438 353.046875 199.441406 C 352.125 203.671875 351.757812 208.269531 351.757812 212.871094 C 351.757812 218.203125 352.863281 223.90625 355.070312 229.609375 C 357.832031 236.785156 361.507812 240.648438 365.925781 241.570312 C 370.523438 242.488281 375.492188 240.464844 380.828125 235.683594 Z M 302.636719 157.492188 C 296.015625 145.902344 286.082031 138.914062 273.203125 136.152344 C 269.707031 135.417969 266.394531 135.050781 263.265625 135.050781 C 245.605469 135.050781 231.257812 144.246094 220.035156 162.644531 C 210.46875 178.28125 205.683594 195.578125 205.683594 214.523438 C 205.683594 228.691406 208.628906 240.832031 214.515625 250.953125 C 221.136719 262.542969 230.890625 269.535156 243.949219 272.292969 C 247.445312 273.027344 250.757812 273.398438 253.886719 273.398438 C 271.730469 273.398438 286.082031 264.199219 297.117188 245.800781 C 306.6875 229.980469 311.46875 212.683594 311.46875 193.738281 C 311.46875 179.386719 308.523438 167.429688 302.636719 157.492188 Z M 279.457031 208.453125 C 276.882812 220.597656 272.28125 229.609375 265.476562 235.683594 C 260.140625 240.464844 255.171875 242.488281 250.574219 241.570312 C 246.160156 240.648438 242.480469 236.785156 239.71875 229.609375 C 237.511719 223.90625 236.40625 218.203125 236.40625 212.871094 C 236.40625 208.269531 236.777344 203.671875 237.695312 199.441406 C 239.351562 191.898438 242.480469 184.539062 247.445312 177.546875 C 253.519531 168.53125 259.957031 164.851562 266.578125 166.140625 C 270.996094 167.0625 274.675781 170.925781 277.433594 178.097656 C 279.640625 183.800781 280.746094 189.503906 280.746094 194.839844 C 280.746094 199.625 280.378906 204.222656 279.457031 208.453125 Z M 279.457031 208.453125 " fill-opacity="1" fill-rule="evenodd"/></svg>