<svg xmlns="http://www.w3.org/2000/svg" xmlns:xlink="http://www.w3.org/1999/xlink" width="600" zoomAndPan="magnify" viewBox="0 0 450 449.999984" height="600" preserveAspectRatio="xMidYMid meet" version="1.0"><path fill="#000000" d="M 42.710938 224.996094 C 42.699219 294.847656 82.601562 358.566406 145.453125 389.050781 L 58.492188 150.808594 C 48.066406 174.152344 42.691406 199.429688 42.710938 224.996094 Z M 228.203125 240.941406 L 173.5 399.867188 C 210.226562 410.679688 249.421875 409.664062 285.539062 396.957031 C 285.03125 396.160156 284.59375 395.320312 284.230469 394.445312 Z M 348.0625 215.800781 C 347.820312 197.972656 342.617188 180.566406 333.035156 165.53125 C 323.238281 153.203125 317.039062 138.40625 315.128906 122.773438 C 314.6875 105.402344 328.371094 90.941406 345.738281 90.421875 C 346.550781 90.421875 347.316406 90.519531 348.101562 90.570312 C 273.878906 22.582031 158.59375 27.636719 90.609375 101.855469 C 84.03125 109.039062 78.039062 116.734375 72.691406 124.871094 C 76.96875 125.007812 81.003906 125.09375 84.421875 125.09375 C 103.484375 125.09375 133.007812 122.773438 133.007812 122.773438 C 137.164062 122.53125 140.726562 125.707031 140.96875 129.863281 C 141.199219 133.902344 138.199219 137.40625 134.171875 137.796875 C 134.171875 137.796875 124.292969 138.953125 113.3125 139.527344 L 179.691406 336.984375 L 219.589844 217.339844 L 191.1875 139.53125 C 181.367188 138.953125 172.070312 137.796875 172.070312 137.796875 C 167.929688 137.398438 164.894531 133.714844 165.292969 129.574219 C 165.683594 125.542969 169.1875 122.539062 173.230469 122.773438 C 173.230469 122.773438 203.328125 125.09375 221.234375 125.09375 C 240.300781 125.09375 269.828125 122.773438 269.828125 122.773438 C 273.980469 122.53125 277.546875 125.703125 277.789062 129.855469 C 278.027344 133.902344 275.023438 137.410156 270.988281 137.796875 C 270.988281 137.796875 261.101562 138.953125 250.128906 139.53125 L 316.003906 335.480469 L 334.808594 275.890625 C 342.152344 256.621094 346.617188 236.375 348.0625 215.800781 Z M 386.191406 156.289062 C 385.875 178.746094 381.164062 200.929688 372.324219 221.578125 L 316.648438 382.554688 C 402.042969 332.882812 432.335938 224.234375 384.964844 137.546875 C 385.792969 143.757812 386.203125 150.019531 386.191406 156.289062 Z M 225 6.253906 C 104.1875 6.253906 6.25 104.191406 6.25 225.003906 C 6.25 345.816406 104.1875 443.753906 225 443.753906 C 345.8125 443.753906 443.75 345.816406 443.75 225.003906 C 443.75 104.191406 345.8125 6.253906 225 6.253906 Z M 305.035156 414.472656 C 241.019531 441.5625 167.640625 434.433594 110.042969 395.519531 C 76.976562 373.195312 51.097656 341.765625 35.527344 305.035156 C 8.429688 241.019531 15.5625 167.640625 54.484375 110.042969 C 76.804688 76.976562 108.234375 51.09375 144.964844 35.53125 C 208.980469 8.441406 282.359375 15.570312 339.957031 54.484375 C 373.023438 76.808594 398.902344 108.238281 414.472656 144.96875 C 441.570312 208.984375 434.4375 282.363281 395.515625 339.960938 C 373.195312 373.027344 341.765625 398.910156 305.035156 414.472656 Z M 305.035156 414.472656 " fill-opacity="1" fill-rule="nonzero"/></svg>