<svg xmlns="http://www.w3.org/2000/svg" xmlns:xlink="http://www.w3.org/1999/xlink" width="261" zoomAndPan="magnify" viewBox="0 0 195.75 74.999997" height="100" preserveAspectRatio="xMidYMid meet" version="1.0"><defs><clipPath id="f04b087989"><path d="M 16 65 L 25 65 L 25 74.953125 L 16 74.953125 Z M 16 65 " clip-rule="nonzero"/></clipPath><clipPath id="16d0aac44b"><path d="M 74 64 L 83 64 L 83 74.953125 L 74 74.953125 Z M 74 64 " clip-rule="nonzero"/></clipPath><clipPath id="e316a544e9"><path d="M 103 0.046875 L 108 0.046875 L 108 23 L 103 23 Z M 103 0.046875 " clip-rule="nonzero"/></clipPath><clipPath id="b17e687020"><path d="M 47 0.046875 L 102 0.046875 L 102 29 L 47 29 Z M 47 0.046875 " clip-rule="nonzero"/></clipPath><clipPath id="a5e6da4f76"><path d="M 127 0.046875 L 195 0.046875 L 195 29 L 127 29 Z M 127 0.046875 " clip-rule="nonzero"/></clipPath><clipPath id="d86c420808"><path d="M 138 15 L 185 15 L 185 27 L 138 27 Z M 138 15 " clip-rule="nonzero"/></clipPath><clipPath id="4c7776697d"><path d="M 184.160156 26.03125 L 149.730469 26.03125 C 148.675781 26.03125 147.664062 25.59375 146.945312 24.820312 L 138.46875 15.765625 L 172.90625 15.765625 C 173.953125 15.765625 174.972656 16.203125 175.691406 16.972656 Z M 184.160156 26.03125 " clip-rule="nonzero"/></clipPath><linearGradient x1="321.389997" gradientTransform="matrix(0.430485, 0, 0, 0.430485, 0.116634, 0.0478291)" y1="36.507999" x2="427.529982" gradientUnits="userSpaceOnUse" y2="36.507999" id="5656524802"><stop stop-opacity="1" stop-color="rgb(85.099792%, 85.099792%, 85.099792%)" offset="0"/><stop stop-opacity="1" stop-color="rgb(84.896851%, 84.896851%, 84.896851%)" offset="0.00390625"/><stop stop-opacity="1" stop-color="rgb(84.693909%, 84.693909%, 84.693909%)" offset="0.0078125"/><stop stop-opacity="1" stop-color="rgb(84.489441%, 84.489441%, 84.489441%)" offset="0.0117187"/><stop stop-opacity="1" stop-color="rgb(84.286499%, 84.286499%, 84.286499%)" offset="0.015625"/><stop stop-opacity="1" stop-color="rgb(84.082031%, 84.082031%, 84.082031%)" offset="0.0195312"/><stop stop-opacity="1" stop-color="rgb(83.879089%, 83.879089%, 83.879089%)" offset="0.0234375"/><stop stop-opacity="1" stop-color="rgb(83.674622%, 83.674622%, 83.674622%)" offset="0.0273437"/><stop stop-opacity="1" stop-color="rgb(83.47168%, 83.47168%, 83.47168%)" offset="0.03125"/><stop stop-opacity="1" stop-color="rgb(83.267212%, 83.267212%, 83.267212%)" offset="0.0351562"/><stop stop-opacity="1" stop-color="rgb(83.06427%, 83.06427%, 83.06427%)" offset="0.0390625"/><stop stop-opacity="1" stop-color="rgb(82.859802%, 82.859802%, 82.859802%)" offset="0.0429688"/><stop stop-opacity="1" stop-color="rgb(82.655334%, 82.655334%, 82.655334%)" offset="0.046875"/><stop stop-opacity="1" stop-color="rgb(82.450867%, 82.450867%, 82.450867%)" offset="0.0507812"/><stop stop-opacity="1" stop-color="rgb(82.247925%, 82.247925%, 82.247925%)" offset="0.0546875"/><stop stop-opacity="1" stop-color="rgb(82.043457%, 82.043457%, 82.043457%)" offset="0.0585938"/><stop stop-opacity="1" stop-color="rgb(81.840515%, 81.840515%, 81.840515%)" offset="0.0625"/><stop stop-opacity="1" stop-color="rgb(81.636047%, 81.636047%, 81.636047%)" offset="0.0664062"/><stop stop-opacity="1" stop-color="rgb(81.433105%, 81.433105%, 81.433105%)" offset="0.0703125"/><stop stop-opacity="1" stop-color="rgb(81.228638%, 81.228638%, 81.228638%)" offset="0.0742188"/><stop stop-opacity="1" stop-color="rgb(81.025696%, 81.025696%, 81.025696%)" offset="0.078125"/><stop stop-opacity="1" stop-color="rgb(80.821228%, 80.821228%, 80.821228%)" offset="0.0820312"/><stop stop-opacity="1" stop-color="rgb(80.618286%, 80.618286%, 80.618286%)" offset="0.0859375"/><stop stop-opacity="1" stop-color="rgb(80.413818%, 80.413818%, 80.413818%)" offset="0.0898437"/><stop stop-opacity="1" stop-color="rgb(80.210876%, 80.210876%, 80.210876%)" offset="0.09375"/><stop stop-opacity="1" stop-color="rgb(80.006409%, 80.006409%, 80.006409%)" offset="0.0976562"/><stop stop-opacity="1" stop-color="rgb(79.803467%, 79.803467%, 79.803467%)" offset="0.101562"/><stop stop-opacity="1" stop-color="rgb(79.598999%, 79.598999%, 79.598999%)" offset="0.105469"/><stop stop-opacity="1" stop-color="rgb(79.396057%, 79.396057%, 79.396057%)" offset="0.109375"/><stop stop-opacity="1" stop-color="rgb(79.191589%, 79.191589%, 79.191589%)" offset="0.113281"/><stop stop-opacity="1" stop-color="rgb(78.988647%, 78.988647%, 78.988647%)" offset="0.117187"/><stop stop-opacity="1" stop-color="rgb(78.78418%, 78.78418%, 78.78418%)" offset="0.121094"/><stop stop-opacity="1" stop-color="rgb(78.581238%, 78.581238%, 78.581238%)" offset="0.125"/><stop stop-opacity="1" stop-color="rgb(78.37677%, 78.37677%, 78.37677%)" offset="0.128906"/><stop stop-opacity="1" stop-color="rgb(78.173828%, 78.173828%, 78.173828%)" offset="0.132812"/><stop stop-opacity="1" stop-color="rgb(77.96936%, 77.96936%, 77.96936%)" offset="0.136719"/><stop stop-opacity="1" stop-color="rgb(77.766418%, 77.766418%, 77.766418%)" offset="0.140625"/><stop stop-opacity="1" stop-color="rgb(77.561951%, 77.561951%, 77.561951%)" offset="0.144531"/><stop stop-opacity="1" stop-color="rgb(77.359009%, 77.359009%, 77.359009%)" offset="0.148437"/><stop stop-opacity="1" stop-color="rgb(77.154541%, 77.154541%, 77.154541%)" offset="0.152344"/><stop stop-opacity="1" stop-color="rgb(76.950073%, 76.950073%, 76.950073%)" offset="0.15625"/><stop stop-opacity="1" stop-color="rgb(76.745605%, 76.745605%, 76.745605%)" offset="0.160156"/><stop stop-opacity="1" stop-color="rgb(76.542664%, 76.542664%, 76.542664%)" offset="0.164062"/><stop stop-opacity="1" stop-color="rgb(76.338196%, 76.338196%, 76.338196%)" offset="0.167969"/><stop stop-opacity="1" stop-color="rgb(76.135254%, 76.135254%, 76.135254%)" offset="0.171875"/><stop stop-opacity="1" stop-color="rgb(75.930786%, 75.930786%, 75.930786%)" offset="0.175781"/><stop stop-opacity="1" stop-color="rgb(75.727844%, 75.727844%, 75.727844%)" offset="0.179687"/><stop stop-opacity="1" stop-color="rgb(75.523376%, 75.523376%, 75.523376%)" offset="0.183594"/><stop stop-opacity="1" stop-color="rgb(75.320435%, 75.320435%, 75.320435%)" offset="0.1875"/><stop stop-opacity="1" stop-color="rgb(75.115967%, 75.115967%, 75.115967%)" offset="0.191406"/><stop stop-opacity="1" stop-color="rgb(74.913025%, 74.913025%, 74.913025%)" offset="0.195312"/><stop stop-opacity="1" stop-color="rgb(74.708557%, 74.708557%, 74.708557%)" offset="0.199219"/><stop stop-opacity="1" stop-color="rgb(74.505615%, 74.505615%, 74.505615%)" offset="0.203125"/><stop stop-opacity="1" stop-color="rgb(74.301147%, 74.301147%, 74.301147%)" offset="0.207031"/><stop stop-opacity="1" stop-color="rgb(74.098206%, 74.098206%, 74.098206%)" offset="0.210937"/><stop stop-opacity="1" stop-color="rgb(73.893738%, 73.893738%, 73.893738%)" offset="0.214844"/><stop stop-opacity="1" stop-color="rgb(73.690796%, 73.690796%, 73.690796%)" offset="0.21875"/><stop stop-opacity="1" stop-color="rgb(73.486328%, 73.486328%, 73.486328%)" offset="0.222656"/><stop stop-opacity="1" stop-color="rgb(73.283386%, 73.283386%, 73.283386%)" offset="0.226562"/><stop stop-opacity="1" stop-color="rgb(73.078918%, 73.078918%, 73.078918%)" offset="0.230469"/><stop stop-opacity="1" stop-color="rgb(72.875977%, 72.875977%, 72.875977%)" offset="0.234375"/><stop stop-opacity="1" stop-color="rgb(72.671509%, 72.671509%, 72.671509%)" offset="0.238281"/><stop stop-opacity="1" stop-color="rgb(72.468567%, 72.468567%, 72.468567%)" offset="0.242187"/><stop stop-opacity="1" stop-color="rgb(72.264099%, 72.264099%, 72.264099%)" offset="0.246094"/><stop stop-opacity="1" stop-color="rgb(72.061157%, 72.061157%, 72.061157%)" offset="0.25"/><stop stop-opacity="1" stop-color="rgb(71.856689%, 71.856689%, 71.856689%)" offset="0.253906"/><stop stop-opacity="1" stop-color="rgb(71.652222%, 71.652222%, 71.652222%)" offset="0.257812"/><stop stop-opacity="1" stop-color="rgb(71.447754%, 71.447754%, 71.447754%)" offset="0.261719"/><stop stop-opacity="1" stop-color="rgb(71.244812%, 71.244812%, 71.244812%)" offset="0.265625"/><stop stop-opacity="1" stop-color="rgb(71.040344%, 71.040344%, 71.040344%)" offset="0.269531"/><stop stop-opacity="1" stop-color="rgb(70.837402%, 70.837402%, 70.837402%)" offset="0.273438"/><stop stop-opacity="1" stop-color="rgb(70.632935%, 70.632935%, 70.632935%)" offset="0.277344"/><stop stop-opacity="1" stop-color="rgb(70.429993%, 70.429993%, 70.429993%)" offset="0.28125"/><stop stop-opacity="1" stop-color="rgb(70.225525%, 70.225525%, 70.225525%)" offset="0.285156"/><stop stop-opacity="1" stop-color="rgb(70.022583%, 70.022583%, 70.022583%)" offset="0.289063"/><stop stop-opacity="1" stop-color="rgb(69.818115%, 69.818115%, 69.818115%)" offset="0.292969"/><stop stop-opacity="1" stop-color="rgb(69.615173%, 69.615173%, 69.615173%)" offset="0.296875"/><stop stop-opacity="1" stop-color="rgb(69.410706%, 69.410706%, 69.410706%)" offset="0.300781"/><stop stop-opacity="1" stop-color="rgb(69.207764%, 69.207764%, 69.207764%)" offset="0.304688"/><stop stop-opacity="1" stop-color="rgb(69.003296%, 69.003296%, 69.003296%)" offset="0.308594"/><stop stop-opacity="1" stop-color="rgb(68.800354%, 68.800354%, 68.800354%)" offset="0.3125"/><stop stop-opacity="1" stop-color="rgb(68.595886%, 68.595886%, 68.595886%)" offset="0.316406"/><stop stop-opacity="1" stop-color="rgb(68.392944%, 68.392944%, 68.392944%)" offset="0.320312"/><stop stop-opacity="1" stop-color="rgb(68.188477%, 68.188477%, 68.188477%)" offset="0.324219"/><stop stop-opacity="1" stop-color="rgb(67.985535%, 67.985535%, 67.985535%)" offset="0.328125"/><stop stop-opacity="1" stop-color="rgb(67.781067%, 67.781067%, 67.781067%)" offset="0.332031"/><stop stop-opacity="1" stop-color="rgb(67.578125%, 67.578125%, 67.578125%)" offset="0.335938"/><stop stop-opacity="1" stop-color="rgb(67.373657%, 67.373657%, 67.373657%)" offset="0.339844"/><stop stop-opacity="1" stop-color="rgb(67.170715%, 67.170715%, 67.170715%)" offset="0.34375"/><stop stop-opacity="1" stop-color="rgb(66.966248%, 66.966248%, 66.966248%)" offset="0.347656"/><stop stop-opacity="1" stop-color="rgb(66.763306%, 66.763306%, 66.763306%)" offset="0.351562"/><stop stop-opacity="1" stop-color="rgb(66.558838%, 66.558838%, 66.558838%)" offset="0.355469"/><stop stop-opacity="1" stop-color="rgb(66.355896%, 66.355896%, 66.355896%)" offset="0.359375"/><stop stop-opacity="1" stop-color="rgb(66.151428%, 66.151428%, 66.151428%)" offset="0.363281"/><stop stop-opacity="1" stop-color="rgb(65.94696%, 65.94696%, 65.94696%)" offset="0.367188"/><stop stop-opacity="1" stop-color="rgb(65.742493%, 65.742493%, 65.742493%)" offset="0.371094"/><stop stop-opacity="1" stop-color="rgb(65.539551%, 65.539551%, 65.539551%)" offset="0.375"/><stop stop-opacity="1" stop-color="rgb(65.335083%, 65.335083%, 65.335083%)" offset="0.378906"/><stop stop-opacity="1" stop-color="rgb(65.132141%, 65.132141%, 65.132141%)" offset="0.382812"/><stop stop-opacity="1" stop-color="rgb(64.927673%, 64.927673%, 64.927673%)" offset="0.386719"/><stop stop-opacity="1" stop-color="rgb(64.724731%, 64.724731%, 64.724731%)" offset="0.390625"/><stop stop-opacity="1" stop-color="rgb(64.520264%, 64.520264%, 64.520264%)" offset="0.394531"/><stop stop-opacity="1" stop-color="rgb(64.317322%, 64.317322%, 64.317322%)" offset="0.398438"/><stop stop-opacity="1" stop-color="rgb(64.112854%, 64.112854%, 64.112854%)" offset="0.402344"/><stop stop-opacity="1" stop-color="rgb(63.909912%, 63.909912%, 63.909912%)" offset="0.40625"/><stop stop-opacity="1" stop-color="rgb(63.705444%, 63.705444%, 63.705444%)" offset="0.410156"/><stop stop-opacity="1" stop-color="rgb(63.502502%, 63.502502%, 63.502502%)" offset="0.414062"/><stop stop-opacity="1" stop-color="rgb(63.298035%, 63.298035%, 63.298035%)" offset="0.417969"/><stop stop-opacity="1" stop-color="rgb(63.095093%, 63.095093%, 63.095093%)" offset="0.421875"/><stop stop-opacity="1" stop-color="rgb(62.890625%, 62.890625%, 62.890625%)" offset="0.425781"/><stop stop-opacity="1" stop-color="rgb(62.687683%, 62.687683%, 62.687683%)" offset="0.429688"/><stop stop-opacity="1" stop-color="rgb(62.483215%, 62.483215%, 62.483215%)" offset="0.433594"/><stop stop-opacity="1" stop-color="rgb(62.280273%, 62.280273%, 62.280273%)" offset="0.4375"/><stop stop-opacity="1" stop-color="rgb(62.075806%, 62.075806%, 62.075806%)" offset="0.441406"/><stop stop-opacity="1" stop-color="rgb(61.872864%, 61.872864%, 61.872864%)" offset="0.445312"/><stop stop-opacity="1" stop-color="rgb(61.668396%, 61.668396%, 61.668396%)" offset="0.449219"/><stop stop-opacity="1" stop-color="rgb(61.465454%, 61.465454%, 61.465454%)" offset="0.453125"/><stop stop-opacity="1" stop-color="rgb(61.260986%, 61.260986%, 61.260986%)" offset="0.457031"/><stop stop-opacity="1" stop-color="rgb(61.058044%, 61.058044%, 61.058044%)" offset="0.460937"/><stop stop-opacity="1" stop-color="rgb(60.853577%, 60.853577%, 60.853577%)" offset="0.464844"/><stop stop-opacity="1" stop-color="rgb(60.649109%, 60.649109%, 60.649109%)" offset="0.46875"/><stop stop-opacity="1" stop-color="rgb(60.444641%, 60.444641%, 60.444641%)" offset="0.472656"/><stop stop-opacity="1" stop-color="rgb(60.241699%, 60.241699%, 60.241699%)" offset="0.476562"/><stop stop-opacity="1" stop-color="rgb(60.037231%, 60.037231%, 60.037231%)" offset="0.480469"/><stop stop-opacity="1" stop-color="rgb(59.83429%, 59.83429%, 59.83429%)" offset="0.484375"/><stop stop-opacity="1" stop-color="rgb(59.629822%, 59.629822%, 59.629822%)" offset="0.488281"/><stop stop-opacity="1" stop-color="rgb(59.42688%, 59.42688%, 59.42688%)" offset="0.492188"/><stop stop-opacity="1" stop-color="rgb(59.222412%, 59.222412%, 59.222412%)" offset="0.496094"/><stop stop-opacity="1" stop-color="rgb(59.01947%, 59.01947%, 59.01947%)" offset="0.5"/><stop stop-opacity="1" stop-color="rgb(58.815002%, 58.815002%, 58.815002%)" offset="0.503906"/><stop stop-opacity="1" stop-color="rgb(58.612061%, 58.612061%, 58.612061%)" offset="0.507812"/><stop stop-opacity="1" stop-color="rgb(58.407593%, 58.407593%, 58.407593%)" offset="0.511719"/><stop stop-opacity="1" stop-color="rgb(58.204651%, 58.204651%, 58.204651%)" offset="0.515625"/><stop stop-opacity="1" stop-color="rgb(58.000183%, 58.000183%, 58.000183%)" offset="0.519531"/><stop stop-opacity="1" stop-color="rgb(57.797241%, 57.797241%, 57.797241%)" offset="0.523438"/><stop stop-opacity="1" stop-color="rgb(57.592773%, 57.592773%, 57.592773%)" offset="0.527344"/><stop stop-opacity="1" stop-color="rgb(57.389832%, 57.389832%, 57.389832%)" offset="0.53125"/><stop stop-opacity="1" stop-color="rgb(57.185364%, 57.185364%, 57.185364%)" offset="0.535156"/><stop stop-opacity="1" stop-color="rgb(56.982422%, 56.982422%, 56.982422%)" offset="0.539062"/><stop stop-opacity="1" stop-color="rgb(56.777954%, 56.777954%, 56.777954%)" offset="0.542969"/><stop stop-opacity="1" stop-color="rgb(56.575012%, 56.575012%, 56.575012%)" offset="0.546875"/><stop stop-opacity="1" stop-color="rgb(56.370544%, 56.370544%, 56.370544%)" offset="0.550781"/><stop stop-opacity="1" stop-color="rgb(56.167603%, 56.167603%, 56.167603%)" offset="0.554688"/><stop stop-opacity="1" stop-color="rgb(55.963135%, 55.963135%, 55.963135%)" offset="0.558594"/><stop stop-opacity="1" stop-color="rgb(55.760193%, 55.760193%, 55.760193%)" offset="0.5625"/><stop stop-opacity="1" stop-color="rgb(55.555725%, 55.555725%, 55.555725%)" offset="0.566406"/><stop stop-opacity="1" stop-color="rgb(55.352783%, 55.352783%, 55.352783%)" offset="0.570313"/><stop stop-opacity="1" stop-color="rgb(55.148315%, 55.148315%, 55.148315%)" offset="0.574219"/><stop stop-opacity="1" stop-color="rgb(54.943848%, 54.943848%, 54.943848%)" offset="0.578125"/><stop stop-opacity="1" stop-color="rgb(54.73938%, 54.73938%, 54.73938%)" offset="0.582031"/><stop stop-opacity="1" stop-color="rgb(54.536438%, 54.536438%, 54.536438%)" offset="0.585938"/><stop stop-opacity="1" stop-color="rgb(54.33197%, 54.33197%, 54.33197%)" offset="0.589844"/><stop stop-opacity="1" stop-color="rgb(54.129028%, 54.129028%, 54.129028%)" offset="0.59375"/><stop stop-opacity="1" stop-color="rgb(53.924561%, 53.924561%, 53.924561%)" offset="0.597656"/><stop stop-opacity="1" stop-color="rgb(53.721619%, 53.721619%, 53.721619%)" offset="0.601562"/><stop stop-opacity="1" stop-color="rgb(53.517151%, 53.517151%, 53.517151%)" offset="0.605469"/><stop stop-opacity="1" stop-color="rgb(53.314209%, 53.314209%, 53.314209%)" offset="0.609375"/><stop stop-opacity="1" stop-color="rgb(53.109741%, 53.109741%, 53.109741%)" offset="0.613281"/><stop stop-opacity="1" stop-color="rgb(52.906799%, 52.906799%, 52.906799%)" offset="0.617188"/><stop stop-opacity="1" stop-color="rgb(52.702332%, 52.702332%, 52.702332%)" offset="0.621094"/><stop stop-opacity="1" stop-color="rgb(52.49939%, 52.49939%, 52.49939%)" offset="0.625"/><stop stop-opacity="1" stop-color="rgb(52.294922%, 52.294922%, 52.294922%)" offset="0.628906"/><stop stop-opacity="1" stop-color="rgb(52.09198%, 52.09198%, 52.09198%)" offset="0.632812"/><stop stop-opacity="1" stop-color="rgb(51.887512%, 51.887512%, 51.887512%)" offset="0.636719"/><stop stop-opacity="1" stop-color="rgb(51.68457%, 51.68457%, 51.68457%)" offset="0.640625"/><stop stop-opacity="1" stop-color="rgb(51.480103%, 51.480103%, 51.480103%)" offset="0.644531"/><stop stop-opacity="1" stop-color="rgb(51.277161%, 51.277161%, 51.277161%)" offset="0.648437"/><stop stop-opacity="1" stop-color="rgb(51.072693%, 51.072693%, 51.072693%)" offset="0.652344"/><stop stop-opacity="1" stop-color="rgb(50.869751%, 50.869751%, 50.869751%)" offset="0.65625"/><stop stop-opacity="1" stop-color="rgb(50.665283%, 50.665283%, 50.665283%)" offset="0.660156"/><stop stop-opacity="1" stop-color="rgb(50.462341%, 50.462341%, 50.462341%)" offset="0.664063"/><stop stop-opacity="1" stop-color="rgb(50.257874%, 50.257874%, 50.257874%)" offset="0.667969"/><stop stop-opacity="1" stop-color="rgb(50.054932%, 50.054932%, 50.054932%)" offset="0.671875"/><stop stop-opacity="1" stop-color="rgb(49.850464%, 49.850464%, 49.850464%)" offset="0.675781"/><stop stop-opacity="1" stop-color="rgb(49.645996%, 49.645996%, 49.645996%)" offset="0.679688"/><stop stop-opacity="1" stop-color="rgb(49.441528%, 49.441528%, 49.441528%)" offset="0.683594"/><stop stop-opacity="1" stop-color="rgb(49.238586%, 49.238586%, 49.238586%)" offset="0.6875"/><stop stop-opacity="1" stop-color="rgb(49.034119%, 49.034119%, 49.034119%)" offset="0.691406"/><stop stop-opacity="1" stop-color="rgb(48.831177%, 48.831177%, 48.831177%)" offset="0.695312"/><stop stop-opacity="1" stop-color="rgb(48.626709%, 48.626709%, 48.626709%)" offset="0.699219"/><stop stop-opacity="1" stop-color="rgb(48.423767%, 48.423767%, 48.423767%)" offset="0.703125"/><stop stop-opacity="1" stop-color="rgb(48.219299%, 48.219299%, 48.219299%)" offset="0.707031"/><stop stop-opacity="1" stop-color="rgb(48.016357%, 48.016357%, 48.016357%)" offset="0.710938"/><stop stop-opacity="1" stop-color="rgb(47.81189%, 47.81189%, 47.81189%)" offset="0.714844"/><stop stop-opacity="1" stop-color="rgb(47.608948%, 47.608948%, 47.608948%)" offset="0.71875"/><stop stop-opacity="1" stop-color="rgb(47.40448%, 47.40448%, 47.40448%)" offset="0.722656"/><stop stop-opacity="1" stop-color="rgb(47.201538%, 47.201538%, 47.201538%)" offset="0.726562"/><stop stop-opacity="1" stop-color="rgb(46.99707%, 46.99707%, 46.99707%)" offset="0.730469"/><stop stop-opacity="1" stop-color="rgb(46.794128%, 46.794128%, 46.794128%)" offset="0.734375"/><stop stop-opacity="1" stop-color="rgb(46.589661%, 46.589661%, 46.589661%)" offset="0.738281"/><stop stop-opacity="1" stop-color="rgb(46.386719%, 46.386719%, 46.386719%)" offset="0.742187"/><stop stop-opacity="1" stop-color="rgb(46.182251%, 46.182251%, 46.182251%)" offset="0.746094"/><stop stop-opacity="1" stop-color="rgb(45.979309%, 45.979309%, 45.979309%)" offset="0.75"/><stop stop-opacity="1" stop-color="rgb(45.774841%, 45.774841%, 45.774841%)" offset="0.753906"/><stop stop-opacity="1" stop-color="rgb(45.571899%, 45.571899%, 45.571899%)" offset="0.757813"/><stop stop-opacity="1" stop-color="rgb(45.367432%, 45.367432%, 45.367432%)" offset="0.761719"/><stop stop-opacity="1" stop-color="rgb(45.16449%, 45.16449%, 45.16449%)" offset="0.765625"/><stop stop-opacity="1" stop-color="rgb(44.960022%, 44.960022%, 44.960022%)" offset="0.769531"/><stop stop-opacity="1" stop-color="rgb(44.75708%, 44.75708%, 44.75708%)" offset="0.773438"/><stop stop-opacity="1" stop-color="rgb(44.552612%, 44.552612%, 44.552612%)" offset="0.777344"/><stop stop-opacity="1" stop-color="rgb(44.34967%, 44.34967%, 44.34967%)" offset="0.78125"/><stop stop-opacity="1" stop-color="rgb(44.145203%, 44.145203%, 44.145203%)" offset="0.785156"/><stop stop-opacity="1" stop-color="rgb(43.940735%, 43.940735%, 43.940735%)" offset="0.789062"/><stop stop-opacity="1" stop-color="rgb(43.736267%, 43.736267%, 43.736267%)" offset="0.792969"/><stop stop-opacity="1" stop-color="rgb(43.533325%, 43.533325%, 43.533325%)" offset="0.796875"/><stop stop-opacity="1" stop-color="rgb(43.328857%, 43.328857%, 43.328857%)" offset="0.800781"/><stop stop-opacity="1" stop-color="rgb(43.125916%, 43.125916%, 43.125916%)" offset="0.804688"/><stop stop-opacity="1" stop-color="rgb(42.921448%, 42.921448%, 42.921448%)" offset="0.808594"/><stop stop-opacity="1" stop-color="rgb(42.718506%, 42.718506%, 42.718506%)" offset="0.8125"/><stop stop-opacity="1" stop-color="rgb(42.514038%, 42.514038%, 42.514038%)" offset="0.816406"/><stop stop-opacity="1" stop-color="rgb(42.311096%, 42.311096%, 42.311096%)" offset="0.820312"/><stop stop-opacity="1" stop-color="rgb(42.106628%, 42.106628%, 42.106628%)" offset="0.824219"/><stop stop-opacity="1" stop-color="rgb(41.903687%, 41.903687%, 41.903687%)" offset="0.828125"/><stop stop-opacity="1" stop-color="rgb(41.699219%, 41.699219%, 41.699219%)" offset="0.832031"/><stop stop-opacity="1" stop-color="rgb(41.496277%, 41.496277%, 41.496277%)" offset="0.835937"/><stop stop-opacity="1" stop-color="rgb(41.291809%, 41.291809%, 41.291809%)" offset="0.839844"/><stop stop-opacity="1" stop-color="rgb(41.088867%, 41.088867%, 41.088867%)" offset="0.84375"/><stop stop-opacity="1" stop-color="rgb(40.884399%, 40.884399%, 40.884399%)" offset="0.847656"/><stop stop-opacity="1" stop-color="rgb(40.681458%, 40.681458%, 40.681458%)" offset="0.851563"/><stop stop-opacity="1" stop-color="rgb(40.47699%, 40.47699%, 40.47699%)" offset="0.855469"/><stop stop-opacity="1" stop-color="rgb(40.274048%, 40.274048%, 40.274048%)" offset="0.859375"/><stop stop-opacity="1" stop-color="rgb(40.06958%, 40.06958%, 40.06958%)" offset="0.863281"/><stop stop-opacity="1" stop-color="rgb(39.866638%, 39.866638%, 39.866638%)" offset="0.867188"/><stop stop-opacity="1" stop-color="rgb(39.66217%, 39.66217%, 39.66217%)" offset="0.871094"/><stop stop-opacity="1" stop-color="rgb(39.459229%, 39.459229%, 39.459229%)" offset="0.875"/><stop stop-opacity="1" stop-color="rgb(39.254761%, 39.254761%, 39.254761%)" offset="0.878906"/><stop stop-opacity="1" stop-color="rgb(39.051819%, 39.051819%, 39.051819%)" offset="0.882812"/><stop stop-opacity="1" stop-color="rgb(38.847351%, 38.847351%, 38.847351%)" offset="0.886719"/><stop stop-opacity="1" stop-color="rgb(38.642883%, 38.642883%, 38.642883%)" offset="0.890625"/><stop stop-opacity="1" stop-color="rgb(38.438416%, 38.438416%, 38.438416%)" offset="0.894531"/><stop stop-opacity="1" stop-color="rgb(38.235474%, 38.235474%, 38.235474%)" offset="0.898438"/><stop stop-opacity="1" stop-color="rgb(38.031006%, 38.031006%, 38.031006%)" offset="0.902344"/><stop stop-opacity="1" stop-color="rgb(37.828064%, 37.828064%, 37.828064%)" offset="0.90625"/><stop stop-opacity="1" stop-color="rgb(37.623596%, 37.623596%, 37.623596%)" offset="0.910156"/><stop stop-opacity="1" stop-color="rgb(37.420654%, 37.420654%, 37.420654%)" offset="0.914062"/><stop stop-opacity="1" stop-color="rgb(37.216187%, 37.216187%, 37.216187%)" offset="0.917969"/><stop stop-opacity="1" stop-color="rgb(37.013245%, 37.013245%, 37.013245%)" offset="0.921875"/><stop stop-opacity="1" stop-color="rgb(36.808777%, 36.808777%, 36.808777%)" offset="0.925781"/><stop stop-opacity="1" stop-color="rgb(36.605835%, 36.605835%, 36.605835%)" offset="0.929687"/><stop stop-opacity="1" stop-color="rgb(36.401367%, 36.401367%, 36.401367%)" offset="0.933594"/><stop stop-opacity="1" stop-color="rgb(36.198425%, 36.198425%, 36.198425%)" offset="0.9375"/><stop stop-opacity="1" stop-color="rgb(35.993958%, 35.993958%, 35.993958%)" offset="0.941406"/><stop stop-opacity="1" stop-color="rgb(35.791016%, 35.791016%, 35.791016%)" offset="0.945312"/><stop stop-opacity="1" stop-color="rgb(35.586548%, 35.586548%, 35.586548%)" offset="0.949219"/><stop stop-opacity="1" stop-color="rgb(35.383606%, 35.383606%, 35.383606%)" offset="0.953125"/><stop stop-opacity="1" stop-color="rgb(35.179138%, 35.179138%, 35.179138%)" offset="0.957031"/><stop stop-opacity="1" stop-color="rgb(34.976196%, 34.976196%, 34.976196%)" offset="0.960938"/><stop stop-opacity="1" stop-color="rgb(34.771729%, 34.771729%, 34.771729%)" offset="0.964844"/><stop stop-opacity="1" stop-color="rgb(34.568787%, 34.568787%, 34.568787%)" offset="0.96875"/><stop stop-opacity="1" stop-color="rgb(34.364319%, 34.364319%, 34.364319%)" offset="0.972656"/><stop stop-opacity="1" stop-color="rgb(34.161377%, 34.161377%, 34.161377%)" offset="0.976562"/><stop stop-opacity="1" stop-color="rgb(33.956909%, 33.956909%, 33.956909%)" offset="0.980469"/><stop stop-opacity="1" stop-color="rgb(33.753967%, 33.753967%, 33.753967%)" offset="0.984375"/><stop stop-opacity="1" stop-color="rgb(33.5495%, 33.5495%, 33.5495%)" offset="0.988281"/><stop stop-opacity="1" stop-color="rgb(33.346558%, 33.346558%, 33.346558%)" offset="0.992188"/><stop stop-opacity="1" stop-color="rgb(33.14209%, 33.14209%, 33.14209%)" offset="0.996094"/><stop stop-opacity="1" stop-color="rgb(32.939148%, 32.939148%, 32.939148%)" offset="1"/></linearGradient><clipPath id="971b5564f8"><path d="M 138 28 L 185 28 L 185 40 L 138 40 Z M 138 28 " clip-rule="nonzero"/></clipPath><clipPath id="e9b6b9fdbd"><path d="M 184.160156 39.023438 L 149.730469 39.023438 C 148.679688 39.023438 147.664062 38.582031 146.945312 37.8125 L 138.46875 28.753906 L 172.90625 28.753906 C 173.953125 28.753906 174.972656 29.195312 175.691406 29.960938 Z M 184.160156 39.023438 " clip-rule="nonzero"/></clipPath><linearGradient x1="321.389997" gradientTransform="matrix(0.430485, 0, 0, 0.430485, 0.116634, 0.0478291)" y1="66.684998" x2="427.529982" gradientUnits="userSpaceOnUse" y2="66.684998" id="fa86bee269"><stop stop-opacity="1" stop-color="rgb(85.099792%, 85.099792%, 85.099792%)" offset="0"/><stop stop-opacity="1" stop-color="rgb(84.896851%, 84.896851%, 84.896851%)" offset="0.00390625"/><stop stop-opacity="1" stop-color="rgb(84.693909%, 84.693909%, 84.693909%)" offset="0.0078125"/><stop stop-opacity="1" stop-color="rgb(84.489441%, 84.489441%, 84.489441%)" offset="0.0117188"/><stop stop-opacity="1" stop-color="rgb(84.286499%, 84.286499%, 84.286499%)" offset="0.015625"/><stop stop-opacity="1" stop-color="rgb(84.082031%, 84.082031%, 84.082031%)" offset="0.0195313"/><stop stop-opacity="1" stop-color="rgb(83.879089%, 83.879089%, 83.879089%)" offset="0.0234375"/><stop stop-opacity="1" stop-color="rgb(83.674622%, 83.674622%, 83.674622%)" offset="0.0273438"/><stop stop-opacity="1" stop-color="rgb(83.47168%, 83.47168%, 83.47168%)" offset="0.03125"/><stop stop-opacity="1" stop-color="rgb(83.267212%, 83.267212%, 83.267212%)" offset="0.0351562"/><stop stop-opacity="1" stop-color="rgb(83.06427%, 83.06427%, 83.06427%)" offset="0.0390625"/><stop stop-opacity="1" stop-color="rgb(82.859802%, 82.859802%, 82.859802%)" offset="0.0429688"/><stop stop-opacity="1" stop-color="rgb(82.65686%, 82.65686%, 82.65686%)" offset="0.046875"/><stop stop-opacity="1" stop-color="rgb(82.452393%, 82.452393%, 82.452393%)" offset="0.0507813"/><stop stop-opacity="1" stop-color="rgb(82.249451%, 82.249451%, 82.249451%)" offset="0.0546875"/><stop stop-opacity="1" stop-color="rgb(82.044983%, 82.044983%, 82.044983%)" offset="0.0585938"/><stop stop-opacity="1" stop-color="rgb(81.840515%, 81.840515%, 81.840515%)" offset="0.0625"/><stop stop-opacity="1" stop-color="rgb(81.636047%, 81.636047%, 81.636047%)" offset="0.0664062"/><stop stop-opacity="1" stop-color="rgb(81.433105%, 81.433105%, 81.433105%)" offset="0.0703125"/><stop stop-opacity="1" stop-color="rgb(81.228638%, 81.228638%, 81.228638%)" offset="0.0742188"/><stop stop-opacity="1" stop-color="rgb(81.025696%, 81.025696%, 81.025696%)" offset="0.078125"/><stop stop-opacity="1" stop-color="rgb(80.821228%, 80.821228%, 80.821228%)" offset="0.0820313"/><stop stop-opacity="1" stop-color="rgb(80.618286%, 80.618286%, 80.618286%)" offset="0.0859375"/><stop stop-opacity="1" stop-color="rgb(80.413818%, 80.413818%, 80.413818%)" offset="0.0898438"/><stop stop-opacity="1" stop-color="rgb(80.210876%, 80.210876%, 80.210876%)" offset="0.09375"/><stop stop-opacity="1" stop-color="rgb(80.006409%, 80.006409%, 80.006409%)" offset="0.0976562"/><stop stop-opacity="1" stop-color="rgb(79.803467%, 79.803467%, 79.803467%)" offset="0.101562"/><stop stop-opacity="1" stop-color="rgb(79.598999%, 79.598999%, 79.598999%)" offset="0.105469"/><stop stop-opacity="1" stop-color="rgb(79.396057%, 79.396057%, 79.396057%)" offset="0.109375"/><stop stop-opacity="1" stop-color="rgb(79.191589%, 79.191589%, 79.191589%)" offset="0.113281"/><stop stop-opacity="1" stop-color="rgb(78.988647%, 78.988647%, 78.988647%)" offset="0.117187"/><stop stop-opacity="1" stop-color="rgb(78.78418%, 78.78418%, 78.78418%)" offset="0.121094"/><stop stop-opacity="1" stop-color="rgb(78.581238%, 78.581238%, 78.581238%)" offset="0.125"/><stop stop-opacity="1" stop-color="rgb(78.37677%, 78.37677%, 78.37677%)" offset="0.128906"/><stop stop-opacity="1" stop-color="rgb(78.173828%, 78.173828%, 78.173828%)" offset="0.132812"/><stop stop-opacity="1" stop-color="rgb(77.96936%, 77.96936%, 77.96936%)" offset="0.136719"/><stop stop-opacity="1" stop-color="rgb(77.766418%, 77.766418%, 77.766418%)" offset="0.140625"/><stop stop-opacity="1" stop-color="rgb(77.561951%, 77.561951%, 77.561951%)" offset="0.144531"/><stop stop-opacity="1" stop-color="rgb(77.359009%, 77.359009%, 77.359009%)" offset="0.148438"/><stop stop-opacity="1" stop-color="rgb(77.154541%, 77.154541%, 77.154541%)" offset="0.152344"/><stop stop-opacity="1" stop-color="rgb(76.951599%, 76.951599%, 76.951599%)" offset="0.15625"/><stop stop-opacity="1" stop-color="rgb(76.747131%, 76.747131%, 76.747131%)" offset="0.160156"/><stop stop-opacity="1" stop-color="rgb(76.544189%, 76.544189%, 76.544189%)" offset="0.164062"/><stop stop-opacity="1" stop-color="rgb(76.339722%, 76.339722%, 76.339722%)" offset="0.167969"/><stop stop-opacity="1" stop-color="rgb(76.13678%, 76.13678%, 76.13678%)" offset="0.171875"/><stop stop-opacity="1" stop-color="rgb(75.932312%, 75.932312%, 75.932312%)" offset="0.175781"/><stop stop-opacity="1" stop-color="rgb(75.72937%, 75.72937%, 75.72937%)" offset="0.179687"/><stop stop-opacity="1" stop-color="rgb(75.524902%, 75.524902%, 75.524902%)" offset="0.183594"/><stop stop-opacity="1" stop-color="rgb(75.32196%, 75.32196%, 75.32196%)" offset="0.1875"/><stop stop-opacity="1" stop-color="rgb(75.117493%, 75.117493%, 75.117493%)" offset="0.191406"/><stop stop-opacity="1" stop-color="rgb(74.913025%, 74.913025%, 74.913025%)" offset="0.195313"/><stop stop-opacity="1" stop-color="rgb(74.708557%, 74.708557%, 74.708557%)" offset="0.199219"/><stop stop-opacity="1" stop-color="rgb(74.505615%, 74.505615%, 74.505615%)" offset="0.203125"/><stop stop-opacity="1" stop-color="rgb(74.301147%, 74.301147%, 74.301147%)" offset="0.207031"/><stop stop-opacity="1" stop-color="rgb(74.098206%, 74.098206%, 74.098206%)" offset="0.210938"/><stop stop-opacity="1" stop-color="rgb(73.893738%, 73.893738%, 73.893738%)" offset="0.214844"/><stop stop-opacity="1" stop-color="rgb(73.690796%, 73.690796%, 73.690796%)" offset="0.21875"/><stop stop-opacity="1" stop-color="rgb(73.486328%, 73.486328%, 73.486328%)" offset="0.222656"/><stop stop-opacity="1" stop-color="rgb(73.283386%, 73.283386%, 73.283386%)" offset="0.226562"/><stop stop-opacity="1" stop-color="rgb(73.078918%, 73.078918%, 73.078918%)" offset="0.230469"/><stop stop-opacity="1" stop-color="rgb(72.875977%, 72.875977%, 72.875977%)" offset="0.234375"/><stop stop-opacity="1" stop-color="rgb(72.671509%, 72.671509%, 72.671509%)" offset="0.238281"/><stop stop-opacity="1" stop-color="rgb(72.468567%, 72.468567%, 72.468567%)" offset="0.242188"/><stop stop-opacity="1" stop-color="rgb(72.264099%, 72.264099%, 72.264099%)" offset="0.246094"/><stop stop-opacity="1" stop-color="rgb(72.061157%, 72.061157%, 72.061157%)" offset="0.25"/><stop stop-opacity="1" stop-color="rgb(71.856689%, 71.856689%, 71.856689%)" offset="0.253906"/><stop stop-opacity="1" stop-color="rgb(71.653748%, 71.653748%, 71.653748%)" offset="0.257812"/><stop stop-opacity="1" stop-color="rgb(71.44928%, 71.44928%, 71.44928%)" offset="0.261719"/><stop stop-opacity="1" stop-color="rgb(71.246338%, 71.246338%, 71.246338%)" offset="0.265625"/><stop stop-opacity="1" stop-color="rgb(71.04187%, 71.04187%, 71.04187%)" offset="0.269531"/><stop stop-opacity="1" stop-color="rgb(70.838928%, 70.838928%, 70.838928%)" offset="0.273438"/><stop stop-opacity="1" stop-color="rgb(70.63446%, 70.63446%, 70.63446%)" offset="0.277344"/><stop stop-opacity="1" stop-color="rgb(70.431519%, 70.431519%, 70.431519%)" offset="0.28125"/><stop stop-opacity="1" stop-color="rgb(70.227051%, 70.227051%, 70.227051%)" offset="0.285156"/><stop stop-opacity="1" stop-color="rgb(70.024109%, 70.024109%, 70.024109%)" offset="0.289062"/><stop stop-opacity="1" stop-color="rgb(69.819641%, 69.819641%, 69.819641%)" offset="0.292969"/><stop stop-opacity="1" stop-color="rgb(69.616699%, 69.616699%, 69.616699%)" offset="0.296875"/><stop stop-opacity="1" stop-color="rgb(69.412231%, 69.412231%, 69.412231%)" offset="0.300781"/><stop stop-opacity="1" stop-color="rgb(69.20929%, 69.20929%, 69.20929%)" offset="0.304688"/><stop stop-opacity="1" stop-color="rgb(69.004822%, 69.004822%, 69.004822%)" offset="0.308594"/><stop stop-opacity="1" stop-color="rgb(68.80188%, 68.80188%, 68.80188%)" offset="0.3125"/><stop stop-opacity="1" stop-color="rgb(68.597412%, 68.597412%, 68.597412%)" offset="0.316406"/><stop stop-opacity="1" stop-color="rgb(68.39447%, 68.39447%, 68.39447%)" offset="0.320313"/><stop stop-opacity="1" stop-color="rgb(68.190002%, 68.190002%, 68.190002%)" offset="0.324219"/><stop stop-opacity="1" stop-color="rgb(67.985535%, 67.985535%, 67.985535%)" offset="0.328125"/><stop stop-opacity="1" stop-color="rgb(67.781067%, 67.781067%, 67.781067%)" offset="0.332031"/><stop stop-opacity="1" stop-color="rgb(67.578125%, 67.578125%, 67.578125%)" offset="0.335938"/><stop stop-opacity="1" stop-color="rgb(67.373657%, 67.373657%, 67.373657%)" offset="0.339844"/><stop stop-opacity="1" stop-color="rgb(67.170715%, 67.170715%, 67.170715%)" offset="0.34375"/><stop stop-opacity="1" stop-color="rgb(66.966248%, 66.966248%, 66.966248%)" offset="0.347656"/><stop stop-opacity="1" stop-color="rgb(66.763306%, 66.763306%, 66.763306%)" offset="0.351563"/><stop stop-opacity="1" stop-color="rgb(66.558838%, 66.558838%, 66.558838%)" offset="0.355469"/><stop stop-opacity="1" stop-color="rgb(66.355896%, 66.355896%, 66.355896%)" offset="0.359375"/><stop stop-opacity="1" stop-color="rgb(66.151428%, 66.151428%, 66.151428%)" offset="0.363281"/><stop stop-opacity="1" stop-color="rgb(65.948486%, 65.948486%, 65.948486%)" offset="0.367188"/><stop stop-opacity="1" stop-color="rgb(65.744019%, 65.744019%, 65.744019%)" offset="0.371094"/><stop stop-opacity="1" stop-color="rgb(65.541077%, 65.541077%, 65.541077%)" offset="0.375"/><stop stop-opacity="1" stop-color="rgb(65.336609%, 65.336609%, 65.336609%)" offset="0.378906"/><stop stop-opacity="1" stop-color="rgb(65.133667%, 65.133667%, 65.133667%)" offset="0.382813"/><stop stop-opacity="1" stop-color="rgb(64.929199%, 64.929199%, 64.929199%)" offset="0.386719"/><stop stop-opacity="1" stop-color="rgb(64.726257%, 64.726257%, 64.726257%)" offset="0.390625"/><stop stop-opacity="1" stop-color="rgb(64.52179%, 64.52179%, 64.52179%)" offset="0.394531"/><stop stop-opacity="1" stop-color="rgb(64.318848%, 64.318848%, 64.318848%)" offset="0.398438"/><stop stop-opacity="1" stop-color="rgb(64.11438%, 64.11438%, 64.11438%)" offset="0.402344"/><stop stop-opacity="1" stop-color="rgb(63.911438%, 63.911438%, 63.911438%)" offset="0.40625"/><stop stop-opacity="1" stop-color="rgb(63.70697%, 63.70697%, 63.70697%)" offset="0.410156"/><stop stop-opacity="1" stop-color="rgb(63.504028%, 63.504028%, 63.504028%)" offset="0.414063"/><stop stop-opacity="1" stop-color="rgb(63.299561%, 63.299561%, 63.299561%)" offset="0.417969"/><stop stop-opacity="1" stop-color="rgb(63.096619%, 63.096619%, 63.096619%)" offset="0.421875"/><stop stop-opacity="1" stop-color="rgb(62.892151%, 62.892151%, 62.892151%)" offset="0.425781"/><stop stop-opacity="1" stop-color="rgb(62.689209%, 62.689209%, 62.689209%)" offset="0.429688"/><stop stop-opacity="1" stop-color="rgb(62.484741%, 62.484741%, 62.484741%)" offset="0.433594"/><stop stop-opacity="1" stop-color="rgb(62.281799%, 62.281799%, 62.281799%)" offset="0.4375"/><stop stop-opacity="1" stop-color="rgb(62.077332%, 62.077332%, 62.077332%)" offset="0.441406"/><stop stop-opacity="1" stop-color="rgb(61.87439%, 61.87439%, 61.87439%)" offset="0.445313"/><stop stop-opacity="1" stop-color="rgb(61.669922%, 61.669922%, 61.669922%)" offset="0.449219"/><stop stop-opacity="1" stop-color="rgb(61.465454%, 61.465454%, 61.465454%)" offset="0.453125"/><stop stop-opacity="1" stop-color="rgb(61.260986%, 61.260986%, 61.260986%)" offset="0.457031"/><stop stop-opacity="1" stop-color="rgb(61.058044%, 61.058044%, 61.058044%)" offset="0.460938"/><stop stop-opacity="1" stop-color="rgb(60.853577%, 60.853577%, 60.853577%)" offset="0.464844"/><stop stop-opacity="1" stop-color="rgb(60.650635%, 60.650635%, 60.650635%)" offset="0.46875"/><stop stop-opacity="1" stop-color="rgb(60.446167%, 60.446167%, 60.446167%)" offset="0.472656"/><stop stop-opacity="1" stop-color="rgb(60.243225%, 60.243225%, 60.243225%)" offset="0.476562"/><stop stop-opacity="1" stop-color="rgb(60.038757%, 60.038757%, 60.038757%)" offset="0.480469"/><stop stop-opacity="1" stop-color="rgb(59.835815%, 59.835815%, 59.835815%)" offset="0.484375"/><stop stop-opacity="1" stop-color="rgb(59.631348%, 59.631348%, 59.631348%)" offset="0.488281"/><stop stop-opacity="1" stop-color="rgb(59.428406%, 59.428406%, 59.428406%)" offset="0.492188"/><stop stop-opacity="1" stop-color="rgb(59.223938%, 59.223938%, 59.223938%)" offset="0.496094"/><stop stop-opacity="1" stop-color="rgb(59.020996%, 59.020996%, 59.020996%)" offset="0.5"/><stop stop-opacity="1" stop-color="rgb(58.816528%, 58.816528%, 58.816528%)" offset="0.503906"/><stop stop-opacity="1" stop-color="rgb(58.613586%, 58.613586%, 58.613586%)" offset="0.507812"/><stop stop-opacity="1" stop-color="rgb(58.409119%, 58.409119%, 58.409119%)" offset="0.511719"/><stop stop-opacity="1" stop-color="rgb(58.206177%, 58.206177%, 58.206177%)" offset="0.515625"/><stop stop-opacity="1" stop-color="rgb(58.001709%, 58.001709%, 58.001709%)" offset="0.519531"/><stop stop-opacity="1" stop-color="rgb(57.798767%, 57.798767%, 57.798767%)" offset="0.523438"/><stop stop-opacity="1" stop-color="rgb(57.594299%, 57.594299%, 57.594299%)" offset="0.527344"/><stop stop-opacity="1" stop-color="rgb(57.391357%, 57.391357%, 57.391357%)" offset="0.53125"/><stop stop-opacity="1" stop-color="rgb(57.18689%, 57.18689%, 57.18689%)" offset="0.535156"/><stop stop-opacity="1" stop-color="rgb(56.983948%, 56.983948%, 56.983948%)" offset="0.539062"/><stop stop-opacity="1" stop-color="rgb(56.77948%, 56.77948%, 56.77948%)" offset="0.542969"/><stop stop-opacity="1" stop-color="rgb(56.576538%, 56.576538%, 56.576538%)" offset="0.546875"/><stop stop-opacity="1" stop-color="rgb(56.37207%, 56.37207%, 56.37207%)" offset="0.550781"/><stop stop-opacity="1" stop-color="rgb(56.169128%, 56.169128%, 56.169128%)" offset="0.554688"/><stop stop-opacity="1" stop-color="rgb(55.964661%, 55.964661%, 55.964661%)" offset="0.558594"/><stop stop-opacity="1" stop-color="rgb(55.761719%, 55.761719%, 55.761719%)" offset="0.5625"/><stop stop-opacity="1" stop-color="rgb(55.557251%, 55.557251%, 55.557251%)" offset="0.566406"/><stop stop-opacity="1" stop-color="rgb(55.354309%, 55.354309%, 55.354309%)" offset="0.570312"/><stop stop-opacity="1" stop-color="rgb(55.149841%, 55.149841%, 55.149841%)" offset="0.574219"/><stop stop-opacity="1" stop-color="rgb(54.946899%, 54.946899%, 54.946899%)" offset="0.578125"/><stop stop-opacity="1" stop-color="rgb(54.742432%, 54.742432%, 54.742432%)" offset="0.582031"/><stop stop-opacity="1" stop-color="rgb(54.537964%, 54.537964%, 54.537964%)" offset="0.585938"/><stop stop-opacity="1" stop-color="rgb(54.333496%, 54.333496%, 54.333496%)" offset="0.589844"/><stop stop-opacity="1" stop-color="rgb(54.130554%, 54.130554%, 54.130554%)" offset="0.59375"/><stop stop-opacity="1" stop-color="rgb(53.926086%, 53.926086%, 53.926086%)" offset="0.597656"/><stop stop-opacity="1" stop-color="rgb(53.723145%, 53.723145%, 53.723145%)" offset="0.601562"/><stop stop-opacity="1" stop-color="rgb(53.518677%, 53.518677%, 53.518677%)" offset="0.605469"/><stop stop-opacity="1" stop-color="rgb(53.315735%, 53.315735%, 53.315735%)" offset="0.609375"/><stop stop-opacity="1" stop-color="rgb(53.111267%, 53.111267%, 53.111267%)" offset="0.613281"/><stop stop-opacity="1" stop-color="rgb(52.908325%, 52.908325%, 52.908325%)" offset="0.617188"/><stop stop-opacity="1" stop-color="rgb(52.703857%, 52.703857%, 52.703857%)" offset="0.621094"/><stop stop-opacity="1" stop-color="rgb(52.500916%, 52.500916%, 52.500916%)" offset="0.625"/><stop stop-opacity="1" stop-color="rgb(52.296448%, 52.296448%, 52.296448%)" offset="0.628906"/><stop stop-opacity="1" stop-color="rgb(52.093506%, 52.093506%, 52.093506%)" offset="0.632812"/><stop stop-opacity="1" stop-color="rgb(51.889038%, 51.889038%, 51.889038%)" offset="0.636719"/><stop stop-opacity="1" stop-color="rgb(51.686096%, 51.686096%, 51.686096%)" offset="0.640625"/><stop stop-opacity="1" stop-color="rgb(51.481628%, 51.481628%, 51.481628%)" offset="0.644531"/><stop stop-opacity="1" stop-color="rgb(51.278687%, 51.278687%, 51.278687%)" offset="0.648438"/><stop stop-opacity="1" stop-color="rgb(51.074219%, 51.074219%, 51.074219%)" offset="0.652344"/><stop stop-opacity="1" stop-color="rgb(50.871277%, 50.871277%, 50.871277%)" offset="0.65625"/><stop stop-opacity="1" stop-color="rgb(50.666809%, 50.666809%, 50.666809%)" offset="0.660156"/><stop stop-opacity="1" stop-color="rgb(50.463867%, 50.463867%, 50.463867%)" offset="0.664063"/><stop stop-opacity="1" stop-color="rgb(50.259399%, 50.259399%, 50.259399%)" offset="0.667969"/><stop stop-opacity="1" stop-color="rgb(50.056458%, 50.056458%, 50.056458%)" offset="0.671875"/><stop stop-opacity="1" stop-color="rgb(49.85199%, 49.85199%, 49.85199%)" offset="0.675781"/><stop stop-opacity="1" stop-color="rgb(49.649048%, 49.649048%, 49.649048%)" offset="0.679688"/><stop stop-opacity="1" stop-color="rgb(49.44458%, 49.44458%, 49.44458%)" offset="0.683594"/><stop stop-opacity="1" stop-color="rgb(49.241638%, 49.241638%, 49.241638%)" offset="0.6875"/><stop stop-opacity="1" stop-color="rgb(49.03717%, 49.03717%, 49.03717%)" offset="0.691406"/><stop stop-opacity="1" stop-color="rgb(48.834229%, 48.834229%, 48.834229%)" offset="0.695313"/><stop stop-opacity="1" stop-color="rgb(48.629761%, 48.629761%, 48.629761%)" offset="0.699219"/><stop stop-opacity="1" stop-color="rgb(48.426819%, 48.426819%, 48.426819%)" offset="0.703125"/><stop stop-opacity="1" stop-color="rgb(48.222351%, 48.222351%, 48.222351%)" offset="0.707031"/><stop stop-opacity="1" stop-color="rgb(48.019409%, 48.019409%, 48.019409%)" offset="0.710938"/><stop stop-opacity="1" stop-color="rgb(47.814941%, 47.814941%, 47.814941%)" offset="0.714844"/><stop stop-opacity="1" stop-color="rgb(47.610474%, 47.610474%, 47.610474%)" offset="0.71875"/><stop stop-opacity="1" stop-color="rgb(47.406006%, 47.406006%, 47.406006%)" offset="0.722656"/><stop stop-opacity="1" stop-color="rgb(47.203064%, 47.203064%, 47.203064%)" offset="0.726562"/><stop stop-opacity="1" stop-color="rgb(46.998596%, 46.998596%, 46.998596%)" offset="0.730469"/><stop stop-opacity="1" stop-color="rgb(46.795654%, 46.795654%, 46.795654%)" offset="0.734375"/><stop stop-opacity="1" stop-color="rgb(46.591187%, 46.591187%, 46.591187%)" offset="0.738281"/><stop stop-opacity="1" stop-color="rgb(46.388245%, 46.388245%, 46.388245%)" offset="0.742188"/><stop stop-opacity="1" stop-color="rgb(46.183777%, 46.183777%, 46.183777%)" offset="0.746094"/><stop stop-opacity="1" stop-color="rgb(45.980835%, 45.980835%, 45.980835%)" offset="0.75"/><stop stop-opacity="1" stop-color="rgb(45.776367%, 45.776367%, 45.776367%)" offset="0.753906"/><stop stop-opacity="1" stop-color="rgb(45.573425%, 45.573425%, 45.573425%)" offset="0.757812"/><stop stop-opacity="1" stop-color="rgb(45.368958%, 45.368958%, 45.368958%)" offset="0.761719"/><stop stop-opacity="1" stop-color="rgb(45.166016%, 45.166016%, 45.166016%)" offset="0.765625"/><stop stop-opacity="1" stop-color="rgb(44.961548%, 44.961548%, 44.961548%)" offset="0.769531"/><stop stop-opacity="1" stop-color="rgb(44.758606%, 44.758606%, 44.758606%)" offset="0.773438"/><stop stop-opacity="1" stop-color="rgb(44.554138%, 44.554138%, 44.554138%)" offset="0.777344"/><stop stop-opacity="1" stop-color="rgb(44.351196%, 44.351196%, 44.351196%)" offset="0.78125"/><stop stop-opacity="1" stop-color="rgb(44.146729%, 44.146729%, 44.146729%)" offset="0.785156"/><stop stop-opacity="1" stop-color="rgb(43.943787%, 43.943787%, 43.943787%)" offset="0.789062"/><stop stop-opacity="1" stop-color="rgb(43.739319%, 43.739319%, 43.739319%)" offset="0.792969"/><stop stop-opacity="1" stop-color="rgb(43.536377%, 43.536377%, 43.536377%)" offset="0.796875"/><stop stop-opacity="1" stop-color="rgb(43.331909%, 43.331909%, 43.331909%)" offset="0.800781"/><stop stop-opacity="1" stop-color="rgb(43.128967%, 43.128967%, 43.128967%)" offset="0.804688"/><stop stop-opacity="1" stop-color="rgb(42.9245%, 42.9245%, 42.9245%)" offset="0.808594"/><stop stop-opacity="1" stop-color="rgb(42.721558%, 42.721558%, 42.721558%)" offset="0.8125"/><stop stop-opacity="1" stop-color="rgb(42.51709%, 42.51709%, 42.51709%)" offset="0.816406"/><stop stop-opacity="1" stop-color="rgb(42.314148%, 42.314148%, 42.314148%)" offset="0.820312"/><stop stop-opacity="1" stop-color="rgb(42.10968%, 42.10968%, 42.10968%)" offset="0.824219"/><stop stop-opacity="1" stop-color="rgb(41.906738%, 41.906738%, 41.906738%)" offset="0.828125"/><stop stop-opacity="1" stop-color="rgb(41.702271%, 41.702271%, 41.702271%)" offset="0.832031"/><stop stop-opacity="1" stop-color="rgb(41.499329%, 41.499329%, 41.499329%)" offset="0.835938"/><stop stop-opacity="1" stop-color="rgb(41.294861%, 41.294861%, 41.294861%)" offset="0.839844"/><stop stop-opacity="1" stop-color="rgb(41.091919%, 41.091919%, 41.091919%)" offset="0.84375"/><stop stop-opacity="1" stop-color="rgb(40.887451%, 40.887451%, 40.887451%)" offset="0.847656"/><stop stop-opacity="1" stop-color="rgb(40.682983%, 40.682983%, 40.682983%)" offset="0.851562"/><stop stop-opacity="1" stop-color="rgb(40.478516%, 40.478516%, 40.478516%)" offset="0.855469"/><stop stop-opacity="1" stop-color="rgb(40.275574%, 40.275574%, 40.275574%)" offset="0.859375"/><stop stop-opacity="1" stop-color="rgb(40.071106%, 40.071106%, 40.071106%)" offset="0.863281"/><stop stop-opacity="1" stop-color="rgb(39.868164%, 39.868164%, 39.868164%)" offset="0.867188"/><stop stop-opacity="1" stop-color="rgb(39.663696%, 39.663696%, 39.663696%)" offset="0.871094"/><stop stop-opacity="1" stop-color="rgb(39.460754%, 39.460754%, 39.460754%)" offset="0.875"/><stop stop-opacity="1" stop-color="rgb(39.256287%, 39.256287%, 39.256287%)" offset="0.878906"/><stop stop-opacity="1" stop-color="rgb(39.053345%, 39.053345%, 39.053345%)" offset="0.882812"/><stop stop-opacity="1" stop-color="rgb(38.848877%, 38.848877%, 38.848877%)" offset="0.886719"/><stop stop-opacity="1" stop-color="rgb(38.645935%, 38.645935%, 38.645935%)" offset="0.890625"/><stop stop-opacity="1" stop-color="rgb(38.441467%, 38.441467%, 38.441467%)" offset="0.894531"/><stop stop-opacity="1" stop-color="rgb(38.238525%, 38.238525%, 38.238525%)" offset="0.898438"/><stop stop-opacity="1" stop-color="rgb(38.034058%, 38.034058%, 38.034058%)" offset="0.902344"/><stop stop-opacity="1" stop-color="rgb(37.831116%, 37.831116%, 37.831116%)" offset="0.90625"/><stop stop-opacity="1" stop-color="rgb(37.626648%, 37.626648%, 37.626648%)" offset="0.910156"/><stop stop-opacity="1" stop-color="rgb(37.423706%, 37.423706%, 37.423706%)" offset="0.914062"/><stop stop-opacity="1" stop-color="rgb(37.219238%, 37.219238%, 37.219238%)" offset="0.917969"/><stop stop-opacity="1" stop-color="rgb(37.016296%, 37.016296%, 37.016296%)" offset="0.921875"/><stop stop-opacity="1" stop-color="rgb(36.811829%, 36.811829%, 36.811829%)" offset="0.925781"/><stop stop-opacity="1" stop-color="rgb(36.608887%, 36.608887%, 36.608887%)" offset="0.929687"/><stop stop-opacity="1" stop-color="rgb(36.404419%, 36.404419%, 36.404419%)" offset="0.933594"/><stop stop-opacity="1" stop-color="rgb(36.201477%, 36.201477%, 36.201477%)" offset="0.9375"/><stop stop-opacity="1" stop-color="rgb(35.997009%, 35.997009%, 35.997009%)" offset="0.941406"/><stop stop-opacity="1" stop-color="rgb(35.794067%, 35.794067%, 35.794067%)" offset="0.945312"/><stop stop-opacity="1" stop-color="rgb(35.5896%, 35.5896%, 35.5896%)" offset="0.949219"/><stop stop-opacity="1" stop-color="rgb(35.386658%, 35.386658%, 35.386658%)" offset="0.953125"/><stop stop-opacity="1" stop-color="rgb(35.18219%, 35.18219%, 35.18219%)" offset="0.957031"/><stop stop-opacity="1" stop-color="rgb(34.979248%, 34.979248%, 34.979248%)" offset="0.960937"/><stop stop-opacity="1" stop-color="rgb(34.77478%, 34.77478%, 34.77478%)" offset="0.964844"/><stop stop-opacity="1" stop-color="rgb(34.571838%, 34.571838%, 34.571838%)" offset="0.96875"/><stop stop-opacity="1" stop-color="rgb(34.367371%, 34.367371%, 34.367371%)" offset="0.972656"/><stop stop-opacity="1" stop-color="rgb(34.164429%, 34.164429%, 34.164429%)" offset="0.976562"/><stop stop-opacity="1" stop-color="rgb(33.959961%, 33.959961%, 33.959961%)" offset="0.980469"/><stop stop-opacity="1" stop-color="rgb(33.755493%, 33.755493%, 33.755493%)" offset="0.984375"/><stop stop-opacity="1" stop-color="rgb(33.551025%, 33.551025%, 33.551025%)" offset="0.988281"/><stop stop-opacity="1" stop-color="rgb(33.348083%, 33.348083%, 33.348083%)" offset="0.992188"/><stop stop-opacity="1" stop-color="rgb(33.143616%, 33.143616%, 33.143616%)" offset="0.996094"/><stop stop-opacity="1" stop-color="rgb(32.940674%, 32.940674%, 32.940674%)" offset="1"/></linearGradient></defs><path fill="#ffffff" d="M 7.832031 71.832031 C 8.019531 71.730469 8.113281 71.59375 8.113281 71.421875 C 8.113281 71.246094 8.050781 71.023438 7.925781 70.746094 L 7.265625 69.074219 L 2.183594 69.074219 L 1.511719 70.734375 C 1.375 71.050781 1.304688 71.289062 1.304688 71.449219 C 1.304688 71.601562 1.398438 71.730469 1.589844 71.832031 L 0.117188 71.832031 C 0.214844 71.785156 0.300781 71.734375 0.371094 71.679688 C 0.441406 71.625 0.503906 71.558594 0.554688 71.472656 C 0.605469 71.390625 0.644531 71.324219 0.667969 71.277344 C 0.691406 71.230469 0.726562 71.140625 0.78125 71.011719 C 0.828125 70.882812 0.863281 70.792969 0.882812 70.734375 L 4.398438 62.097656 L 6.421875 62.097656 L 9.949219 70.734375 C 10.089844 71.101562 10.210938 71.351562 10.316406 71.488281 C 10.421875 71.621094 10.558594 71.738281 10.722656 71.832031 Z M 2.363281 68.640625 L 7.09375 68.640625 L 4.753906 62.753906 Z M 2.363281 68.640625 " fill-opacity="1" fill-rule="nonzero"/><path fill="#ffffff" d="M 12.722656 63.195312 C 12.722656 62.867188 12.691406 62.617188 12.636719 62.4375 C 12.582031 62.261719 12.480469 62.113281 12.332031 61.996094 C 13.34375 61.945312 14.09375 61.894531 14.585938 61.84375 L 14.585938 70.574219 C 14.585938 70.914062 14.609375 71.183594 14.660156 71.375 C 14.707031 71.566406 14.804688 71.71875 14.949219 71.832031 L 12.351562 71.832031 C 12.492188 71.714844 12.585938 71.558594 12.640625 71.367188 C 12.695312 71.171875 12.722656 70.90625 12.722656 70.574219 Z M 12.722656 63.195312 " fill-opacity="1" fill-rule="nonzero"/><g clip-path="url(#f04b087989)"><path fill="#ffffff" d="M 23.464844 65.09375 L 24.886719 65.09375 C 24.832031 65.125 24.78125 65.160156 24.734375 65.191406 C 24.691406 65.226562 24.644531 65.265625 24.601562 65.304688 C 24.558594 65.347656 24.523438 65.386719 24.496094 65.417969 C 24.464844 65.445312 24.429688 65.484375 24.394531 65.539062 C 24.363281 65.59375 24.335938 65.632812 24.320312 65.652344 C 24.296875 65.675781 24.273438 65.71875 24.246094 65.777344 C 24.214844 65.84375 24.199219 65.878906 24.1875 65.894531 C 24.179688 65.910156 24.15625 65.949219 24.128906 66.015625 C 24.101562 66.082031 24.082031 66.117188 24.078125 66.128906 L 21.105469 72.261719 L 20.570312 73.386719 C 20.339844 73.824219 20.078125 74.136719 19.785156 74.328125 C 19.492188 74.515625 19.117188 74.613281 18.65625 74.613281 C 18.171875 74.613281 17.785156 74.515625 17.496094 74.324219 C 17.207031 74.128906 17.066406 73.882812 17.066406 73.582031 C 17.066406 73.347656 17.152344 73.152344 17.328125 73.003906 C 17.503906 72.851562 17.71875 72.777344 17.980469 72.777344 C 18.261719 72.777344 18.503906 72.898438 18.71875 73.144531 C 18.59375 73.246094 18.53125 73.398438 18.53125 73.597656 C 18.53125 73.738281 18.582031 73.855469 18.683594 73.945312 C 18.785156 74.035156 18.933594 74.078125 19.117188 74.078125 C 19.519531 74.078125 19.871094 73.796875 20.167969 73.234375 L 20.503906 72.570312 L 17.371094 66.128906 C 17.304688 65.976562 17.246094 65.851562 17.195312 65.761719 C 17.144531 65.667969 17.0625 65.558594 16.949219 65.429688 C 16.832031 65.304688 16.703125 65.191406 16.558594 65.09375 L 19.089844 65.09375 C 19.035156 65.144531 19 65.203125 18.980469 65.261719 C 18.964844 65.320312 18.964844 65.386719 18.980469 65.460938 C 19 65.535156 19.019531 65.597656 19.035156 65.644531 C 19.054688 65.691406 19.089844 65.765625 19.144531 65.875 C 19.195312 65.976562 19.230469 66.050781 19.25 66.09375 L 21.367188 70.628906 L 23.539062 66.09375 C 23.773438 65.613281 23.746094 65.28125 23.464844 65.09375 Z M 23.464844 65.09375 " fill-opacity="1" fill-rule="nonzero"/></g><path fill="#ffffff" d="M 30.234375 64.96875 C 31.5 64.96875 32.519531 65.289062 33.28125 65.929688 C 34.042969 66.570312 34.425781 67.410156 34.425781 68.453125 C 34.425781 69.472656 34.039062 70.304688 33.257812 70.949219 C 32.480469 71.597656 31.46875 71.921875 30.234375 71.921875 C 28.953125 71.921875 27.933594 71.605469 27.175781 70.96875 C 26.417969 70.335938 26.035156 69.496094 26.035156 68.453125 C 26.035156 67.4375 26.425781 66.601562 27.203125 65.949219 C 27.980469 65.296875 28.992188 64.96875 30.234375 64.96875 Z M 30.234375 65.296875 C 29.542969 65.296875 29.003906 65.558594 28.609375 66.078125 C 28.214844 66.601562 28.011719 67.394531 28.007812 68.453125 C 28.007812 69.503906 28.207031 70.292969 28.601562 70.816406 C 28.996094 71.339844 29.539062 71.601562 30.234375 71.601562 C 30.917969 71.601562 31.457031 71.339844 31.851562 70.816406 C 32.246094 70.292969 32.441406 69.503906 32.4375 68.453125 C 32.4375 67.398438 32.242188 66.609375 31.847656 66.085938 C 31.457031 65.558594 30.917969 65.296875 30.234375 65.296875 Z M 30.234375 65.296875 " fill-opacity="1" fill-rule="nonzero"/><path fill="#ffffff" d="M 47.625 71.832031 C 47.753906 71.714844 47.847656 71.558594 47.902344 71.367188 C 47.953125 71.171875 47.976562 70.90625 47.976562 70.574219 L 47.976562 67.457031 C 47.976562 66.925781 47.832031 66.511719 47.542969 66.21875 C 47.253906 65.921875 46.832031 65.773438 46.277344 65.773438 C 45.957031 65.773438 45.652344 65.847656 45.355469 65.992188 C 45.058594 66.140625 44.835938 66.289062 44.679688 66.445312 C 44.523438 66.605469 44.40625 66.75 44.335938 66.886719 C 44.363281 67.074219 44.378906 67.273438 44.382812 67.484375 L 44.382812 70.574219 C 44.378906 70.914062 44.402344 71.179688 44.453125 71.371094 C 44.5 71.566406 44.585938 71.71875 44.71875 71.832031 L 42.1875 71.832031 C 42.316406 71.71875 42.40625 71.566406 42.453125 71.371094 C 42.5 71.179688 42.523438 70.914062 42.523438 70.574219 L 42.523438 67.457031 C 42.523438 66.925781 42.378906 66.511719 42.09375 66.21875 C 41.804688 65.921875 41.386719 65.773438 40.839844 65.773438 C 40.363281 65.773438 39.957031 65.871094 39.621094 66.0625 C 39.285156 66.253906 39.054688 66.453125 38.929688 66.667969 L 38.929688 70.574219 C 38.929688 70.914062 38.953125 71.179688 38.996094 71.371094 C 39.046875 71.566406 39.136719 71.71875 39.265625 71.832031 L 36.730469 71.832031 C 36.859375 71.71875 36.945312 71.566406 36.992188 71.371094 C 37.039062 71.179688 37.066406 70.914062 37.066406 70.574219 L 37.066406 66.445312 C 37.066406 66.117188 37.039062 65.867188 36.988281 65.695312 C 36.933594 65.527344 36.835938 65.382812 36.695312 65.265625 C 37.875 65.183594 38.585938 65.125 38.835938 65.09375 L 38.835938 66.320312 C 38.964844 66.148438 39.117188 65.988281 39.28125 65.84375 C 39.449219 65.695312 39.648438 65.554688 39.875 65.417969 C 40.105469 65.28125 40.375 65.171875 40.683594 65.089844 C 41 65.007812 41.328125 64.96875 41.671875 64.96875 C 43.074219 64.96875 43.9375 65.476562 44.253906 66.496094 C 44.390625 66.3125 44.542969 66.136719 44.707031 65.972656 C 44.871094 65.808594 45.066406 65.648438 45.300781 65.488281 C 45.53125 65.332031 45.804688 65.207031 46.117188 65.109375 C 46.429688 65.015625 46.757812 64.96875 47.109375 64.96875 C 48.914062 64.96875 49.816406 65.808594 49.816406 67.484375 L 49.816406 70.574219 C 49.816406 70.914062 49.84375 71.179688 49.894531 71.371094 C 49.941406 71.558594 50.035156 71.714844 50.175781 71.832031 Z M 47.625 71.832031 " fill-opacity="1" fill-rule="nonzero"/><path fill="#ffffff" d="M 61.464844 62.097656 C 63.25 62.097656 64.671875 62.542969 65.730469 63.429688 C 66.785156 64.3125 67.316406 65.511719 67.316406 67.023438 C 67.316406 67.96875 67.074219 68.804688 66.597656 69.53125 C 66.117188 70.261719 65.433594 70.828125 64.542969 71.226562 C 63.65625 71.628906 62.628906 71.832031 61.464844 71.832031 L 57.488281 71.832031 C 57.792969 71.601562 57.949219 71.171875 57.949219 70.542969 L 57.949219 63.386719 C 57.949219 62.757812 57.792969 62.332031 57.488281 62.097656 Z M 61.417969 71.386719 C 62.546875 71.386719 63.457031 71.011719 64.144531 70.265625 C 64.824219 69.515625 65.167969 68.433594 65.167969 67.023438 C 65.167969 65.558594 64.832031 64.445312 64.15625 63.6875 C 63.476562 62.921875 62.566406 62.542969 61.417969 62.542969 L 59.871094 62.542969 L 59.871094 71.386719 Z M 61.417969 71.386719 " fill-opacity="1" fill-rule="nonzero"/><path fill="#ffffff" d="M 71.953125 70.574219 C 71.953125 70.914062 71.976562 71.183594 72.027344 71.375 C 72.078125 71.566406 72.175781 71.71875 72.320312 71.832031 L 69.722656 71.832031 C 69.863281 71.714844 69.957031 71.558594 70.011719 71.367188 C 70.0625 71.171875 70.085938 70.90625 70.085938 70.574219 L 70.085938 66.40625 C 70.085938 66.078125 70.058594 65.824219 70.003906 65.644531 C 69.949219 65.464844 69.851562 65.316406 69.703125 65.199219 C 69.8125 65.1875 70.023438 65.175781 70.335938 65.160156 C 70.648438 65.140625 70.941406 65.125 71.214844 65.105469 C 71.492188 65.085938 71.738281 65.066406 71.953125 65.042969 Z M 70.992188 62.238281 C 71.3125 62.238281 71.582031 62.324219 71.800781 62.5 C 72.015625 62.671875 72.125 62.894531 72.125 63.15625 C 72.125 63.421875 72.015625 63.644531 71.800781 63.820312 C 71.582031 63.992188 71.3125 64.078125 70.992188 64.078125 C 70.660156 64.078125 70.390625 63.992188 70.171875 63.820312 C 69.960938 63.644531 69.855469 63.421875 69.855469 63.15625 C 69.855469 62.894531 69.960938 62.671875 70.171875 62.5 C 70.390625 62.324219 70.660156 62.238281 70.992188 62.238281 Z M 70.992188 62.238281 " fill-opacity="1" fill-rule="nonzero"/><g clip-path="url(#16d0aac44b)"><path fill="#ffffff" d="M 81.03125 71.667969 C 81.574219 71.667969 82.007812 71.789062 82.332031 72.035156 C 82.648438 72.277344 82.808594 72.59375 82.808594 72.980469 C 82.808594 73.351562 82.710938 73.648438 82.511719 73.867188 C 82.3125 74.085938 82.078125 74.195312 81.800781 74.195312 C 81.625 74.195312 81.472656 74.152344 81.351562 74.066406 C 81.472656 73.929688 81.535156 73.792969 81.535156 73.652344 C 81.535156 73.457031 81.464844 73.292969 81.332031 73.164062 C 81.199219 73.035156 81.003906 72.96875 80.742188 72.96875 C 80.5 72.96875 80.21875 73.007812 79.894531 73.082031 C 79.566406 73.164062 79.261719 73.25 78.980469 73.34375 C 78.699219 73.4375 78.359375 73.523438 77.964844 73.601562 C 77.574219 73.679688 77.191406 73.714844 76.824219 73.714844 C 76.089844 73.714844 75.519531 73.554688 75.117188 73.230469 C 74.707031 72.910156 74.503906 72.496094 74.503906 71.996094 C 74.503906 71.226562 75.117188 70.5625 76.347656 69.996094 C 75.867188 69.769531 75.492188 69.449219 75.222656 69.046875 C 74.953125 68.644531 74.820312 68.183594 74.820312 67.660156 C 74.820312 66.875 75.148438 66.230469 75.804688 65.726562 C 76.457031 65.222656 77.296875 64.96875 78.324219 64.96875 C 79.253906 64.96875 80.039062 65.171875 80.683594 65.578125 C 80.816406 65.515625 80.925781 65.425781 81.003906 65.304688 C 81.085938 65.179688 81.125 65.066406 81.125 64.957031 C 81.125 64.777344 81.050781 64.644531 80.90625 64.558594 C 81.160156 64.246094 81.5 64.089844 81.917969 64.089844 C 82.160156 64.089844 82.367188 64.148438 82.546875 64.257812 C 82.722656 64.375 82.808594 64.539062 82.808594 64.75 C 82.808594 64.996094 82.652344 65.222656 82.339844 65.429688 C 82.027344 65.636719 81.597656 65.785156 81.046875 65.875 C 81.570312 66.355469 81.832031 66.949219 81.832031 67.660156 C 81.832031 68.476562 81.503906 69.140625 80.855469 69.652344 C 80.207031 70.167969 79.367188 70.429688 78.335938 70.429688 C 77.753906 70.429688 77.226562 70.34375 76.746094 70.171875 C 76.214844 70.464844 75.945312 70.855469 75.945312 71.335938 C 75.945312 71.628906 76.082031 71.875 76.351562 72.070312 C 76.621094 72.269531 77 72.371094 77.484375 72.371094 C 77.796875 72.371094 78.121094 72.332031 78.453125 72.261719 C 78.78125 72.191406 79.070312 72.109375 79.3125 72.015625 C 79.558594 71.925781 79.835938 71.847656 80.148438 71.773438 C 80.460938 71.703125 80.753906 71.667969 81.03125 71.667969 Z M 76.621094 67.660156 C 76.617188 68.484375 76.769531 69.105469 77.078125 69.519531 C 77.390625 69.929688 77.808594 70.136719 78.335938 70.136719 C 78.859375 70.136719 79.277344 69.929688 79.589844 69.519531 C 79.898438 69.105469 80.054688 68.484375 80.054688 67.660156 C 80.054688 66.875 79.898438 66.277344 79.585938 65.875 C 79.269531 65.46875 78.851562 65.265625 78.335938 65.265625 C 77.820312 65.265625 77.40625 65.46875 77.089844 65.875 C 76.777344 66.277344 76.621094 66.875 76.621094 67.660156 Z M 76.621094 67.660156 " fill-opacity="1" fill-rule="nonzero"/></g><path fill="#ffffff" d="M 86.679688 70.574219 C 86.679688 70.914062 86.703125 71.183594 86.757812 71.375 C 86.804688 71.566406 86.902344 71.71875 87.046875 71.832031 L 84.449219 71.832031 C 84.589844 71.714844 84.683594 71.558594 84.738281 71.367188 C 84.789062 71.171875 84.816406 70.90625 84.816406 70.574219 L 84.816406 66.40625 C 84.816406 66.078125 84.789062 65.824219 84.734375 65.644531 C 84.679688 65.464844 84.578125 65.316406 84.429688 65.199219 C 84.539062 65.1875 84.75 65.175781 85.058594 65.160156 C 85.371094 65.140625 85.667969 65.125 85.941406 65.105469 C 86.222656 65.085938 86.464844 65.066406 86.679688 65.042969 Z M 85.714844 62.238281 C 86.039062 62.238281 86.308594 62.324219 86.527344 62.5 C 86.742188 62.671875 86.851562 62.894531 86.851562 63.15625 C 86.851562 63.421875 86.742188 63.644531 86.527344 63.820312 C 86.308594 63.992188 86.039062 64.078125 85.714844 64.078125 C 85.386719 64.078125 85.117188 63.992188 84.902344 63.820312 C 84.6875 63.644531 84.582031 63.421875 84.582031 63.15625 C 84.582031 62.894531 84.6875 62.671875 84.902344 62.5 C 85.117188 62.324219 85.386719 62.238281 85.714844 62.238281 Z M 85.714844 62.238281 " fill-opacity="1" fill-rule="nonzero"/><path fill="#ffffff" d="M 93.65625 70.667969 L 93.769531 70.734375 C 93.546875 71.160156 93.285156 71.464844 92.984375 71.648438 C 92.679688 71.832031 92.265625 71.921875 91.746094 71.921875 C 91.078125 71.921875 90.574219 71.75 90.234375 71.410156 C 89.894531 71.066406 89.726562 70.5625 89.726562 69.894531 L 89.710938 63.625 C 90.398438 63.582031 91.023438 63.527344 91.589844 63.460938 L 91.589844 65.160156 L 93.703125 65.160156 L 93.703125 65.589844 L 91.589844 65.589844 L 91.589844 69.945312 C 91.589844 70.328125 91.667969 70.617188 91.820312 70.820312 C 91.96875 71.019531 92.226562 71.121094 92.585938 71.121094 C 92.832031 71.121094 93.03125 71.085938 93.183594 71.011719 C 93.339844 70.941406 93.496094 70.828125 93.65625 70.667969 Z M 93.65625 70.667969 " fill-opacity="1" fill-rule="nonzero"/><path fill="#ffffff" d="M 102.734375 71.832031 L 100.792969 71.832031 L 100.699219 70.910156 C 100.34375 71.238281 99.953125 71.488281 99.527344 71.664062 C 99.105469 71.835938 98.605469 71.921875 98.035156 71.921875 C 97.257812 71.921875 96.621094 71.742188 96.125 71.386719 C 95.625 71.03125 95.375 70.554688 95.375 69.957031 C 95.375 69.339844 95.644531 68.847656 96.1875 68.476562 C 96.730469 68.109375 97.46875 67.925781 98.40625 67.925781 C 99.203125 67.925781 99.945312 68.152344 100.628906 68.605469 L 100.628906 67.214844 C 100.628906 66.566406 100.507812 66.082031 100.261719 65.761719 C 100.015625 65.441406 99.574219 65.277344 98.929688 65.277344 C 98.421875 65.277344 98.039062 65.371094 97.78125 65.558594 C 97.523438 65.746094 97.394531 65.96875 97.394531 66.230469 C 97.394531 66.488281 97.472656 66.691406 97.628906 66.832031 C 97.347656 67.113281 97.027344 67.25 96.664062 67.25 C 96.429688 67.25 96.226562 67.175781 96.050781 67.027344 C 95.875 66.878906 95.789062 66.683594 95.789062 66.433594 C 95.789062 66.265625 95.847656 66.097656 95.972656 65.929688 C 96.097656 65.761719 96.277344 65.601562 96.515625 65.457031 C 96.757812 65.3125 97.085938 65.195312 97.503906 65.105469 C 97.921875 65.015625 98.394531 64.96875 98.929688 64.96875 C 99.472656 64.96875 99.949219 65.011719 100.363281 65.097656 C 100.777344 65.183594 101.117188 65.300781 101.382812 65.445312 C 101.648438 65.597656 101.863281 65.785156 102.03125 66.011719 C 102.191406 66.242188 102.308594 66.488281 102.378906 66.75 C 102.445312 67.011719 102.476562 67.3125 102.476562 67.648438 L 102.476562 70.816406 C 102.476562 71.085938 102.496094 71.296875 102.527344 71.449219 C 102.5625 71.59375 102.632812 71.722656 102.734375 71.832031 Z M 98.960938 71.179688 C 99.609375 71.179688 100.164062 70.980469 100.628906 70.574219 L 100.628906 69.039062 C 100.203125 68.664062 99.640625 68.476562 98.949219 68.476562 C 98.351562 68.476562 97.90625 68.609375 97.617188 68.875 C 97.328125 69.136719 97.1875 69.460938 97.199219 69.855469 C 97.207031 70.238281 97.371094 70.550781 97.6875 70.800781 C 98 71.054688 98.421875 71.179688 98.960938 71.179688 Z M 98.960938 71.179688 " fill-opacity="1" fill-rule="nonzero"/><path fill="#ffffff" d="M 105.515625 63.195312 C 105.515625 62.867188 105.488281 62.617188 105.433594 62.4375 C 105.378906 62.261719 105.28125 62.113281 105.132812 61.996094 C 106.140625 61.945312 106.890625 61.894531 107.378906 61.84375 L 107.378906 70.574219 C 107.378906 70.914062 107.40625 71.183594 107.457031 71.375 C 107.507812 71.566406 107.605469 71.71875 107.75 71.832031 L 105.152344 71.832031 C 105.292969 71.714844 105.386719 71.558594 105.4375 71.367188 C 105.492188 71.171875 105.515625 70.90625 105.515625 70.574219 Z M 105.515625 63.195312 " fill-opacity="1" fill-rule="nonzero"/><path fill="#ffffff" d="M 46.648438 12.910156 C 46.355469 12 45.921875 11.285156 45.347656 10.769531 C 44.777344 10.261719 44.085938 10.003906 43.28125 10.003906 C 42.15625 10.003906 41.195312 10.511719 40.394531 11.523438 C 39.59375 12.539062 38.929688 14.085938 38.410156 16.164062 C 37.785156 16.28125 37.226562 16.628906 36.730469 17.214844 C 36.230469 17.800781 35.832031 18.625 35.535156 19.683594 C 35.238281 20.738281 35.089844 21.996094 35.089844 23.457031 C 35.089844 24.933594 35.128906 26.90625 35.210938 29.382812 C 35.253906 30.667969 35.273438 31.625 35.273438 32.253906 C 35.273438 32.742188 35.261719 33.121094 35.234375 33.394531 L 35.378906 33.394531 C 35.535156 33.085938 35.742188 32.746094 35.992188 32.367188 C 36.25 31.992188 36.484375 31.695312 36.703125 31.476562 C 36.589844 30.210938 36.53125 27.339844 36.53125 22.863281 C 36.53125 22.199219 36.675781 21.664062 36.96875 21.257812 C 37.261719 20.851562 37.632812 20.652344 38.082031 20.652344 C 38.175781 20.652344 38.328125 20.671875 38.539062 20.714844 C 38.746094 20.757812 38.976562 20.808594 39.222656 20.863281 C 39.980469 21.046875 40.699219 21.191406 41.382812 21.304688 C 42.0625 21.421875 42.789062 21.476562 43.558594 21.476562 C 44.617188 21.476562 45.46875 21.058594 46.113281 20.226562 C 46.761719 19.390625 47.085938 18.007812 47.085938 16.074219 C 47.085938 14.878906 46.941406 13.824219 46.648438 12.910156 Z M 46.316406 16.902344 C 46.09375 17.015625 45.738281 17.074219 45.25 17.074219 C 44.160156 17.074219 43.007812 16.992188 41.796875 16.824219 C 40.585938 16.65625 39.582031 16.4375 38.785156 16.164062 C 39.617188 14.148438 40.921875 13.140625 42.707031 13.140625 C 43.5625 13.140625 44.289062 13.324219 44.882812 13.695312 C 45.476562 14.066406 45.921875 14.511719 46.214844 15.027344 C 46.503906 15.542969 46.652344 15.996094 46.652344 16.390625 C 46.652344 16.617188 46.539062 16.785156 46.316406 16.902344 Z M 46.316406 16.902344 " fill-opacity="1" fill-rule="nonzero"/><path fill="#ffffff" d="M 91.089844 25.042969 C 90.78125 24.8125 90.4375 24.519531 90.070312 24.542969 C 89.460938 24.578125 88.601562 25.839844 87.878906 26.109375 C 87.410156 25.667969 86.925781 25.261719 86.425781 24.894531 C 86.117188 24.667969 85.769531 24.375 85.402344 24.394531 C 84.660156 24.4375 83.554688 26.304688 82.765625 25.976562 C 82.59375 25.902344 82.882812 26.199219 82.847656 26.160156 C 83.050781 26.398438 83.316406 26.605469 83.542969 26.796875 C 84.007812 27.195312 84.527344 27.699219 85.0625 27.921875 C 85.433594 28.078125 85.757812 27.933594 86.074219 27.660156 C 86.320312 27.449219 87.097656 26.644531 87.609375 26.410156 C 87.796875 26.609375 88.015625 26.78125 88.207031 26.945312 C 88.675781 27.339844 89.191406 27.84375 89.726562 28.066406 C 90.097656 28.222656 90.421875 28.082031 90.742188 27.804688 C 91.042969 27.542969 92.175781 26.355469 92.597656 26.511719 C 92.839844 26.660156 93.101562 26.796875 92.824219 26.523438 C 92.273438 25.972656 91.695312 25.480469 91.089844 25.042969 Z M 91.089844 25.042969 " fill-opacity="1" fill-rule="nonzero"/><g clip-path="url(#e316a544e9)"><path fill="#ffffff" d="M 106.171875 0.046875 L 106.015625 0.046875 C 105.632812 0.667969 105.175781 1.324219 104.652344 2.015625 C 104.128906 2.707031 103.636719 3.285156 103.171875 3.746094 C 103.3125 4.4375 103.5 5.980469 103.742188 8.378906 C 103.980469 10.777344 104.191406 13.289062 104.375 15.910156 C 104.558594 18.53125 104.652344 20.578125 104.652344 22.046875 C 104.652344 22.4375 104.648438 22.71875 104.636719 22.886719 L 104.796875 22.886719 C 104.910156 22.476562 105.027344 22.082031 105.15625 21.707031 C 105.28125 21.328125 105.363281 21.089844 105.398438 20.980469 C 105.679688 20.15625 105.886719 19.4375 106.027344 18.824219 C 106.167969 18.21875 106.28125 17.382812 106.367188 16.3125 C 106.453125 15.242188 106.496094 13.804688 106.496094 12.003906 C 106.496094 10.25 106.453125 8.054688 106.359375 5.417969 C 106.492188 4.589844 107.179688 4.417969 107.640625 4.398438 L 107.75 4.078125 C 106.671875 2.695312 106.171875 0.046875 106.171875 0.046875 Z M 106.171875 0.046875 " fill-opacity="1" fill-rule="nonzero"/></g><path fill="#ffffff" d="M 59.1875 21.359375 C 59.144531 21.402344 59.171875 21.386719 59.1875 21.359375 Z M 59.1875 21.359375 " fill-opacity="1" fill-rule="nonzero"/><g clip-path="url(#b17e687020)"><path fill="#ffffff" d="M 99.90625 0.046875 C 99.167969 1.226562 98.023438 2.792969 97.0625 3.746094 C 97.714844 7.070312 98.886719 13.671875 99.015625 17.050781 C 98.714844 18.027344 96.75 17.960938 95.4375 18.019531 C 92 18.039062 91.539062 16.5625 91.699219 13.640625 L 91.414062 13.640625 C 89.925781 21.949219 66.867188 20.082031 60.722656 18.328125 C 60.660156 17.644531 60.613281 16.851562 60.570312 16.304688 L 60.570312 16.308594 C 60.394531 15.125 60.121094 13.664062 59.871094 13.042969 C 58.261719 8.722656 53.390625 9.070312 52.007812 13.359375 C 50.90625 16.402344 51.082031 21.246094 55.378906 21.039062 C 56.636719 21.050781 58.601562 20.710938 59.1875 21.359375 C 58.34375 23.449219 55.160156 25.261719 47.085938 26.734375 L 47.085938 26.894531 C 50.644531 27 50.6875 29.269531 53.96875 28.910156 C 57.28125 28.554688 59.535156 25.207031 60.230469 22.058594 C 60.402344 22.277344 60.546875 22.890625 60.570312 23.230469 C 60.570312 23.230469 60.941406 22.496094 60.859375 21.886719 C 71.109375 24.632812 84.21875 24.925781 90.855469 18.8125 C 91.03125 20.953125 92.25 22.464844 94.730469 22.410156 L 94.730469 22.394531 C 96.132812 22.433594 97.148438 22.296875 97.941406 21.21875 C 99.570312 18.855469 100.386719 15.21875 100.433594 12.386719 C 100.433594 10.019531 100.355469 7.925781 100.265625 5.402344 C 100.398438 4.582031 101.085938 4.414062 101.546875 4.394531 L 101.660156 4.078125 C 100.578125 2.695312 100.078125 0.046875 100.078125 0.046875 Z M 59.804688 18.027344 C 58.75 17.234375 56.402344 16.714844 54.265625 16.878906 C 53.648438 16.925781 53.019531 16.777344 52.535156 16.394531 C 49.648438 14.101562 59.035156 9.5625 59.808594 18.023438 C 59.808594 18.023438 59.804688 18.027344 59.804688 18.027344 Z M 59.804688 18.027344 " fill-opacity="1" fill-rule="nonzero"/></g><path fill="#ffffff" d="M 19.660156 54.550781 C 19.355469 54.328125 19.011719 54.03125 18.644531 54.050781 C 18.035156 54.089844 17.175781 55.347656 16.453125 55.617188 C 15.984375 55.175781 15.5 54.773438 15 54.40625 C 14.6875 54.179688 14.34375 53.882812 13.976562 53.90625 C 13.234375 53.953125 12.128906 55.816406 11.335938 55.484375 C 11.167969 55.417969 11.453125 55.714844 11.417969 55.671875 C 11.625 55.910156 11.890625 56.113281 12.113281 56.308594 C 12.582031 56.703125 13.101562 57.207031 13.632812 57.429688 C 14.003906 57.585938 14.332031 57.449219 14.648438 57.167969 C 14.890625 56.957031 15.664062 56.15625 16.183594 55.925781 C 16.371094 56.117188 16.585938 56.289062 16.78125 56.453125 C 17.25 56.851562 17.761719 57.355469 18.300781 57.578125 C 18.671875 57.734375 18.996094 57.59375 19.316406 57.316406 C 19.617188 57.050781 20.75 55.867188 21.171875 56.019531 C 21.414062 56.171875 21.671875 56.308594 21.394531 56.03125 C 20.84375 55.484375 20.265625 54.992188 19.660156 54.550781 Z M 19.660156 54.550781 " fill-opacity="1" fill-rule="nonzero"/><path fill="#ffffff" d="M 2.765625 31.421875 C 2.972656 31.660156 3.238281 31.863281 3.460938 32.054688 C 3.929688 32.449219 4.449219 32.953125 4.980469 33.179688 C 5.351562 33.332031 5.679688 33.195312 5.996094 32.917969 C 6.242188 32.707031 7.015625 31.902344 7.53125 31.671875 C 7.71875 31.863281 7.9375 32.039062 8.128906 32.199219 C 8.597656 32.597656 9.109375 33.101562 9.648438 33.328125 C 10.019531 33.480469 10.34375 33.339844 10.664062 33.066406 C 10.964844 32.804688 12.097656 31.617188 12.519531 31.765625 C 12.761719 31.917969 13.019531 32.058594 12.746094 31.785156 C 12.191406 31.230469 11.613281 30.738281 11.007812 30.296875 C 10.703125 30.074219 10.359375 29.777344 9.992188 29.804688 C 9.378906 29.835938 8.523438 31.097656 7.800781 31.367188 C 7.332031 30.921875 6.847656 30.519531 6.347656 30.152344 C 6.039062 29.929688 5.691406 29.628906 5.324219 29.652344 C 4.582031 29.699219 3.472656 31.5625 2.683594 31.238281 C 2.515625 31.164062 2.796875 31.460938 2.765625 31.421875 Z M 2.765625 31.421875 " fill-opacity="1" fill-rule="nonzero"/><path fill="#ffffff" d="M 41.257812 31.421875 C 41.460938 31.660156 41.726562 31.863281 41.957031 32.054688 C 42.425781 32.449219 42.9375 32.953125 43.476562 33.179688 C 43.84375 33.332031 44.171875 33.195312 44.492188 32.917969 C 44.730469 32.707031 45.507812 31.902344 46.023438 31.671875 C 46.207031 31.863281 46.429688 32.039062 46.621094 32.199219 C 47.085938 32.597656 47.601562 33.101562 48.140625 33.328125 C 48.511719 33.480469 48.839844 33.339844 49.152344 33.066406 C 49.457031 32.804688 50.585938 31.617188 51.011719 31.765625 C 51.25 31.917969 51.511719 32.058594 51.238281 31.785156 C 50.6875 31.230469 50.109375 30.738281 49.5 30.296875 C 49.195312 30.074219 48.851562 29.777344 48.480469 29.804688 C 47.875 29.835938 47.019531 31.097656 46.292969 31.367188 C 45.828125 30.921875 45.339844 30.519531 44.835938 30.152344 C 44.53125 29.929688 44.183594 29.628906 43.820312 29.652344 C 43.074219 29.699219 41.964844 31.5625 41.175781 31.238281 C 41.007812 31.164062 41.292969 31.460938 41.257812 31.421875 Z M 41.257812 31.421875 " fill-opacity="1" fill-rule="nonzero"/><path fill="#ffffff" d="M 50.339844 48.609375 C 51.015625 47.472656 51.351562 45.984375 51.351562 44.136719 C 51.351562 42.21875 51.167969 40.597656 50.796875 39.28125 C 50.425781 37.96875 49.890625 36.980469 49.191406 36.316406 C 48.496094 35.652344 47.644531 35.320312 46.648438 35.320312 C 45.710938 35.320312 44.902344 35.613281 44.222656 36.207031 C 43.542969 36.800781 43.027344 37.601562 42.671875 38.601562 C 42.316406 39.605469 42.140625 40.703125 42.140625 41.898438 C 42.140625 43.019531 42.449219 43.898438 43.070312 44.535156 C 43.691406 45.175781 44.59375 45.492188 45.769531 45.488281 C 47.117188 45.488281 48.1875 45.148438 48.976562 44.460938 C 49.765625 43.773438 50.210938 42.828125 50.308594 41.625 L 50.449219 41.582031 C 50.738281 42.394531 50.882812 43.28125 50.882812 44.234375 C 50.882812 44.582031 50.875 44.847656 50.855469 45.019531 C 50.855469 45.375 50.5625 45.75 49.980469 46.136719 C 49.394531 46.515625 48.4375 46.84375 47.109375 47.117188 C 45.78125 47.386719 44.074219 47.523438 41.996094 47.523438 L 41.121094 47.523438 C 40.148438 47.523438 39.34375 47.28125 38.714844 46.796875 C 38.078125 46.320312 37.503906 45.523438 36.988281 44.40625 C 36.496094 43.398438 36.035156 42.617188 35.605469 42.0625 C 35.171875 41.507812 34.746094 41.125 34.324219 40.910156 C 33.898438 40.695312 33.421875 40.585938 32.898438 40.585938 C 32.296875 40.589844 31.753906 40.738281 31.269531 41.035156 C 30.792969 41.332031 30.316406 41.820312 29.851562 42.503906 C 29.722656 42.691406 29.59375 42.898438 29.453125 43.125 C 28.632812 44.386719 26.714844 47.132812 25.460938 47.425781 C 25.105469 47.5 24.535156 47.527344 24.074219 47.523438 C 22.507812 47.515625 21.667969 47.269531 21.101562 46.785156 C 20.539062 46.304688 20.257812 45.589844 20.257812 44.636719 L 20.257812 43.136719 L 19.96875 43.136719 C 19.761719 44.390625 19.472656 45.316406 19.109375 45.902344 C 18.742188 46.492188 18.132812 46.90625 17.277344 47.148438 C 16.421875 47.386719 15.117188 47.503906 13.363281 47.503906 C 12.261719 47.503906 11.433594 47.199219 10.875 46.582031 C 10.316406 45.96875 10.039062 45.011719 10.035156 43.710938 C 10.035156 41.667969 10 40.078125 9.933594 38.9375 C 9.863281 37.800781 9.769531 36.761719 9.65625 35.816406 C 9.640625 35.730469 9.621094 35.589844 9.605469 35.398438 L 9.5 35.398438 C 9.167969 35.9375 8.765625 36.472656 8.292969 37 C 7.816406 37.527344 7.378906 37.945312 6.988281 38.253906 C 7.066406 38.574219 7.152344 39.019531 7.25 39.589844 C 5.347656 40.773438 3.882812 41.800781 2.859375 42.675781 C 1.832031 43.546875 1.117188 44.359375 0.71875 45.109375 C 0.316406 45.859375 0.117188 46.679688 0.117188 47.574219 C 0.117188 48.496094 0.394531 49.210938 0.949219 49.710938 C 1.5 50.214844 2.320312 50.464844 3.402344 50.464844 C 4.804688 50.464844 5.859375 50.074219 6.570312 49.285156 C 7.277344 48.5 7.714844 47.253906 7.890625 45.542969 L 8.046875 45.542969 C 8.101562 47.105469 8.308594 48.351562 8.671875 49.277344 C 9.03125 50.207031 9.539062 50.875 10.195312 51.285156 C 10.847656 51.6875 11.660156 51.886719 12.640625 51.890625 C 12.640625 51.890625 12.640625 51.890625 12.644531 51.890625 C 12.648438 51.890625 12.648438 51.890625 12.648438 51.890625 C 12.652344 51.890625 12.652344 51.890625 12.65625 51.890625 C 14.195312 51.890625 15.441406 51.710938 16.398438 51.351562 C 17.359375 50.996094 18.074219 50.429688 18.546875 49.652344 C 19.015625 48.875 19.269531 47.847656 19.304688 46.574219 L 19.476562 46.574219 C 19.429688 47.03125 19.40625 47.40625 19.40625 47.703125 C 19.40625 49.222656 19.761719 50.296875 20.472656 50.933594 C 21.183594 51.574219 22.105469 51.914062 23.269531 51.914062 C 25.214844 51.851562 26.035156 51.023438 26.699219 49.878906 C 26.703125 49.878906 26.703125 49.875 26.703125 49.871094 C 27.457031 48.578125 27.6875 47.136719 27.6875 47.136719 C 27.699219 47.089844 27.714844 47.035156 27.730469 46.980469 C 27.644531 47.523438 27.613281 48.003906 27.628906 48.425781 C 27.664062 49.160156 27.96875 49.832031 28.550781 50.441406 C 29.132812 51.046875 29.894531 51.523438 30.839844 51.871094 C 31.785156 52.214844 32.789062 52.386719 33.859375 52.386719 C 34.632812 52.386719 35.261719 51.980469 35.742188 51.167969 C 36.222656 50.351562 36.496094 49.140625 36.566406 47.535156 L 36.730469 47.535156 C 36.832031 48.996094 37.203125 50.089844 37.84375 50.820312 C 38.488281 51.546875 39.339844 51.914062 40.398438 51.914062 L 41.289062 51.914062 C 43.707031 51.914062 45.652344 51.648438 47.121094 51.117188 C 48.589844 50.582031 49.660156 49.746094 50.339844 48.609375 Z M 46.203125 41.9375 C 45.371094 41.9375 44.695312 41.855469 44.171875 41.683594 C 43.648438 41.511719 43.269531 41.3125 43.035156 41.085938 C 42.804688 40.859375 42.6875 40.652344 42.6875 40.46875 C 42.691406 40.179688 42.84375 39.867188 43.152344 39.53125 C 43.464844 39.195312 43.882812 38.910156 44.402344 38.675781 C 44.921875 38.441406 45.476562 38.320312 46.070312 38.316406 C 46.988281 38.316406 47.8125 38.5625 48.542969 39.054688 C 49.273438 39.542969 49.84375 40.226562 50.25 41.097656 C 49.074219 41.660156 47.726562 41.9375 46.203125 41.9375 Z M 6.65625 45.742188 C 5.925781 46.054688 4.984375 46.207031 3.832031 46.207031 C 2.917969 46.207031 2.277344 46.125 1.921875 45.964844 C 1.566406 45.796875 1.386719 45.53125 1.386719 45.164062 C 1.386719 44.808594 1.835938 44.28125 2.738281 43.589844 C 3.640625 42.902344 5.210938 42.003906 7.445312 40.898438 C 7.644531 42.378906 7.746094 43.5625 7.746094 44.445312 C 7.746094 45 7.382812 45.433594 6.65625 45.742188 Z M 35.695312 47.761719 C 35.410156 47.917969 34.984375 47.996094 34.417969 47.996094 C 33.832031 47.996094 33.152344 47.882812 32.382812 47.660156 C 31.605469 47.4375 30.886719 47.136719 30.214844 46.753906 C 29.550781 46.375 29.058594 45.953125 28.742188 45.488281 C 29.40625 44.320312 30.460938 43.734375 31.902344 43.734375 C 32.6875 43.734375 33.402344 43.917969 34.050781 44.285156 C 34.699219 44.652344 35.203125 45.105469 35.570312 45.640625 C 35.9375 46.179688 36.121094 46.683594 36.121094 47.15625 C 36.121094 47.410156 35.980469 47.613281 35.695312 47.761719 Z M 35.695312 47.761719 " fill-opacity="1" fill-rule="nonzero"/><path fill="#ffffff" d="M 106.171875 29.222656 L 106.015625 29.222656 C 105.632812 29.84375 105.175781 30.496094 104.652344 31.1875 C 104.128906 31.878906 103.636719 32.453125 103.171875 32.917969 C 103.3125 33.609375 103.5 35.152344 103.742188 37.550781 C 103.980469 39.949219 104.191406 42.460938 104.375 45.085938 C 104.558594 47.707031 104.652344 49.75 104.652344 51.21875 C 104.652344 51.613281 104.648438 51.894531 104.636719 52.058594 L 104.796875 52.058594 C 104.910156 51.644531 105.027344 51.25 105.15625 50.875 C 105.28125 50.503906 105.363281 50.261719 105.398438 50.15625 C 105.679688 49.328125 105.886719 48.609375 106.027344 48 C 106.167969 47.394531 106.28125 46.554688 106.367188 45.484375 C 106.453125 44.414062 106.496094 42.976562 106.496094 41.175781 C 106.496094 39.421875 106.453125 37.226562 106.359375 34.585938 C 106.492188 33.761719 107.179688 33.589844 107.640625 33.574219 L 107.75 33.25 C 106.671875 31.871094 106.171875 29.222656 106.171875 29.222656 Z M 106.171875 29.222656 " fill-opacity="1" fill-rule="nonzero"/><path fill="#ffffff" d="M 99.058594 29.183594 C 98.320312 30.363281 97.179688 31.933594 96.21875 32.886719 C 96.433594 33.957031 97.027344 37.574219 97.457031 40.257812 C 97.53125 40.785156 97.984375 43.527344 98.035156 43.960938 C 98.082031 44.335938 98.066406 44.710938 97.992188 45.085938 C 97.847656 45.738281 97.59375 45.785156 96.234375 46.445312 C 96.136719 46.492188 95.074219 46.960938 94.457031 47.238281 C 94.453125 47.238281 94.445312 47.238281 94.441406 47.238281 C 94.429688 47.238281 94.425781 47.242188 94.417969 47.253906 C 94.207031 47.34375 94.058594 47.414062 94.023438 47.429688 C 85.660156 51.101562 69.558594 49.835938 61.601562 48.042969 C 61.597656 48.039062 61.589844 48.035156 61.585938 48.035156 C 60.292969 47.738281 59.203125 46.878906 58.554688 45.726562 C 58.46875 45.570312 58.386719 45.425781 58.308594 45.300781 C 57.949219 44.699219 57.605469 43.898438 57.28125 42.90625 C 57.230469 42.707031 57.175781 42.511719 57.121094 42.320312 L 56.960938 42.320312 C 56.753906 42.957031 56.496094 43.613281 56.191406 44.289062 C 55.886719 44.964844 55.625 45.449219 55.40625 45.742188 C 56.347656 48.117188 57.320312 49.753906 58.324219 50.65625 C 57.363281 52.660156 54.0625 54.484375 46.238281 55.90625 L 46.238281 56.066406 C 49.792969 56.171875 49.835938 58.441406 53.121094 58.085938 C 56.367188 57.734375 58.597656 54.503906 59.339844 51.414062 C 59.828125 51.753906 60.359375 52.027344 60.929688 52.234375 C 61.308594 52.375 61.722656 52.503906 62.175781 52.632812 C 62.191406 52.636719 62.203125 52.640625 62.214844 52.644531 C 72.765625 55.214844 85.339844 55.679688 93.894531 51.5 C 95.410156 50.753906 96.800781 49.867188 98.03125 48.816406 C 98.183594 48.480469 98.332031 48.125 98.46875 47.742188 C 98.839844 46.707031 99.121094 45.652344 99.3125 44.578125 C 99.441406 43.875 99.527344 43.21875 99.570312 42.605469 C 99.59375 42.277344 99.605469 41.960938 99.605469 41.660156 C 99.605469 41.195312 99.601562 40.730469 99.597656 40.257812 L 99.601562 40.257812 C 99.597656 40.152344 99.597656 40.042969 99.597656 39.933594 C 99.582031 39.011719 99.558594 38.105469 99.523438 37.175781 C 99.5 36.398438 99.46875 35.511719 99.429688 34.527344 C 99.566406 33.710938 100.25 33.542969 100.707031 33.527344 L 100.820312 33.207031 C 99.734375 31.828125 99.230469 29.183594 99.230469 29.183594 Z M 99.058594 29.183594 " fill-opacity="1" fill-rule="nonzero"/><path fill="#ffffff" d="M 193.117188 31.617188 L 190.261719 28.5625 L 187.894531 26.03125 L 177.679688 15.113281 C 176.449219 13.792969 174.707031 13.039062 172.90625 13.039062 L 133.917969 13.039062 C 133.386719 13.039062 132.871094 13.105469 132.375 13.234375 C 130.613281 13.691406 129.15625 14.917969 128.398438 16.664062 C 127.429688 18.898438 127.859375 21.394531 129.523438 23.171875 L 132.375 26.226562 L 134.742188 28.753906 L 144.957031 39.675781 C 146.1875 40.992188 147.929688 41.75 149.730469 41.75 L 188.714844 41.75 C 189.253906 41.75 189.769531 41.683594 190.261719 41.554688 C 192.027344 41.097656 193.480469 39.867188 194.238281 38.125 C 195.207031 35.890625 194.777344 33.394531 193.117188 31.617188 Z M 191.742188 37.039062 C 191.199219 38.285156 190.074219 39.023438 188.714844 39.023438 L 149.730469 39.023438 C 148.679688 39.023438 147.664062 38.582031 146.945312 37.8125 L 138.46875 28.753906 L 135.925781 26.03125 L 131.511719 21.3125 C 130.589844 20.324219 130.355469 18.992188 130.898438 17.746094 C 131.4375 16.503906 132.566406 15.765625 133.917969 15.765625 L 172.90625 15.765625 C 173.953125 15.765625 174.972656 16.203125 175.691406 16.972656 L 184.160156 26.03125 L 186.710938 28.753906 L 191.128906 33.476562 C 192.046875 34.464844 192.28125 35.796875 191.742188 37.039062 Z M 191.742188 37.039062 " fill-opacity="1" fill-rule="nonzero"/><g clip-path="url(#a5e6da4f76)"><path fill="#ffffff" d="M 193.117188 18.625 L 177.679688 2.117188 C 176.449219 0.804688 174.707031 0.046875 172.90625 0.046875 L 133.917969 0.046875 C 131.484375 0.046875 129.367188 1.433594 128.398438 3.671875 C 127.429688 5.90625 127.859375 8.398438 129.523438 10.179688 L 132.375 13.234375 L 134.742188 15.765625 L 144.347656 26.03125 L 144.957031 26.6875 C 146.1875 28 147.929688 28.753906 149.730469 28.753906 L 188.714844 28.753906 C 189.25 28.753906 189.765625 28.6875 190.261719 28.5625 C 192.023438 28.109375 193.480469 26.878906 194.238281 25.132812 C 195.207031 22.894531 194.777344 20.402344 193.117188 18.625 Z M 191.742188 24.046875 C 191.199219 25.292969 190.074219 26.03125 188.714844 26.03125 L 149.730469 26.03125 C 148.675781 26.03125 147.664062 25.59375 146.945312 24.820312 L 138.46875 15.765625 L 135.925781 13.039062 L 131.511719 8.320312 C 130.589844 7.332031 130.355469 5.996094 130.898438 4.757812 C 131.4375 3.511719 132.566406 2.773438 133.917969 2.773438 L 172.90625 2.773438 C 173.953125 2.773438 174.972656 3.210938 175.691406 3.976562 L 191.128906 20.484375 C 192.046875 21.472656 192.28125 22.808594 191.742188 24.046875 Z M 191.742188 24.046875 " fill-opacity="1" fill-rule="nonzero"/></g><g clip-path="url(#d86c420808)"><g clip-path="url(#4c7776697d)"><path fill="url(#5656524802)" d="M 138.46875 15.765625 L 138.46875 26.03125 L 184.160156 26.03125 L 184.160156 15.765625 Z M 138.46875 15.765625 " fill-rule="nonzero"/></g></g><path fill="#ffffff" d="M 193.117188 44.605469 L 190.261719 41.554688 L 187.894531 39.023438 L 178.289062 28.753906 L 177.679688 28.101562 C 176.449219 26.789062 174.707031 26.03125 172.90625 26.03125 L 133.917969 26.03125 C 133.386719 26.03125 132.871094 26.097656 132.375 26.226562 C 130.613281 26.675781 129.15625 27.910156 128.398438 29.65625 C 127.429688 31.890625 127.859375 34.382812 129.523438 36.164062 L 144.957031 52.671875 C 146.1875 53.984375 147.929688 54.738281 149.730469 54.738281 L 188.714844 54.738281 C 191.152344 54.738281 193.269531 53.351562 194.238281 51.117188 C 195.207031 48.878906 194.777344 46.386719 193.117188 44.605469 Z M 191.742188 50.03125 C 191.199219 51.277344 190.074219 52.015625 188.714844 52.015625 L 149.730469 52.015625 C 148.675781 52.015625 147.664062 51.574219 146.945312 50.804688 L 131.511719 34.300781 C 130.589844 33.316406 130.355469 31.980469 130.898438 30.742188 C 131.4375 29.496094 132.566406 28.753906 133.917969 28.753906 L 172.90625 28.753906 C 173.953125 28.753906 174.972656 29.195312 175.691406 29.960938 L 184.160156 39.023438 L 186.714844 41.75 L 191.128906 46.46875 C 192.046875 47.457031 192.28125 48.789062 191.742188 50.03125 Z M 191.742188 50.03125 " fill-opacity="1" fill-rule="nonzero"/><g clip-path="url(#971b5564f8)"><g clip-path="url(#e9b6b9fdbd)"><path fill="url(#fa86bee269)" d="M 138.46875 28.753906 L 138.46875 39.023438 L 184.160156 39.023438 L 184.160156 28.753906 Z M 138.46875 28.753906 " fill-rule="nonzero"/></g></g></svg>