<svg xmlns="http://www.w3.org/2000/svg" xmlns:xlink="http://www.w3.org/1999/xlink" width="238" zoomAndPan="magnify" viewBox="0 0 178.5 74.999997" height="100" preserveAspectRatio="xMidYMid meet" version="1.0"><defs><clipPath id="3afad5729f"><path d="M 108 23 L 177.757812 23 L 177.757812 74.738281 L 108 74.738281 Z M 108 23 " clip-rule="nonzero"/></clipPath><clipPath id="4e58cfa1cb"><path d="M 104 0.105469 L 174 0.105469 L 174 52 L 104 52 Z M 104 0.105469 " clip-rule="nonzero"/></clipPath></defs><path fill="#ffffff" d="M 13.519531 44.796875 L 0 44.796875 L 0 66.335938 L 13.519531 66.335938 C 16.375 66.335938 19.113281 65.203125 21.132812 63.183594 C 23.152344 61.164062 24.289062 58.421875 24.289062 55.566406 C 24.289062 52.710938 23.152344 49.972656 21.132812 47.953125 C 19.113281 45.933594 16.375 44.796875 13.519531 44.796875 Z M 13.519531 60.921875 L 5.414062 60.921875 L 5.414062 50.21875 L 13.519531 50.21875 C 14.941406 50.21875 16.300781 50.785156 17.304688 51.789062 C 18.308594 52.792969 18.875 54.15625 18.875 55.574219 C 18.875 56.996094 18.308594 58.359375 17.304688 59.363281 C 16.300781 60.367188 14.941406 60.929688 13.519531 60.929688 Z M 13.519531 60.921875 " fill-opacity="1" fill-rule="nonzero"/><path fill="#ffffff" d="M 58.640625 56.503906 L 58.640625 57.328125 C 58.640625 59.714844 59.589844 62.003906 61.277344 63.691406 C 62.964844 65.378906 65.253906 66.328125 67.640625 66.328125 L 78.367188 66.328125 L 78.367188 47.503906 L 67.640625 47.503906 C 65.253906 47.507812 62.964844 48.457031 61.277344 50.140625 C 59.589844 51.828125 58.640625 54.117188 58.640625 56.503906 Z M 72.941406 60.914062 L 67.628906 60.914062 C 66.683594 60.910156 65.773438 60.535156 65.101562 59.863281 C 64.433594 59.195312 64.054688 58.285156 64.054688 57.335938 L 64.054688 56.511719 C 64.054688 55.5625 64.433594 54.65625 65.101562 53.984375 C 65.773438 53.3125 66.683594 52.9375 67.628906 52.9375 L 72.941406 52.9375 L 72.941406 60.921875 Z M 72.941406 60.914062 " fill-opacity="1" fill-rule="nonzero"/><path fill="#ffffff" d="M 46.753906 47.503906 L 36.277344 47.503906 L 36.277344 66.335938 L 41.691406 66.335938 L 41.691406 52.917969 L 46.753906 52.917969 C 47.703125 52.921875 48.613281 53.296875 49.28125 53.96875 C 49.953125 54.636719 50.328125 55.546875 50.332031 56.496094 L 50.332031 66.328125 L 55.746094 66.328125 L 55.746094 56.496094 C 55.742188 54.109375 54.792969 51.820312 53.105469 50.132812 C 51.421875 48.445312 49.132812 47.5 46.746094 47.496094 Z M 46.753906 47.503906 " fill-opacity="1" fill-rule="nonzero"/><path fill="#ffffff" d="M 84.707031 16.039062 L 74.875 16.039062 L 74.875 21.453125 L 84.707031 21.453125 C 85.65625 21.457031 86.566406 21.832031 87.238281 22.503906 C 87.90625 23.175781 88.285156 24.089844 88.285156 25.039062 L 88.285156 30.101562 L 74.867188 30.101562 L 74.867188 35.515625 L 93.699219 35.515625 L 93.699219 25.039062 C 93.695312 22.652344 92.746094 20.363281 91.058594 18.675781 C 89.371094 16.988281 87.085938 16.042969 84.699219 16.039062 Z M 84.707031 16.039062 " fill-opacity="1" fill-rule="nonzero"/><path fill="#ffffff" d="M 54.433594 32.914062 C 56.113281 34.578125 58.386719 35.511719 60.75 35.507812 L 71.230469 35.507812 L 71.230469 16.023438 L 65.816406 16.023438 L 65.816406 30.085938 L 60.75 30.085938 C 59.804688 30.085938 58.894531 29.707031 58.222656 29.039062 C 57.554688 28.367188 57.175781 27.457031 57.175781 26.511719 L 57.175781 16.023438 L 51.761719 16.023438 L 51.761719 26.398438 C 51.761719 27.378906 51.371094 28.316406 50.679688 29.007812 C 49.988281 29.695312 49.050781 30.085938 48.074219 30.085938 L 20.753906 30.085938 L 20.753906 10.183594 L 15.339844 10.183594 L 15.339844 35.5 L 48.074219 35.5 C 50.457031 35.5 52.742188 34.570312 54.441406 32.902344 Z M 54.433594 32.914062 " fill-opacity="1" fill-rule="nonzero"/><path fill="#ffffff" d="M 81.976562 56.503906 L 81.976562 66.464844 L 87.390625 66.464844 L 87.390625 56.503906 C 87.390625 55.554688 87.769531 54.644531 88.4375 53.972656 C 89.109375 53.300781 90.015625 52.921875 90.964844 52.917969 L 93.699219 52.917969 L 93.699219 47.503906 L 90.964844 47.503906 C 88.578125 47.507812 86.292969 48.457031 84.605469 50.140625 C 82.917969 51.828125 81.96875 54.117188 81.964844 56.503906 Z M 81.976562 56.503906 " fill-opacity="1" fill-rule="nonzero"/><path fill="#ffffff" d="M 11.722656 31.160156 L 11.722656 17.578125 L 6.308594 17.578125 L 6.308594 31.160156 C 6.308594 32.105469 5.929688 33.015625 5.257812 33.6875 C 4.589844 34.355469 3.679688 34.734375 2.734375 34.734375 L 0 34.734375 L 0 40.148438 L 2.734375 40.148438 C 5.117188 40.148438 7.40625 39.199219 9.09375 37.511719 C 10.78125 35.824219 11.730469 33.535156 11.730469 31.148438 Z M 11.722656 31.160156 " fill-opacity="1" fill-rule="nonzero"/><path fill="#ffffff" d="M 37.476562 19.777344 C 39.007812 19.777344 40.25 18.535156 40.25 17 C 40.25 15.46875 39.007812 14.226562 37.476562 14.226562 C 35.941406 14.226562 34.699219 15.46875 34.699219 17 C 34.699219 18.535156 35.941406 19.777344 37.476562 19.777344 Z M 37.476562 19.777344 " fill-opacity="1" fill-rule="nonzero"/><path fill="#ffffff" d="M 65.757812 44.414062 C 67.289062 44.414062 68.53125 43.171875 68.53125 41.640625 C 68.53125 40.105469 67.289062 38.863281 65.757812 38.863281 C 64.222656 38.863281 62.980469 40.105469 62.980469 41.640625 C 62.980469 43.171875 64.222656 44.414062 65.757812 44.414062 Z M 65.757812 44.414062 " fill-opacity="1" fill-rule="nonzero"/><path fill="#ffffff" d="M 59.304688 44.414062 C 60.835938 44.414062 62.078125 43.171875 62.078125 41.640625 C 62.078125 40.105469 60.835938 38.863281 59.304688 38.863281 C 57.769531 38.863281 56.527344 40.105469 56.527344 41.640625 C 56.527344 43.171875 57.769531 44.414062 59.304688 44.414062 Z M 59.304688 44.414062 " fill-opacity="1" fill-rule="nonzero"/><path fill="#ffffff" d="M 30.019531 46.089844 C 31.550781 46.089844 32.792969 44.847656 32.792969 43.316406 C 32.792969 41.78125 31.550781 40.539062 30.019531 40.539062 C 28.484375 40.539062 27.242188 41.78125 27.242188 43.316406 C 27.242188 44.847656 28.484375 46.089844 30.019531 46.089844 Z M 30.019531 46.089844 " fill-opacity="1" fill-rule="nonzero"/><path fill="#ffffff" d="M 32.65625 47.503906 L 27.242188 47.503906 L 27.242188 66.335938 L 32.65625 66.335938 Z M 32.65625 47.503906 " fill-opacity="1" fill-rule="nonzero"/><g clip-path="url(#3afad5729f)"><path fill="#737373" d="M 151 69.160156 C 132.484375 78.398438 114.046875 75.902344 109.824219 63.578125 C 108.570312 59.914062 108.707031 55.804688 110.011719 51.589844 C 117.699219 57.589844 131.964844 57.464844 146.277344 50.320312 C 159.300781 43.824219 168.898438 33.25 171.980469 23.257812 C 174.253906 25.007812 175.960938 27.394531 176.890625 30.109375 C 181.113281 42.4375 169.527344 59.925781 151 69.160156 Z M 151 69.160156 " fill-opacity="1" fill-rule="nonzero"/></g><path fill="#a6a6a6" d="M 171.96875 23.257812 C 168.886719 33.253906 159.292969 43.828125 146.269531 50.324219 C 131.957031 57.464844 117.6875 57.59375 110 51.589844 C 113.082031 41.597656 122.679688 31.023438 135.703125 24.527344 C 150.015625 17.382812 164.28125 17.257812 171.96875 23.257812 Z M 171.96875 23.257812 " fill-opacity="1" fill-rule="nonzero"/><g clip-path="url(#4e58cfa1cb)"><path fill="#d9d9d9" d="M 171.96875 23.257812 C 164.28125 17.257812 150.015625 17.382812 135.703125 24.527344 C 122.675781 31.023438 113.082031 41.605469 110 51.589844 C 107.726562 49.839844 106.015625 47.453125 105.089844 44.738281 C 100.867188 32.410156 112.453125 14.921875 130.976562 5.6875 C 149.496094 -3.558594 167.933594 -1.054688 172.15625 11.269531 C 173.410156 14.933594 173.273438 19.042969 171.96875 23.257812 Z M 171.96875 23.257812 " fill-opacity="1" fill-rule="nonzero"/></g></svg>