<svg xmlns="http://www.w3.org/2000/svg" xmlns:xlink="http://www.w3.org/1999/xlink" width="334" zoomAndPan="magnify" viewBox="0 0 250.5 74.999997" height="100" preserveAspectRatio="xMidYMid meet" version="1.0"><defs><clipPath id="4e1b8ce913"><path d="M 0 0.0742188 L 249.253906 0.0742188 L 249.253906 74.925781 L 0 74.925781 Z M 0 0.0742188 " clip-rule="nonzero"/></clipPath><clipPath id="1df1269379"><path d="M 70.886719 16.136719 C 74.675781 16.136719 77.636719 16.960938 79.753906 18.605469 C 81.871094 20.246094 83.398438 22.453125 84.320312 25.214844 C 85.242188 27.976562 85.710938 31.058594 85.710938 34.445312 L 85.710938 56.183594 L 75.226562 56.183594 L 75.226562 35.785156 C 75.226562 34.589844 75.125 33.390625 74.925781 32.195312 C 74.726562 31.007812 74.367188 29.910156 73.84375 28.910156 C 73.320312 27.914062 72.582031 27.121094 71.636719 26.523438 C 70.800781 26 69.742188 25.703125 68.453125 25.636719 L 67.886719 25.625 C 65.894531 25.625 64.222656 26.121094 62.875 27.121094 C 61.523438 28.117188 60.527344 29.457031 59.878906 31.152344 C 59.238281 32.832031 58.910156 34.691406 58.90625 36.714844 L 58.90625 36.757812 L 58.828125 56.183594 L 58.824219 56.183594 L 58.824219 56.707031 C 58.824219 66.753906 50.636719 74.925781 40.570312 74.925781 L 39.5625 74.925781 L 38.625 74.898438 C 28.992188 74.410156 21.308594 66.441406 21.308594 56.707031 L 21.308594 55.8125 C 3.796875 57.308594 0.648438 46.300781 0.183594 43.976562 C -0.367188 41.238281 0.195312 36.902344 3.589844 33.695312 C 5.972656 31.449219 10.414062 29.175781 18.054688 31.140625 C 24.644531 32.839844 28.238281 36.6875 30.035156 40.417969 C 30.347656 39.894531 30.632812 39.339844 30.890625 38.738281 C 32.328125 35.386719 32.382812 32.0625 32.382812 32.003906 L 32.382812 18.019531 L 42.65625 18.019531 L 42.65625 32.035156 C 42.65625 32.550781 42.59375 37.257812 40.496094 42.382812 C 38.582031 47.054688 35.519531 50.636719 31.582031 52.917969 L 31.582031 56.703125 C 31.582031 60.960938 34.9375 64.445312 39.152344 64.660156 L 39.5625 64.667969 L 40.570312 64.667969 C 44.972656 64.667969 48.550781 61.097656 48.550781 56.703125 L 48.550781 55.433594 L 48.429688 16.8125 L 58.234375 16.8125 L 58.761719 21.363281 C 59.855469 20.019531 61.117188 18.964844 62.542969 18.191406 C 63.960938 17.421875 65.410156 16.886719 66.878906 16.585938 C 68.351562 16.289062 69.6875 16.136719 70.886719 16.136719 Z M 149.558594 16.136719 C 153.457031 16.136719 156.671875 17.03125 159.214844 18.824219 C 161.285156 20.285156 162.929688 22.164062 164.160156 24.453125 L 164.449219 25.015625 C 164.621094 25.375 164.785156 25.738281 164.941406 26.109375 C 166.214844 29.175781 166.855469 32.5 166.855469 36.382812 C 166.855469 40.269531 166.191406 43.746094 164.867188 46.804688 C 163.542969 49.871094 161.5625 52.285156 158.917969 54.054688 C 156.269531 55.820312 152.976562 56.707031 149.035156 56.707031 C 147.335938 56.707031 145.742188 56.503906 144.246094 56.109375 C 142.75 55.710938 141.421875 55.175781 140.277344 54.503906 C 139.273438 53.914062 138.398438 53.261719 137.664062 52.539062 L 137.359375 52.222656 L 137.359375 70.902344 L 126.875 70.902344 L 126.875 16.8125 L 136.683594 16.8125 L 137.125 20.941406 L 137.207031 21.742188 C 138.800781 19.800781 140.636719 18.378906 142.714844 17.484375 C 144.730469 16.605469 146.957031 16.15625 149.378906 16.144531 C 149.4375 16.136719 149.5 16.136719 149.558594 16.136719 Z M 107.21875 16.160156 C 109.535156 16.253906 111.695312 16.683594 113.703125 17.449219 C 116 18.316406 117.898438 19.664062 119.394531 21.484375 C 120.886719 23.296875 121.816406 25.652344 122.164062 28.539062 L 112.132812 28.539062 L 112.035156 28.136719 C 111.753906 27.226562 111.113281 26.472656 110.109375 25.890625 C 108.960938 25.214844 107.539062 24.875 105.84375 24.875 C 105.246094 24.875 104.605469 24.925781 103.933594 25.027344 C 103.265625 25.128906 102.652344 25.304688 102.105469 25.550781 C 101.546875 25.800781 101.101562 26.132812 100.753906 26.558594 C 100.40625 26.984375 100.230469 27.542969 100.230469 28.242188 C 100.230469 28.789062 100.386719 29.289062 100.714844 29.738281 C 101.039062 30.183594 101.511719 30.554688 102.140625 30.855469 C 102.761719 31.152344 103.523438 31.429688 104.417969 31.675781 C 106.117188 32.078125 107.824219 32.4375 109.546875 32.757812 C 111.269531 33.085938 112.808594 33.417969 114.152344 33.769531 C 115.796875 34.117188 117.3125 34.691406 118.679688 35.488281 L 118.679688 35.492188 C 120.054688 36.285156 121.179688 37.367188 122.050781 38.742188 C 122.925781 40.113281 123.363281 41.886719 123.363281 44.078125 C 123.363281 46.570312 122.863281 48.625 121.867188 50.242188 C 120.863281 51.867188 119.53125 53.144531 117.859375 54.09375 C 116.1875 55.039062 114.367188 55.710938 112.390625 56.109375 C 110.425781 56.507812 108.460938 56.707031 106.519531 56.707031 C 104.671875 56.707031 102.773438 56.507812 100.828125 56.109375 C 98.882812 55.710938 97.082031 55.027344 95.4375 54.058594 C 93.792969 53.082031 92.398438 51.765625 91.25 50.097656 C 90.101562 48.429688 89.351562 46.34375 89.003906 43.859375 L 99.632812 43.859375 C 99.929688 44.753906 100.464844 45.527344 101.242188 46.175781 C 102.015625 46.824219 102.914062 47.292969 103.933594 47.589844 C 104.957031 47.894531 105.996094 48.039062 107.042969 48.039062 C 107.746094 48.039062 108.4375 47.996094 109.136719 47.894531 C 109.839844 47.792969 110.488281 47.589844 111.085938 47.292969 C 111.6875 46.992188 112.160156 46.609375 112.503906 46.136719 C 112.851562 45.664062 113.03125 45.054688 113.03125 44.304688 C 113.027344 43.511719 112.78125 42.886719 112.285156 42.4375 C 111.78125 41.988281 111.085938 41.628906 110.183594 41.351562 C 109.289062 41.082031 108.265625 40.816406 107.121094 40.570312 C 105.070312 40.125 102.875 39.621094 100.527344 39.074219 C 98.179688 38.527344 96.160156 37.734375 94.464844 36.6875 C 93.765625 36.191406 93.140625 35.636719 92.59375 35.039062 C 92.042969 34.445312 91.59375 33.773438 91.25 33.023438 C 90.894531 32.273438 90.625 31.492188 90.421875 30.667969 C 90.226562 29.851562 90.125 28.960938 90.125 28.019531 C 90.125 25.878906 90.585938 24.046875 91.507812 22.53125 C 92.433594 21.007812 93.671875 19.777344 95.21875 18.824219 C 96.761719 17.882812 98.484375 17.195312 100.382812 16.773438 C 102.273438 16.351562 104.222656 16.140625 106.21875 16.140625 Z M 231.261719 16.136719 C 231.609375 16.136719 231.949219 16.144531 232.285156 16.164062 L 232.316406 16.164062 L 232.382812 16.171875 C 232.421875 16.171875 232.457031 16.167969 232.492188 16.175781 C 232.664062 16.175781 232.828125 16.1875 232.988281 16.207031 C 233.023438 16.207031 233.046875 16.207031 233.078125 16.214844 C 235.316406 16.371094 237.328125 16.839844 239.121094 17.628906 C 241.394531 18.621094 243.316406 20.023438 244.886719 21.816406 C 246.457031 23.609375 247.628906 25.6875 248.40625 28.054688 L 248.410156 28.054688 C 249.132812 30.277344 249.5 32.664062 249.5 35.214844 L 249.5 35.34375 C 249.5 35.464844 249.5 35.582031 249.492188 35.710938 C 249.492188 35.785156 249.492188 35.859375 249.484375 35.929688 C 249.492188 35.9375 249.484375 35.941406 249.484375 35.949219 C 249.484375 36.566406 249.460938 37.15625 249.417969 37.730469 C 249.367188 38.375 249.273438 39.027344 249.121094 39.671875 L 222.089844 39.671875 C 222.242188 41.167969 222.671875 42.535156 223.363281 43.78125 C 224.066406 45.027344 225.050781 46.007812 226.324219 46.734375 C 227.597656 47.457031 229.183594 47.816406 231.078125 47.816406 C 232.320312 47.816406 233.46875 47.675781 234.515625 47.402344 C 235.570312 47.132812 236.464844 46.695312 237.214844 46.097656 C 237.96875 45.5 238.492188 44.800781 238.789062 44.007812 L 249.121094 44.007812 C 249.011719 44.5 248.886719 44.972656 248.746094 45.429688 C 248.734375 45.46875 248.730469 45.5 248.71875 45.53125 C 248.710938 45.558594 248.703125 45.582031 248.691406 45.605469 C 247.992188 47.828125 246.925781 49.710938 245.488281 51.253906 C 243.714844 53.144531 241.582031 54.527344 239.089844 55.402344 C 236.59375 56.269531 233.96875 56.707031 231.230469 56.707031 C 227.085938 56.707031 223.566406 55.882812 220.671875 54.242188 C 217.777344 52.59375 215.554688 50.273438 214.011719 47.257812 C 212.457031 44.242188 211.691406 40.773438 211.691406 36.6875 C 211.691406 32.597656 212.484375 29.023438 214.085938 25.964844 C 215.683594 22.898438 217.941406 20.5 220.859375 18.757812 C 223.226562 17.339844 225.957031 16.496094 229.039062 16.234375 C 229.269531 16.207031 229.515625 16.195312 229.753906 16.183594 C 230.226562 16.152344 230.707031 16.136719 231.199219 16.136719 Z M 181.449219 56.183594 L 170.964844 56.183594 L 170.964844 16.8125 L 181.449219 16.8125 Z M 208.617188 16.140625 C 209.265625 16.140625 209.867188 16.148438 210.414062 16.175781 C 210.964844 16.199219 211.367188 16.214844 211.613281 16.214844 L 211.613281 26.300781 L 209.144531 26.300781 C 206.800781 26.300781 204.75 26.695312 203.003906 27.496094 C 201.253906 28.289062 199.925781 29.535156 198.996094 31.226562 C 198.078125 32.921875 197.617188 35.085938 197.617188 37.730469 L 197.617188 56.183594 L 187.140625 56.183594 L 187.140625 16.8125 L 196.570312 16.8125 L 197.246094 21.515625 C 198.242188 20.023438 199.363281 18.890625 200.613281 18.113281 C 201.855469 17.347656 203.15625 16.824219 204.503906 16.546875 C 205.847656 16.277344 207.222656 16.136719 208.617188 16.136719 Z M 147.097656 24.40625 C 144.730469 24.40625 142.746094 24.964844 141.125 26.09375 C 139.507812 27.21875 138.285156 28.710938 137.464844 30.5625 C 136.644531 32.414062 136.234375 34.371094 136.234375 36.574219 C 136.234375 38.777344 136.621094 40.792969 137.390625 42.617188 C 138.160156 44.449219 139.363281 45.898438 141.011719 46.972656 C 142.652344 48.050781 144.632812 48.589844 147.25 48.589844 C 149.867188 48.589844 151.921875 48.023438 153.410156 46.898438 C 154.898438 45.769531 155.980469 44.296875 156.648438 42.464844 L 156.648438 42.46875 C 157.308594 40.640625 157.644531 38.789062 157.644531 36.640625 C 157.644531 34.496094 157.296875 32.488281 156.609375 30.636719 C 155.914062 28.785156 154.800781 27.28125 153.253906 26.128906 C 151.714844 24.980469 149.660156 24.40625 147.097656 24.40625 Z M 15.484375 41.066406 C 12.816406 40.382812 11.265625 40.632812 10.703125 41.097656 C 10.34375 41.386719 10.273438 41.886719 10.273438 42.023438 C 10.773438 44.289062 13.882812 46.296875 21.082031 45.53125 C 20.628906 44.082031 19.300781 42.054688 15.484375 41.066406 Z M 230.972656 23.800781 C 228.835938 23.800781 227.054688 24.226562 225.632812 25.078125 C 224.214844 25.933594 223.117188 27.035156 222.355469 28.382812 C 221.597656 29.734375 221.164062 31.164062 221.0625 32.667969 L 221.0625 32.671875 L 240.421875 32.671875 C 240.421875 31.015625 240.042969 29.511719 239.28125 28.164062 C 238.515625 26.808594 237.4375 25.746094 236.035156 24.964844 C 234.816406 24.285156 233.371094 23.902344 231.703125 23.816406 Z M 37.523438 0.0742188 C 41.4375 0.0742188 44.613281 3.242188 44.613281 7.152344 C 44.613281 11.058594 41.4375 14.226562 37.523438 14.226562 C 33.605469 14.226562 30.433594 11.058594 30.433594 7.152344 C 30.433594 3.242188 33.605469 0.0742188 37.523438 0.0742188 Z M 176.28125 0.078125 C 177.921875 0.078125 179.347656 0.59375 180.570312 1.617188 L 180.8125 1.828125 C 182.085938 3 182.71875 4.605469 182.71875 6.5 C 182.71875 8.394531 182.105469 9.925781 180.886719 11.09375 C 179.664062 12.265625 178.15625 12.851562 176.207031 12.851562 C 174.257812 12.851562 172.6875 12.265625 171.488281 11.09375 C 170.292969 9.925781 169.699219 8.417969 169.699219 6.574219 C 169.699219 4.628906 170.316406 3.0625 171.566406 1.867188 C 172.8125 0.667969 174.382812 0.078125 176.28125 0.078125 Z M 176.28125 0.078125 " clip-rule="nonzero"/></clipPath><linearGradient x1="-0" gradientTransform="matrix(1.782129, 0, 0, 1.782129, 0.000000000000021274, 0.0752855)" y1="21" x2="139.862178" gradientUnits="userSpaceOnUse" y2="21" id="13a0c504a1"><stop stop-opacity="1" stop-color="rgb(100%, 100%, 100%)" offset="0"/><stop stop-opacity="1" stop-color="rgb(99.784851%, 99.784851%, 99.784851%)" offset="0.00390625"/><stop stop-opacity="1" stop-color="rgb(99.571228%, 99.571228%, 99.571228%)" offset="0.0078125"/><stop stop-opacity="1" stop-color="rgb(99.356079%, 99.356079%, 99.356079%)" offset="0.0117187"/><stop stop-opacity="1" stop-color="rgb(99.142456%, 99.142456%, 99.142456%)" offset="0.015625"/><stop stop-opacity="1" stop-color="rgb(98.927307%, 98.927307%, 98.927307%)" offset="0.0195312"/><stop stop-opacity="1" stop-color="rgb(98.713684%, 98.713684%, 98.713684%)" offset="0.0234375"/><stop stop-opacity="1" stop-color="rgb(98.498535%, 98.498535%, 98.498535%)" offset="0.0273438"/><stop stop-opacity="1" stop-color="rgb(98.284912%, 98.284912%, 98.284912%)" offset="0.03125"/><stop stop-opacity="1" stop-color="rgb(98.069763%, 98.069763%, 98.069763%)" offset="0.0351563"/><stop stop-opacity="1" stop-color="rgb(97.85614%, 97.85614%, 97.85614%)" offset="0.0390625"/><stop stop-opacity="1" stop-color="rgb(97.642517%, 97.642517%, 97.642517%)" offset="0.0429688"/><stop stop-opacity="1" stop-color="rgb(97.428894%, 97.428894%, 97.428894%)" offset="0.046875"/><stop stop-opacity="1" stop-color="rgb(97.213745%, 97.213745%, 97.213745%)" offset="0.0507812"/><stop stop-opacity="1" stop-color="rgb(97.000122%, 97.000122%, 97.000122%)" offset="0.0546875"/><stop stop-opacity="1" stop-color="rgb(96.784973%, 96.784973%, 96.784973%)" offset="0.0585938"/><stop stop-opacity="1" stop-color="rgb(96.57135%, 96.57135%, 96.57135%)" offset="0.0625"/><stop stop-opacity="1" stop-color="rgb(96.356201%, 96.356201%, 96.356201%)" offset="0.0664063"/><stop stop-opacity="1" stop-color="rgb(96.142578%, 96.142578%, 96.142578%)" offset="0.0703125"/><stop stop-opacity="1" stop-color="rgb(95.927429%, 95.927429%, 95.927429%)" offset="0.0742188"/><stop stop-opacity="1" stop-color="rgb(95.713806%, 95.713806%, 95.713806%)" offset="0.078125"/><stop stop-opacity="1" stop-color="rgb(95.500183%, 95.500183%, 95.500183%)" offset="0.0820312"/><stop stop-opacity="1" stop-color="rgb(95.28656%, 95.28656%, 95.28656%)" offset="0.0859375"/><stop stop-opacity="1" stop-color="rgb(95.071411%, 95.071411%, 95.071411%)" offset="0.0898438"/><stop stop-opacity="1" stop-color="rgb(94.857788%, 94.857788%, 94.857788%)" offset="0.09375"/><stop stop-opacity="1" stop-color="rgb(94.642639%, 94.642639%, 94.642639%)" offset="0.0976562"/><stop stop-opacity="1" stop-color="rgb(94.429016%, 94.429016%, 94.429016%)" offset="0.101562"/><stop stop-opacity="1" stop-color="rgb(94.213867%, 94.213867%, 94.213867%)" offset="0.105469"/><stop stop-opacity="1" stop-color="rgb(94.000244%, 94.000244%, 94.000244%)" offset="0.109375"/><stop stop-opacity="1" stop-color="rgb(93.785095%, 93.785095%, 93.785095%)" offset="0.113281"/><stop stop-opacity="1" stop-color="rgb(93.571472%, 93.571472%, 93.571472%)" offset="0.117188"/><stop stop-opacity="1" stop-color="rgb(93.357849%, 93.357849%, 93.357849%)" offset="0.121094"/><stop stop-opacity="1" stop-color="rgb(93.144226%, 93.144226%, 93.144226%)" offset="0.125"/><stop stop-opacity="1" stop-color="rgb(92.929077%, 92.929077%, 92.929077%)" offset="0.128906"/><stop stop-opacity="1" stop-color="rgb(92.715454%, 92.715454%, 92.715454%)" offset="0.132813"/><stop stop-opacity="1" stop-color="rgb(92.500305%, 92.500305%, 92.500305%)" offset="0.136719"/><stop stop-opacity="1" stop-color="rgb(92.286682%, 92.286682%, 92.286682%)" offset="0.140625"/><stop stop-opacity="1" stop-color="rgb(92.071533%, 92.071533%, 92.071533%)" offset="0.144531"/><stop stop-opacity="1" stop-color="rgb(91.85791%, 91.85791%, 91.85791%)" offset="0.148438"/><stop stop-opacity="1" stop-color="rgb(91.642761%, 91.642761%, 91.642761%)" offset="0.152344"/><stop stop-opacity="1" stop-color="rgb(91.429138%, 91.429138%, 91.429138%)" offset="0.15625"/><stop stop-opacity="1" stop-color="rgb(91.215515%, 91.215515%, 91.215515%)" offset="0.160156"/><stop stop-opacity="1" stop-color="rgb(91.001892%, 91.001892%, 91.001892%)" offset="0.164062"/><stop stop-opacity="1" stop-color="rgb(90.786743%, 90.786743%, 90.786743%)" offset="0.167969"/><stop stop-opacity="1" stop-color="rgb(90.57312%, 90.57312%, 90.57312%)" offset="0.171875"/><stop stop-opacity="1" stop-color="rgb(90.357971%, 90.357971%, 90.357971%)" offset="0.175781"/><stop stop-opacity="1" stop-color="rgb(90.144348%, 90.144348%, 90.144348%)" offset="0.179688"/><stop stop-opacity="1" stop-color="rgb(89.929199%, 89.929199%, 89.929199%)" offset="0.183594"/><stop stop-opacity="1" stop-color="rgb(89.715576%, 89.715576%, 89.715576%)" offset="0.1875"/><stop stop-opacity="1" stop-color="rgb(89.500427%, 89.500427%, 89.500427%)" offset="0.191406"/><stop stop-opacity="1" stop-color="rgb(89.286804%, 89.286804%, 89.286804%)" offset="0.195312"/><stop stop-opacity="1" stop-color="rgb(89.071655%, 89.071655%, 89.071655%)" offset="0.199219"/><stop stop-opacity="1" stop-color="rgb(88.858032%, 88.858032%, 88.858032%)" offset="0.203125"/><stop stop-opacity="1" stop-color="rgb(88.644409%, 88.644409%, 88.644409%)" offset="0.207031"/><stop stop-opacity="1" stop-color="rgb(88.430786%, 88.430786%, 88.430786%)" offset="0.210937"/><stop stop-opacity="1" stop-color="rgb(88.215637%, 88.215637%, 88.215637%)" offset="0.214844"/><stop stop-opacity="1" stop-color="rgb(88.002014%, 88.002014%, 88.002014%)" offset="0.21875"/><stop stop-opacity="1" stop-color="rgb(87.786865%, 87.786865%, 87.786865%)" offset="0.222656"/><stop stop-opacity="1" stop-color="rgb(87.573242%, 87.573242%, 87.573242%)" offset="0.226563"/><stop stop-opacity="1" stop-color="rgb(87.358093%, 87.358093%, 87.358093%)" offset="0.230469"/><stop stop-opacity="1" stop-color="rgb(87.14447%, 87.14447%, 87.14447%)" offset="0.234375"/><stop stop-opacity="1" stop-color="rgb(86.929321%, 86.929321%, 86.929321%)" offset="0.238281"/><stop stop-opacity="1" stop-color="rgb(86.715698%, 86.715698%, 86.715698%)" offset="0.242188"/><stop stop-opacity="1" stop-color="rgb(86.502075%, 86.502075%, 86.502075%)" offset="0.246094"/><stop stop-opacity="1" stop-color="rgb(86.288452%, 86.288452%, 86.288452%)" offset="0.25"/><stop stop-opacity="1" stop-color="rgb(86.073303%, 86.073303%, 86.073303%)" offset="0.253906"/><stop stop-opacity="1" stop-color="rgb(85.85968%, 85.85968%, 85.85968%)" offset="0.257812"/><stop stop-opacity="1" stop-color="rgb(85.644531%, 85.644531%, 85.644531%)" offset="0.261719"/><stop stop-opacity="1" stop-color="rgb(85.430908%, 85.430908%, 85.430908%)" offset="0.265625"/><stop stop-opacity="1" stop-color="rgb(85.215759%, 85.215759%, 85.215759%)" offset="0.269531"/><stop stop-opacity="1" stop-color="rgb(85.002136%, 85.002136%, 85.002136%)" offset="0.273438"/><stop stop-opacity="1" stop-color="rgb(84.786987%, 84.786987%, 84.786987%)" offset="0.277344"/><stop stop-opacity="1" stop-color="rgb(84.573364%, 84.573364%, 84.573364%)" offset="0.28125"/><stop stop-opacity="1" stop-color="rgb(84.359741%, 84.359741%, 84.359741%)" offset="0.285156"/><stop stop-opacity="1" stop-color="rgb(84.146118%, 84.146118%, 84.146118%)" offset="0.289063"/><stop stop-opacity="1" stop-color="rgb(83.930969%, 83.930969%, 83.930969%)" offset="0.292969"/><stop stop-opacity="1" stop-color="rgb(83.717346%, 83.717346%, 83.717346%)" offset="0.296875"/><stop stop-opacity="1" stop-color="rgb(83.502197%, 83.502197%, 83.502197%)" offset="0.300781"/><stop stop-opacity="1" stop-color="rgb(83.288574%, 83.288574%, 83.288574%)" offset="0.304688"/><stop stop-opacity="1" stop-color="rgb(83.073425%, 83.073425%, 83.073425%)" offset="0.308594"/><stop stop-opacity="1" stop-color="rgb(82.859802%, 82.859802%, 82.859802%)" offset="0.3125"/><stop stop-opacity="1" stop-color="rgb(82.644653%, 82.644653%, 82.644653%)" offset="0.316406"/><stop stop-opacity="1" stop-color="rgb(82.43103%, 82.43103%, 82.43103%)" offset="0.320312"/><stop stop-opacity="1" stop-color="rgb(82.217407%, 82.217407%, 82.217407%)" offset="0.324219"/><stop stop-opacity="1" stop-color="rgb(82.003784%, 82.003784%, 82.003784%)" offset="0.328125"/><stop stop-opacity="1" stop-color="rgb(81.788635%, 81.788635%, 81.788635%)" offset="0.332031"/><stop stop-opacity="1" stop-color="rgb(81.575012%, 81.575012%, 81.575012%)" offset="0.335938"/><stop stop-opacity="1" stop-color="rgb(81.359863%, 81.359863%, 81.359863%)" offset="0.339844"/><stop stop-opacity="1" stop-color="rgb(81.14624%, 81.14624%, 81.14624%)" offset="0.34375"/><stop stop-opacity="1" stop-color="rgb(80.931091%, 80.931091%, 80.931091%)" offset="0.347656"/><stop stop-opacity="1" stop-color="rgb(80.717468%, 80.717468%, 80.717468%)" offset="0.351562"/><stop stop-opacity="1" stop-color="rgb(80.502319%, 80.502319%, 80.502319%)" offset="0.355469"/><stop stop-opacity="1" stop-color="rgb(80.288696%, 80.288696%, 80.288696%)" offset="0.359375"/><stop stop-opacity="1" stop-color="rgb(80.073547%, 80.073547%, 80.073547%)" offset="0.363281"/><stop stop-opacity="1" stop-color="rgb(79.859924%, 79.859924%, 79.859924%)" offset="0.367188"/><stop stop-opacity="1" stop-color="rgb(79.646301%, 79.646301%, 79.646301%)" offset="0.371094"/><stop stop-opacity="1" stop-color="rgb(79.432678%, 79.432678%, 79.432678%)" offset="0.375"/><stop stop-opacity="1" stop-color="rgb(79.217529%, 79.217529%, 79.217529%)" offset="0.378906"/><stop stop-opacity="1" stop-color="rgb(79.003906%, 79.003906%, 79.003906%)" offset="0.382812"/><stop stop-opacity="1" stop-color="rgb(78.788757%, 78.788757%, 78.788757%)" offset="0.386719"/><stop stop-opacity="1" stop-color="rgb(78.575134%, 78.575134%, 78.575134%)" offset="0.390625"/><stop stop-opacity="1" stop-color="rgb(78.359985%, 78.359985%, 78.359985%)" offset="0.394531"/><stop stop-opacity="1" stop-color="rgb(78.146362%, 78.146362%, 78.146362%)" offset="0.398437"/><stop stop-opacity="1" stop-color="rgb(77.931213%, 77.931213%, 77.931213%)" offset="0.402344"/><stop stop-opacity="1" stop-color="rgb(77.71759%, 77.71759%, 77.71759%)" offset="0.40625"/><stop stop-opacity="1" stop-color="rgb(77.503967%, 77.503967%, 77.503967%)" offset="0.410156"/><stop stop-opacity="1" stop-color="rgb(77.290344%, 77.290344%, 77.290344%)" offset="0.414062"/><stop stop-opacity="1" stop-color="rgb(77.075195%, 77.075195%, 77.075195%)" offset="0.417969"/><stop stop-opacity="1" stop-color="rgb(76.861572%, 76.861572%, 76.861572%)" offset="0.421875"/><stop stop-opacity="1" stop-color="rgb(76.646423%, 76.646423%, 76.646423%)" offset="0.425781"/><stop stop-opacity="1" stop-color="rgb(76.4328%, 76.4328%, 76.4328%)" offset="0.429688"/><stop stop-opacity="1" stop-color="rgb(76.217651%, 76.217651%, 76.217651%)" offset="0.433594"/><stop stop-opacity="1" stop-color="rgb(76.004028%, 76.004028%, 76.004028%)" offset="0.4375"/><stop stop-opacity="1" stop-color="rgb(75.788879%, 75.788879%, 75.788879%)" offset="0.441406"/><stop stop-opacity="1" stop-color="rgb(75.575256%, 75.575256%, 75.575256%)" offset="0.445312"/><stop stop-opacity="1" stop-color="rgb(75.361633%, 75.361633%, 75.361633%)" offset="0.449219"/><stop stop-opacity="1" stop-color="rgb(75.14801%, 75.14801%, 75.14801%)" offset="0.453125"/><stop stop-opacity="1" stop-color="rgb(74.932861%, 74.932861%, 74.932861%)" offset="0.457031"/><stop stop-opacity="1" stop-color="rgb(74.719238%, 74.719238%, 74.719238%)" offset="0.460938"/><stop stop-opacity="1" stop-color="rgb(74.504089%, 74.504089%, 74.504089%)" offset="0.464844"/><stop stop-opacity="1" stop-color="rgb(74.290466%, 74.290466%, 74.290466%)" offset="0.46875"/><stop stop-opacity="1" stop-color="rgb(74.075317%, 74.075317%, 74.075317%)" offset="0.472656"/><stop stop-opacity="1" stop-color="rgb(73.861694%, 73.861694%, 73.861694%)" offset="0.476562"/><stop stop-opacity="1" stop-color="rgb(73.646545%, 73.646545%, 73.646545%)" offset="0.480469"/><stop stop-opacity="1" stop-color="rgb(73.432922%, 73.432922%, 73.432922%)" offset="0.484375"/><stop stop-opacity="1" stop-color="rgb(73.219299%, 73.219299%, 73.219299%)" offset="0.488281"/><stop stop-opacity="1" stop-color="rgb(73.005676%, 73.005676%, 73.005676%)" offset="0.492188"/><stop stop-opacity="1" stop-color="rgb(72.790527%, 72.790527%, 72.790527%)" offset="0.496094"/><stop stop-opacity="1" stop-color="rgb(72.576904%, 72.576904%, 72.576904%)" offset="0.5"/><stop stop-opacity="1" stop-color="rgb(72.361755%, 72.361755%, 72.361755%)" offset="0.503906"/><stop stop-opacity="1" stop-color="rgb(72.148132%, 72.148132%, 72.148132%)" offset="0.507812"/><stop stop-opacity="1" stop-color="rgb(71.932983%, 71.932983%, 71.932983%)" offset="0.511719"/><stop stop-opacity="1" stop-color="rgb(71.71936%, 71.71936%, 71.71936%)" offset="0.515625"/><stop stop-opacity="1" stop-color="rgb(71.504211%, 71.504211%, 71.504211%)" offset="0.519531"/><stop stop-opacity="1" stop-color="rgb(71.290588%, 71.290588%, 71.290588%)" offset="0.523438"/><stop stop-opacity="1" stop-color="rgb(71.075439%, 71.075439%, 71.075439%)" offset="0.527344"/><stop stop-opacity="1" stop-color="rgb(70.861816%, 70.861816%, 70.861816%)" offset="0.53125"/><stop stop-opacity="1" stop-color="rgb(70.648193%, 70.648193%, 70.648193%)" offset="0.535156"/><stop stop-opacity="1" stop-color="rgb(70.43457%, 70.43457%, 70.43457%)" offset="0.539063"/><stop stop-opacity="1" stop-color="rgb(70.219421%, 70.219421%, 70.219421%)" offset="0.542969"/><stop stop-opacity="1" stop-color="rgb(70.005798%, 70.005798%, 70.005798%)" offset="0.546875"/><stop stop-opacity="1" stop-color="rgb(69.790649%, 69.790649%, 69.790649%)" offset="0.550781"/><stop stop-opacity="1" stop-color="rgb(69.577026%, 69.577026%, 69.577026%)" offset="0.554688"/><stop stop-opacity="1" stop-color="rgb(69.361877%, 69.361877%, 69.361877%)" offset="0.558594"/><stop stop-opacity="1" stop-color="rgb(69.148254%, 69.148254%, 69.148254%)" offset="0.5625"/><stop stop-opacity="1" stop-color="rgb(68.933105%, 68.933105%, 68.933105%)" offset="0.566406"/><stop stop-opacity="1" stop-color="rgb(68.719482%, 68.719482%, 68.719482%)" offset="0.570313"/><stop stop-opacity="1" stop-color="rgb(68.505859%, 68.505859%, 68.505859%)" offset="0.574219"/><stop stop-opacity="1" stop-color="rgb(68.292236%, 68.292236%, 68.292236%)" offset="0.578125"/><stop stop-opacity="1" stop-color="rgb(68.077087%, 68.077087%, 68.077087%)" offset="0.582031"/><stop stop-opacity="1" stop-color="rgb(67.863464%, 67.863464%, 67.863464%)" offset="0.585938"/><stop stop-opacity="1" stop-color="rgb(67.648315%, 67.648315%, 67.648315%)" offset="0.589844"/><stop stop-opacity="1" stop-color="rgb(67.434692%, 67.434692%, 67.434692%)" offset="0.59375"/><stop stop-opacity="1" stop-color="rgb(67.219543%, 67.219543%, 67.219543%)" offset="0.597656"/><stop stop-opacity="1" stop-color="rgb(67.00592%, 67.00592%, 67.00592%)" offset="0.601563"/><stop stop-opacity="1" stop-color="rgb(66.790771%, 66.790771%, 66.790771%)" offset="0.605469"/><stop stop-opacity="1" stop-color="rgb(66.577148%, 66.577148%, 66.577148%)" offset="0.609375"/><stop stop-opacity="1" stop-color="rgb(66.363525%, 66.363525%, 66.363525%)" offset="0.613281"/><stop stop-opacity="1" stop-color="rgb(66.149902%, 66.149902%, 66.149902%)" offset="0.617188"/><stop stop-opacity="1" stop-color="rgb(65.934753%, 65.934753%, 65.934753%)" offset="0.621094"/><stop stop-opacity="1" stop-color="rgb(65.72113%, 65.72113%, 65.72113%)" offset="0.625"/><stop stop-opacity="1" stop-color="rgb(65.505981%, 65.505981%, 65.505981%)" offset="0.628906"/><stop stop-opacity="1" stop-color="rgb(65.292358%, 65.292358%, 65.292358%)" offset="0.632813"/><stop stop-opacity="1" stop-color="rgb(65.077209%, 65.077209%, 65.077209%)" offset="0.636719"/><stop stop-opacity="1" stop-color="rgb(64.863586%, 64.863586%, 64.863586%)" offset="0.640625"/><stop stop-opacity="1" stop-color="rgb(64.648438%, 64.648438%, 64.648438%)" offset="0.644531"/><stop stop-opacity="1" stop-color="rgb(64.434814%, 64.434814%, 64.434814%)" offset="0.648438"/><stop stop-opacity="1" stop-color="rgb(64.221191%, 64.221191%, 64.221191%)" offset="0.652344"/><stop stop-opacity="1" stop-color="rgb(64.007568%, 64.007568%, 64.007568%)" offset="0.65625"/><stop stop-opacity="1" stop-color="rgb(63.792419%, 63.792419%, 63.792419%)" offset="0.660156"/><stop stop-opacity="1" stop-color="rgb(63.578796%, 63.578796%, 63.578796%)" offset="0.664063"/><stop stop-opacity="1" stop-color="rgb(63.363647%, 63.363647%, 63.363647%)" offset="0.667969"/><stop stop-opacity="1" stop-color="rgb(63.150024%, 63.150024%, 63.150024%)" offset="0.671875"/><stop stop-opacity="1" stop-color="rgb(62.934875%, 62.934875%, 62.934875%)" offset="0.675781"/><stop stop-opacity="1" stop-color="rgb(62.721252%, 62.721252%, 62.721252%)" offset="0.679687"/><stop stop-opacity="1" stop-color="rgb(62.506104%, 62.506104%, 62.506104%)" offset="0.683594"/><stop stop-opacity="1" stop-color="rgb(62.29248%, 62.29248%, 62.29248%)" offset="0.6875"/><stop stop-opacity="1" stop-color="rgb(62.077332%, 62.077332%, 62.077332%)" offset="0.691406"/><stop stop-opacity="1" stop-color="rgb(61.863708%, 61.863708%, 61.863708%)" offset="0.695312"/><stop stop-opacity="1" stop-color="rgb(61.650085%, 61.650085%, 61.650085%)" offset="0.699219"/><stop stop-opacity="1" stop-color="rgb(61.436462%, 61.436462%, 61.436462%)" offset="0.703125"/><stop stop-opacity="1" stop-color="rgb(61.221313%, 61.221313%, 61.221313%)" offset="0.707031"/><stop stop-opacity="1" stop-color="rgb(61.00769%, 61.00769%, 61.00769%)" offset="0.710937"/><stop stop-opacity="1" stop-color="rgb(60.792542%, 60.792542%, 60.792542%)" offset="0.714844"/><stop stop-opacity="1" stop-color="rgb(60.578918%, 60.578918%, 60.578918%)" offset="0.71875"/><stop stop-opacity="1" stop-color="rgb(60.36377%, 60.36377%, 60.36377%)" offset="0.722656"/><stop stop-opacity="1" stop-color="rgb(60.150146%, 60.150146%, 60.150146%)" offset="0.726562"/><stop stop-opacity="1" stop-color="rgb(59.934998%, 59.934998%, 59.934998%)" offset="0.730469"/><stop stop-opacity="1" stop-color="rgb(59.721375%, 59.721375%, 59.721375%)" offset="0.734375"/><stop stop-opacity="1" stop-color="rgb(59.507751%, 59.507751%, 59.507751%)" offset="0.738281"/><stop stop-opacity="1" stop-color="rgb(59.294128%, 59.294128%, 59.294128%)" offset="0.742187"/><stop stop-opacity="1" stop-color="rgb(59.078979%, 59.078979%, 59.078979%)" offset="0.746094"/><stop stop-opacity="1" stop-color="rgb(58.865356%, 58.865356%, 58.865356%)" offset="0.75"/><stop stop-opacity="1" stop-color="rgb(58.650208%, 58.650208%, 58.650208%)" offset="0.753906"/><stop stop-opacity="1" stop-color="rgb(58.436584%, 58.436584%, 58.436584%)" offset="0.757812"/><stop stop-opacity="1" stop-color="rgb(58.221436%, 58.221436%, 58.221436%)" offset="0.761719"/><stop stop-opacity="1" stop-color="rgb(58.007812%, 58.007812%, 58.007812%)" offset="0.765625"/><stop stop-opacity="1" stop-color="rgb(57.792664%, 57.792664%, 57.792664%)" offset="0.769531"/><stop stop-opacity="1" stop-color="rgb(57.579041%, 57.579041%, 57.579041%)" offset="0.773437"/><stop stop-opacity="1" stop-color="rgb(57.365417%, 57.365417%, 57.365417%)" offset="0.777344"/><stop stop-opacity="1" stop-color="rgb(57.151794%, 57.151794%, 57.151794%)" offset="0.78125"/><stop stop-opacity="1" stop-color="rgb(56.936646%, 56.936646%, 56.936646%)" offset="0.785156"/><stop stop-opacity="1" stop-color="rgb(56.723022%, 56.723022%, 56.723022%)" offset="0.789062"/><stop stop-opacity="1" stop-color="rgb(56.507874%, 56.507874%, 56.507874%)" offset="0.792969"/><stop stop-opacity="1" stop-color="rgb(56.29425%, 56.29425%, 56.29425%)" offset="0.796875"/><stop stop-opacity="1" stop-color="rgb(56.079102%, 56.079102%, 56.079102%)" offset="0.800781"/><stop stop-opacity="1" stop-color="rgb(55.865479%, 55.865479%, 55.865479%)" offset="0.804687"/><stop stop-opacity="1" stop-color="rgb(55.65033%, 55.65033%, 55.65033%)" offset="0.808594"/><stop stop-opacity="1" stop-color="rgb(55.436707%, 55.436707%, 55.436707%)" offset="0.8125"/><stop stop-opacity="1" stop-color="rgb(55.223083%, 55.223083%, 55.223083%)" offset="0.816406"/><stop stop-opacity="1" stop-color="rgb(55.00946%, 55.00946%, 55.00946%)" offset="0.820312"/><stop stop-opacity="1" stop-color="rgb(54.794312%, 54.794312%, 54.794312%)" offset="0.824219"/><stop stop-opacity="1" stop-color="rgb(54.580688%, 54.580688%, 54.580688%)" offset="0.828125"/><stop stop-opacity="1" stop-color="rgb(54.36554%, 54.36554%, 54.36554%)" offset="0.832031"/><stop stop-opacity="1" stop-color="rgb(54.151917%, 54.151917%, 54.151917%)" offset="0.835937"/><stop stop-opacity="1" stop-color="rgb(53.936768%, 53.936768%, 53.936768%)" offset="0.839844"/><stop stop-opacity="1" stop-color="rgb(53.723145%, 53.723145%, 53.723145%)" offset="0.84375"/><stop stop-opacity="1" stop-color="rgb(53.507996%, 53.507996%, 53.507996%)" offset="0.847656"/><stop stop-opacity="1" stop-color="rgb(53.294373%, 53.294373%, 53.294373%)" offset="0.851562"/><stop stop-opacity="1" stop-color="rgb(53.079224%, 53.079224%, 53.079224%)" offset="0.855469"/><stop stop-opacity="1" stop-color="rgb(52.865601%, 52.865601%, 52.865601%)" offset="0.859375"/><stop stop-opacity="1" stop-color="rgb(52.651978%, 52.651978%, 52.651978%)" offset="0.863281"/><stop stop-opacity="1" stop-color="rgb(52.438354%, 52.438354%, 52.438354%)" offset="0.867188"/><stop stop-opacity="1" stop-color="rgb(52.223206%, 52.223206%, 52.223206%)" offset="0.871094"/><stop stop-opacity="1" stop-color="rgb(52.009583%, 52.009583%, 52.009583%)" offset="0.875"/><stop stop-opacity="1" stop-color="rgb(51.794434%, 51.794434%, 51.794434%)" offset="0.878906"/><stop stop-opacity="1" stop-color="rgb(51.580811%, 51.580811%, 51.580811%)" offset="0.882812"/><stop stop-opacity="1" stop-color="rgb(51.365662%, 51.365662%, 51.365662%)" offset="0.886719"/><stop stop-opacity="1" stop-color="rgb(51.152039%, 51.152039%, 51.152039%)" offset="0.890625"/><stop stop-opacity="1" stop-color="rgb(50.93689%, 50.93689%, 50.93689%)" offset="0.894531"/><stop stop-opacity="1" stop-color="rgb(50.723267%, 50.723267%, 50.723267%)" offset="0.898438"/><stop stop-opacity="1" stop-color="rgb(50.509644%, 50.509644%, 50.509644%)" offset="0.902344"/><stop stop-opacity="1" stop-color="rgb(50.296021%, 50.296021%, 50.296021%)" offset="0.90625"/><stop stop-opacity="1" stop-color="rgb(50.080872%, 50.080872%, 50.080872%)" offset="0.910156"/><stop stop-opacity="1" stop-color="rgb(49.867249%, 49.867249%, 49.867249%)" offset="0.914063"/><stop stop-opacity="1" stop-color="rgb(49.6521%, 49.6521%, 49.6521%)" offset="0.917969"/><stop stop-opacity="1" stop-color="rgb(49.438477%, 49.438477%, 49.438477%)" offset="0.921875"/><stop stop-opacity="1" stop-color="rgb(49.223328%, 49.223328%, 49.223328%)" offset="0.925781"/><stop stop-opacity="1" stop-color="rgb(49.009705%, 49.009705%, 49.009705%)" offset="0.929688"/><stop stop-opacity="1" stop-color="rgb(48.794556%, 48.794556%, 48.794556%)" offset="0.933594"/><stop stop-opacity="1" stop-color="rgb(48.580933%, 48.580933%, 48.580933%)" offset="0.9375"/><stop stop-opacity="1" stop-color="rgb(48.36731%, 48.36731%, 48.36731%)" offset="0.941406"/><stop stop-opacity="1" stop-color="rgb(48.153687%, 48.153687%, 48.153687%)" offset="0.945313"/><stop stop-opacity="1" stop-color="rgb(47.938538%, 47.938538%, 47.938538%)" offset="0.949219"/><stop stop-opacity="1" stop-color="rgb(47.724915%, 47.724915%, 47.724915%)" offset="0.953125"/><stop stop-opacity="1" stop-color="rgb(47.509766%, 47.509766%, 47.509766%)" offset="0.957031"/><stop stop-opacity="1" stop-color="rgb(47.296143%, 47.296143%, 47.296143%)" offset="0.960938"/><stop stop-opacity="1" stop-color="rgb(47.080994%, 47.080994%, 47.080994%)" offset="0.964844"/><stop stop-opacity="1" stop-color="rgb(46.867371%, 46.867371%, 46.867371%)" offset="0.96875"/><stop stop-opacity="1" stop-color="rgb(46.652222%, 46.652222%, 46.652222%)" offset="0.972656"/><stop stop-opacity="1" stop-color="rgb(46.438599%, 46.438599%, 46.438599%)" offset="0.976563"/><stop stop-opacity="1" stop-color="rgb(46.224976%, 46.224976%, 46.224976%)" offset="0.980469"/><stop stop-opacity="1" stop-color="rgb(46.011353%, 46.011353%, 46.011353%)" offset="0.984375"/><stop stop-opacity="1" stop-color="rgb(45.796204%, 45.796204%, 45.796204%)" offset="0.988281"/><stop stop-opacity="1" stop-color="rgb(45.582581%, 45.582581%, 45.582581%)" offset="0.992188"/><stop stop-opacity="1" stop-color="rgb(45.367432%, 45.367432%, 45.367432%)" offset="0.996094"/><stop stop-opacity="1" stop-color="rgb(45.153809%, 45.153809%, 45.153809%)" offset="1"/></linearGradient></defs><g clip-path="url(#4e1b8ce913)"><g clip-path="url(#1df1269379)"><path fill="url(#13a0c504a1)" d="M 0 0.0742188 L 0 74.925781 L 249.253906 74.925781 L 249.253906 0.0742188 Z M 0 0.0742188 " fill-rule="nonzero"/></g></g></svg>