<svg xmlns="http://www.w3.org/2000/svg" xmlns:xlink="http://www.w3.org/1999/xlink" width="301" zoomAndPan="magnify" viewBox="0 0 225.75 74.999997" height="100" preserveAspectRatio="xMidYMid meet" version="1.0"><defs><filter x="0%" y="0%" width="100%" height="100%" id="7ccb7f0918"><feColorMatrix values="0 0 0 0 1 0 0 0 0 1 0 0 0 0 1 0 0 0 1 0" color-interpolation-filters="sRGB"/></filter><clipPath id="a975d72b17"><path d="M 39 0.0429688 L 105 0.0429688 L 105 40 L 39 40 Z M 39 0.0429688 " clip-rule="nonzero"/></clipPath><mask id="8f41da8a71"><g filter="url(#7ccb7f0918)"><rect x="-22.575" width="270.9" fill="#000000" y="-7.5" height="89.999996" fill-opacity="0.2"/></g></mask><clipPath id="b454119406"><path d="M 0.078125 0.0429688 L 65.523438 0.0429688 L 65.523438 29 L 0.078125 29 Z M 0.078125 0.0429688 " clip-rule="nonzero"/></clipPath><clipPath id="757bdcd74e"><rect x="0" width="66" y="0" height="40"/></clipPath><clipPath id="99edf52e0b"><path d="M 0 0.0429688 L 66 0.0429688 L 66 29 L 0 29 Z M 0 0.0429688 " clip-rule="nonzero"/></clipPath><clipPath id="b576853cd8"><path d="M 85 39 L 128 39 L 128 74.957031 L 85 74.957031 Z M 85 39 " clip-rule="nonzero"/></clipPath><clipPath id="d3f3939bca"><path d="M 132 48 L 162 48 L 162 74.957031 L 132 74.957031 Z M 132 48 " clip-rule="nonzero"/></clipPath><clipPath id="ea70615be1"><path d="M 163 49 L 193 49 L 193 74.957031 L 163 74.957031 Z M 163 49 " clip-rule="nonzero"/></clipPath><clipPath id="765d5fb2c5"><path d="M 194 48 L 225 48 L 225 74.957031 L 194 74.957031 Z M 194 48 " clip-rule="nonzero"/></clipPath></defs><g clip-path="url(#a975d72b17)"><g mask="url(#8f41da8a71)"><g transform="matrix(1, 0, 0, 1, 39, -0.000000000000001568)"><g clip-path="url(#757bdcd74e)"><g clip-path="url(#b454119406)"><path fill="#a6a6a6" d="M 58.1875 28.742188 L 33.789062 14.265625 C 33.28125 14.011719 32.722656 14.011719 32.21875 14.265625 L 7.820312 28.742188 C 7.109375 29.148438 6.148438 28.894531 5.746094 28.1875 L 0.835938 19.882812 C 0.429688 19.175781 0.632812 18.265625 1.339844 17.808594 L 29.789062 1.003906 C 31.761719 -0.160156 34.242188 -0.160156 36.21875 1.003906 L 64.664062 17.808594 C 65.375 18.265625 65.578125 19.175781 65.171875 19.882812 L 60.261719 28.1875 C 59.855469 28.894531 58.894531 29.148438 58.1875 28.742188 Z M 58.1875 28.742188 " fill-opacity="1" fill-rule="nonzero"/></g><path fill="#a6a6a6" d="M 38.140625 38.714844 L 28.167969 38.714844 C 27.308594 38.714844 26.648438 38.058594 26.648438 37.195312 L 26.648438 27.222656 C 26.648438 26.363281 27.308594 25.707031 28.167969 25.707031 L 38.140625 25.707031 C 39 25.707031 39.660156 26.363281 39.660156 27.222656 L 39.660156 37.195312 C 39.660156 38.058594 39 38.714844 38.140625 38.714844 Z M 38.140625 38.714844 " fill-opacity="1" fill-rule="nonzero"/></g></g></g></g><g clip-path="url(#99edf52e0b)"><path fill="#a6a6a6" d="M 58.160156 28.742188 L 33.761719 14.265625 C 33.253906 14.011719 32.695312 14.011719 32.191406 14.265625 L 7.792969 28.742188 C 7.082031 29.148438 6.121094 28.894531 5.714844 28.1875 L 0.804688 19.882812 C 0.402344 19.175781 0.605469 18.265625 1.363281 17.808594 L 29.761719 1.003906 C 31.734375 -0.160156 34.214844 -0.160156 36.191406 1.003906 L 64.636719 17.808594 C 65.347656 18.265625 65.550781 19.175781 65.144531 19.882812 L 60.234375 28.1875 C 59.828125 28.894531 58.917969 29.148438 58.160156 28.742188 Z M 58.160156 28.742188 " fill-opacity="1" fill-rule="nonzero"/></g><path fill="#a6a6a6" d="M 38.113281 38.714844 L 28.140625 38.714844 C 27.28125 38.714844 26.621094 38.058594 26.621094 37.195312 L 26.621094 27.222656 C 26.621094 26.363281 27.28125 25.707031 28.140625 25.707031 L 38.113281 25.707031 C 38.972656 25.707031 39.632812 26.363281 39.632812 27.222656 L 39.632812 37.195312 C 39.632812 38.058594 38.972656 38.714844 38.113281 38.714844 Z M 38.113281 38.714844 " fill-opacity="1" fill-rule="nonzero"/><g clip-path="url(#b576853cd8)"><path fill="#ffffff" d="M 93.742188 74.097656 L 85.492188 74.097656 L 85.492188 39.726562 L 98.753906 39.726562 L 105.4375 60.226562 C 106.144531 62.355469 105.992188 65.136719 105.992188 67.367188 L 107.359375 67.367188 C 107.359375 65.136719 107.160156 62.304688 107.816406 60.226562 L 114.5 39.726562 L 127.710938 39.726562 L 127.710938 74.097656 L 119.457031 74.097656 L 119.457031 50.40625 C 119.457031 48.230469 120.371094 45.398438 120.671875 43.21875 L 119.308594 43.066406 C 119.054688 45.195312 119.054688 48.128906 118.394531 50.257812 L 111.664062 74.097656 L 101.589844 74.097656 L 94.757812 50.257812 C 94.148438 48.128906 94.199219 45.246094 93.84375 43.066406 L 92.527344 43.269531 C 92.882812 45.449219 93.742188 48.230469 93.742188 50.40625 Z M 93.742188 74.097656 " fill-opacity="1" fill-rule="nonzero"/></g><g clip-path="url(#d3f3939bca)"><path fill="#ffffff" d="M 147.097656 48.789062 C 156.257812 48.789062 161.980469 54.101562 161.980469 61.847656 C 161.980469 69.59375 156.257812 74.855469 147.097656 74.855469 C 137.933594 74.855469 132.214844 70.148438 132.214844 61.847656 C 132.214844 53.546875 137.933594 48.789062 147.097656 48.789062 Z M 147.046875 67.367188 C 152.058594 67.367188 153.628906 64.9375 153.628906 61.847656 C 153.628906 58.761719 152.058594 56.230469 147.046875 56.230469 C 142.035156 56.230469 140.515625 58.761719 140.515625 61.847656 C 140.515625 64.9375 142.035156 67.367188 147.046875 67.367188 Z M 147.046875 67.367188 " fill-opacity="1" fill-rule="evenodd"/></g><g clip-path="url(#ea70615be1)"><path fill="#ffffff" d="M 176.355469 61.390625 C 177.214844 63.621094 177.164062 66.757812 177.164062 69.1875 L 178.480469 69.1875 C 178.480469 66.707031 178.429688 63.621094 179.34375 61.390625 L 183.949219 49.546875 L 192.605469 49.546875 L 181.773438 74.097656 L 174.078125 74.097656 L 163.09375 49.546875 L 171.699219 49.546875 Z M 176.355469 61.390625 " fill-opacity="1" fill-rule="nonzero"/></g><g clip-path="url(#765d5fb2c5)"><path fill="#ffffff" d="M 194.171875 61.644531 C 194.171875 54.355469 200.550781 48.789062 209.5625 48.789062 C 218.875 48.789062 224.597656 54.863281 224.546875 61.746094 C 224.546875 62.304688 224.546875 63.46875 224.546875 63.921875 L 203.839844 63.871094 C 203.839844 66 205.867188 68.480469 210.117188 68.480469 C 212.800781 68.480469 214.472656 67.71875 214.976562 67.0625 L 223.988281 67.0625 C 223.28125 69.59375 219.28125 74.855469 210.828125 74.855469 C 200.046875 74.855469 194.171875 68.984375 194.171875 61.644531 Z M 215.332031 59.367188 C 215.332031 56.480469 213.207031 54.558594 209.765625 54.558594 C 206.269531 54.558594 203.839844 56.734375 203.839844 59.367188 Z M 215.332031 59.367188 " fill-opacity="1" fill-rule="evenodd"/></g></svg>